<svg version="1.1" xmlns="http://www.w3.org/2000/svg" xmlns:xlink="http://www.w3.org/1999/xlink" width="40" height="40" viewBox="400,126.5,400,400"><defs><clipPath id="clip-1"><rect x="400" y="126.5" width="400" height="400" id="clip-1" fill="none" fill-rule="nonzero" stroke="none" stroke-width="1" stroke-linecap="butt" stroke-linejoin="miter"/></clipPath><linearGradient x1="572.0317" y1="481.2886" x2="722.5375" y2="361.1086" gradientUnits="userSpaceOnUse" id="color-1"><stop offset="0" stop-color="#fc9fda" stop-opacity="0.97"/><stop offset="1" stop-color="#8cffd3" stop-opacity="0.76"/></linearGradient><linearGradient x1="404.6782" y1="197.1247" x2="769.7109" y2="388.0649" gradientUnits="userSpaceOnUse" id="color-2"><stop offset="0" stop-color="#8cffd3"/><stop offset="1" stop-color="#fc9fda"/></linearGradient><linearGradient x1="487.7934" y1="180.277" x2="554.0608" y2="472.3032" gradientUnits="userSpaceOnUse" id="color-3"><stop offset="0" stop-color="#8cffd3" stop-opacity="0.87"/><stop offset="1" stop-color="#fc9fda"/></linearGradient><linearGradient x1="572.0317" y1="481.2886" x2="722.5375" y2="361.1086" gradientUnits="userSpaceOnUse" id="color-4"><stop offset="0" stop-color="#fc9fda" stop-opacity="0.97"/><stop offset="1" stop-color="#8cffd3" stop-opacity="0.76"/></linearGradient><linearGradient x1="404.6782" y1="197.1247" x2="769.7109" y2="388.0649" gradientUnits="userSpaceOnUse" id="color-5"><stop offset="0" stop-color="#8cffd3"/><stop offset="1" stop-color="#fc9fda"/></linearGradient><linearGradient x1="487.7934" y1="180.277" x2="554.0608" y2="472.3032" gradientUnits="userSpaceOnUse" id="color-6"><stop offset="0" stop-color="#8cffd3" stop-opacity="0.87"/><stop offset="1" stop-color="#fc9fda"/></linearGradient><linearGradient x1="572.0317" y1="481.2886" x2="722.5375" y2="361.1086" gradientUnits="userSpaceOnUse" id="color-7"><stop offset="0" stop-color="#fc9fda" stop-opacity="0.97"/><stop offset="1" stop-color="#8cffd3" stop-opacity="0.76"/></linearGradient><linearGradient x1="404.6782" y1="197.1247" x2="769.7109" y2="388.0649" gradientUnits="userSpaceOnUse" id="color-8"><stop offset="0" stop-color="#8cffd3"/><stop offset="1" stop-color="#fc9fda"/></linearGradient><linearGradient x1="487.7934" y1="180.277" x2="554.0608" y2="472.3032" gradientUnits="userSpaceOnUse" id="color-9"><stop offset="0" stop-color="#8cffd3" stop-opacity="0.87"/><stop offset="1" stop-color="#fc9fda"/></linearGradient><linearGradient x1="572.0317" y1="481.2886" x2="722.5375" y2="361.1086" gradientUnits="userSpaceOnUse" id="color-10"><stop offset="0" stop-color="#fc9fda" stop-opacity="0.97"/><stop offset="1" stop-color="#8cffd3" stop-opacity="0.76"/></linearGradient><linearGradient x1="404.6782" y1="197.1247" x2="769.7109" y2="388.0649" gradientUnits="userSpaceOnUse" id="color-11"><stop offset="0" stop-color="#8cffd3"/><stop offset="1" stop-color="#fc9fda"/></linearGradient><linearGradient x1="487.7934" y1="180.277" x2="554.0608" y2="472.3032" gradientUnits="userSpaceOnUse" id="color-12"><stop offset="0" stop-color="#8cffd3" stop-opacity="0.87"/><stop offset="1" stop-color="#fc9fda"/></linearGradient><linearGradient x1="572.0317" y1="481.2886" x2="722.5375" y2="361.1086" gradientUnits="userSpaceOnUse" id="color-13"><stop offset="0" stop-color="#fc9fda" stop-opacity="0.97"/><stop offset="1" stop-color="#8cffd3" stop-opacity="0.76"/></linearGradient><linearGradient x1="404.6782" y1="197.1247" x2="769.7109" y2="388.0649" gradientUnits="userSpaceOnUse" id="color-14"><stop offset="0" stop-color="#8cffd3"/><stop offset="1" stop-color="#fc9fda"/></linearGradient><linearGradient x1="487.7934" y1="180.277" x2="554.0608" y2="472.3032" gradientUnits="userSpaceOnUse" id="color-15"><stop offset="0" stop-color="#8cffd3" stop-opacity="0.87"/><stop offset="1" stop-color="#fc9fda"/></linearGradient><clipPath id="clip-2"><rect x="321.12326" y="149.11273" transform="scale(1.859,1.589)" width="45.401" height="73.001" id="clip-2" fill="none" fill-rule="nonzero" stroke="none" stroke-width="1" stroke-linecap="butt"/></clipPath><clipPath id="clip-3"><rect x="321.12326" y="149.11273" transform="scale(1.859,1.589)" width="45.401" height="73.001" id="clip-3" fill="none" fill-rule="nonzero" stroke="none" stroke-width="1" stroke-linecap="butt"/></clipPath><clipPath id="clip-4"><rect x="265.46279" y="121.13814" transform="scale(1.8808,1.8808)" width="107.101" height="73" id="clip-4" fill="none" fill-rule="nonzero" stroke="none" stroke-width="1" stroke-linecap="butt"/></clipPath></defs><g id="document" fill-opacity="0" fill="#ffffff" fill-rule="nonzero" stroke="#000000" stroke-width="0" stroke-linecap="butt" stroke-linejoin="miter" stroke-miterlimit="10" stroke-dasharray="" stroke-dashoffset="0" font-family="none" font-weight="none" font-size="none" text-anchor="none" style="mix-blend-mode: normal"><rect x="700" y="158.125" transform="scale(0.57143,0.8)" width="700" height="500" id="Shape 1 1" vector-effect="non-scaling-stroke"/></g><g fill="none" fill-rule="none" stroke="none" stroke-width="none" stroke-linecap="none" stroke-linejoin="none" stroke-miterlimit="10" stroke-dasharray="" stroke-dashoffset="0" font-family="none" font-weight="none" font-size="none" text-anchor="none" style="mix-blend-mode: normal"><g><g id="stage"><g id="layer1 1"><g clip-path="url(#clip-1)" id="Group 1"><g id="Group 1" fill-opacity="0" fill="#ffffff" fill-rule="nonzero" stroke="#000000" stroke-width="0" stroke-linecap="butt" stroke-linejoin="miter"><rect x="699.50384" y="158.125" transform="scale(0.5714,0.8)" width="700" height="500" id="Shape 1"/></g><g id="Group 1"><g id="Group 1"><g id="Group 1"><g id="Group 1"><g id="Group 1" fill-rule="nonzero" stroke-width="1" stroke-linecap="round" stroke-linejoin="round"><g id="Group 1"><g id="Group 1"><g id="Group 1"><path d="" id="Path 1" fill="none" stroke="#000000"/><path d="M557.5026,493.7308l-58.7988,-135.8006l216.7733,17.9708l12.355,149.5128z" id="Path 1" fill="url(#color-1)" stroke-opacity="0" stroke="#000000"/><path d="M401.0862,193.5729l123.9203,-65.9867l123.9203,65.9867l149.987,210.5958l-273.9073,-12.6358l-100.0095,-53.2543z" id="Path 1" fill="url(#color-2)" stroke-opacity="0" stroke="#000000"/><path d="M560.0485,494.2044l-158.9623,-300.4492l124.4656,-65.8786z" id="Path 1" fill="url(#color-3)" stroke-opacity="0" stroke="#000000"/></g></g></g></g><g id="Group 1" fill-rule="nonzero" stroke-width="1" stroke-linecap="round" stroke-linejoin="round"><g id="Group 1"><g id="Group 1"><path d="" id="Path 1" fill="none" stroke="#000000"/><path d="M557.5026,493.7308l-58.7988,-135.8006l216.7733,17.9708l12.355,149.5128z" id="Path 1" fill="url(#color-4)" stroke-opacity="0" stroke="#000000"/><path d="M401.0862,193.5729l123.9203,-65.9867l123.9203,65.9867l149.987,210.5958l-273.9073,-12.6358l-100.0095,-53.2543z" id="Path 1" fill="url(#color-5)" stroke-opacity="0" stroke="#000000"/><path d="M560.0485,494.2044l-158.9623,-300.4492l124.4656,-65.8786z" id="Path 1" fill="url(#color-6)" stroke-opacity="0" stroke="#000000"/></g></g></g><g id="Group 1" fill-rule="nonzero" stroke-width="1" stroke-linecap="round" stroke-linejoin="round"><g id="Group 1"><path d="" id="Path 1" fill="none" stroke="#000000"/><path d="M557.5026,493.7308l-58.7988,-135.8006l216.7733,17.9708l12.355,149.5128z" id="Path 1" fill="url(#color-7)" stroke-opacity="0" stroke="#000000"/><path d="M401.0862,193.5729l123.9203,-65.9867l123.9203,65.9867l149.987,210.5958l-273.9073,-12.6358l-100.0095,-53.2543z" id="Path 1" fill="url(#color-8)" stroke-opacity="0" stroke="#000000"/><path d="M560.0485,494.2044l-158.9623,-300.4492l124.4656,-65.8786z" id="Path 1" fill="url(#color-9)" stroke-opacity="0" stroke="#000000"/></g></g><g id="Group 1" fill-rule="nonzero" stroke-width="1" stroke-linecap="round" stroke-linejoin="round"><path d="" id="Path 1" fill="none" stroke="#000000"/><path d="M557.5026,493.7308l-58.7988,-135.8006l216.7733,17.9708l12.355,149.5128z" id="Path 1" fill="url(#color-10)" stroke-opacity="0" stroke="#000000"/><path d="M401.0862,193.5729l123.9203,-65.9867l123.9203,65.9867l149.987,210.5958l-273.9073,-12.6358l-100.0095,-53.2543z" id="Path 1" fill="url(#color-11)" stroke-opacity="0" stroke="#000000"/><path d="M560.0485,494.2044l-158.9623,-300.4492l124.4656,-65.8786z" id="Path 1" fill="url(#color-12)" stroke-opacity="0" stroke="#000000"/></g><path d="M557.5026,493.7308l-58.7988,-135.8006l216.7733,17.9708l12.355,149.5128z" id="Path 1" fill="url(#color-13)" fill-rule="nonzero" stroke-opacity="0" stroke="#000000" stroke-width="1" stroke-linecap="round" stroke-linejoin="round"/><path d="M401.0862,193.5729l123.9203,-65.9867l123.9203,65.9867l149.987,210.5958l-273.9073,-12.6358l-100.0095,-53.2543z" id="Path 1" fill="url(#color-14)" fill-rule="nonzero" stroke-opacity="0" stroke="#000000" stroke-width="1" stroke-linecap="round" stroke-linejoin="round"/><path d="M560.0485,494.2044l-158.9623,-300.4492l124.4656,-65.8786z" id="Path 1" fill="url(#color-15)" fill-rule="nonzero" stroke-opacity="0" stroke="#000000" stroke-width="1" stroke-linecap="round" stroke-linejoin="round"/><path d="M475.0007,451.501v-250h250v250z" id="Path 1" fill="#232222" fill-rule="nonzero" stroke-opacity="0" stroke="#000000" stroke-width="1" stroke-linecap="round" stroke-linejoin="round"/><path d="M498.7926,432.6362v-12.1291h130.43v12.1291z" id="Path 1" fill="#ffffff" fill-rule="nonzero" stroke-opacity="0" stroke="#000000" stroke-width="1" stroke-linecap="round" stroke-linejoin="round"/><g clip-path="url(#clip-2)" id="Group 1" stroke-linejoin="miter"><g id="Group 1" fill="#ffffff" fill-rule="evenodd" stroke="#000000" stroke-width="0.25" stroke-linecap="round" font-family="none" font-weight="none" font-size="NaN" text-anchor="start"/></g><g clip-path="url(#clip-3)" id="Group 1" stroke-linejoin="miter"><g id="Group 1" fill="#ffffff" fill-rule="evenodd" stroke="#000000" stroke-width="0.25" stroke-linecap="round"><path d="M499.9997,321.1361v-52.2717c-0.0194,-3.0396 0.3209,-6.0729 1.0157,-9.0524c0.7577,-3.2662 2.0802,-6.4149 3.9229,-9.3395c3.2924,-5.1626 8.0135,-9.1153 14.1635,-11.8579c3.7217,-1.6334 7.7059,-2.7733 11.8191,-3.3815c3.328,-0.5009 6.7006,-0.746 10.0784,-0.7324c3.4968,-0.0153 6.9878,0.2482 10.4288,0.7873c3.9901,0.6178 7.8541,1.7386 11.4687,3.3267c6.1499,2.7427 10.8711,6.6953 14.1635,11.8579c2.1073,3.3501 3.5428,6.9854 4.2453,10.7512c0.4727,2.4719 0.7046,4.9738 0.6933,7.4794v52.4331c0,6.9911 -1.6462,13.0948 -4.9386,18.3112c-3.2924,5.2164 -8.0135,9.196 -14.1635,11.9386c-3.7211,1.6338 -7.7046,2.7743 -11.8172,3.3831c-3.3286,0.5005 -6.7019,0.7451 -10.0803,0.7308c-3.4962,0.0152 -6.9866,-0.2483 -10.4269,-0.7873c-3.9908,-0.6176 -7.8554,-1.7384 -11.4706,-3.3267c-6.1499,-2.7426 -10.8711,-6.7222 -14.1635,-11.9386c-2.1976,-3.5333 -3.6664,-7.3714 -4.3404,-11.3417c-0.4062,-2.3064 -0.6062,-4.6365 -0.5982,-6.9696zM561.8718,321.1361v-52.2717c0.0132,-1.7835 -0.1602,-3.5643 -0.5181,-5.3208c-0.4274,-2.0199 -1.12,-3.823 -2.0779,-5.4095c-0.7226,-1.2061 -1.6365,-2.3188 -2.7153,-3.3057c-3.2079,-2.9234 -7.7669,-4.5222 -13.6771,-4.7964c-0.6275,-0.0291 -1.2557,-0.0436 -1.8841,-0.0436c-2.0494,-0.0131 -4.0946,0.1616 -6.1015,0.5211c-2.5991,0.484 -4.874,1.3041 -6.8246,2.4603c-0.9176,0.5436 -1.7693,1.1663 -2.542,1.8586c-3.1234,2.7986 -4.8926,6.6883 -5.3076,11.6692c-0.0651,0.7877 -0.0974,1.5771 -0.0969,2.3668v52.2717c-0.0142,1.8411 0.1811,3.679 0.5833,5.4869c0.7939,3.4418 2.401,6.2645 4.8212,8.4683c2.2676,2.0358 5.1491,3.4806 8.3173,4.1704c2.1469,0.5001 4.5304,0.7502 7.1507,0.7502c2.0349,0.0131 4.0658,-0.1561 6.0605,-0.505c2.455,-0.4463 4.6124,-1.1885 6.4723,-2.2264c1.1101,-0.6186 2.1273,-1.354 3.0284,-2.1893c3.5409,-3.2804 5.3113,-7.9322 5.3113,-13.9553z" id="CompoundPath 1"/></g></g></g></g></g></g></g><g clip-path="url(#clip-4)" id="Group 1" stroke-linejoin="miter"><g id="Group 1" fill="#ffffff" fill-rule="evenodd" stroke="#ffffff" stroke-width="0.25" stroke-linecap="round"><path d="M522.79195,365.13357h-23.50991v-137.29788h23.50991v55.10723h36.86354v-55.10723h23.50991v137.29788h-23.50991v-60.37345h-36.86354zM655.57593,365.13357h-43.25824v-137.29788h82.37873v21.8172h-59.43306v33.29004h20.12448c3.83505,-0.01928 7.66407,0.30615 11.44087,0.97237c4.35577,0.75716 8.5792,2.14005 12.53925,4.10578c6.70816,3.38542 11.94303,8.15011 15.70462,14.29403c2.75115,4.55035 4.52118,9.62534 5.19663,14.89964c0.30213,2.23034 0.45107,4.47876 0.44575,6.72948c0,8.27548 -1.8808,15.4852 -5.64238,21.62912c-3.76159,6.14392 -8.99646,10.93995 -15.70462,14.38806c-6.70816,3.44812 -14.63884,5.17218 -23.79203,5.17218zM635.26336,303.06741v41.94169h20.31256c6.64547,0 11.849,-1.8808 15.61059,-5.64238c2.67453,-2.70041 4.46855,-6.14747 5.14584,-9.88733c0.34028,-1.7618 0.50659,-3.55277 0.49653,-5.3471c0.01813,-2.18612 -0.22624,-4.36651 -0.72787,-6.49438c-0.7742,-3.37585 -2.47638,-6.46818 -4.91451,-8.92812c-2.48172,-2.44992 -5.60215,-4.15286 -9.00524,-4.91451c-2.01496,-0.48525 -4.21674,-0.72787 -6.60535,-0.72787z" id="CompoundPath 1"/></g></g></g></g></g></g></svg>