<svg version="1.1" xmlns="http://www.w3.org/2000/svg" xmlns:xlink="http://www.w3.org/1999/xlink" width="130" height="40" viewBox="-50,126.4995,1300,400.001"><defs><clipPath id="clip-1"><rect x="-50" y="126.4995" width="1300" height="400.001" id="clip-1" fill="none" stroke="none" stroke-width="1" stroke-linecap="butt" stroke-linejoin="miter"/></clipPath><clipPath id="clip-2"><rect x="75.24894" y="221.37357" transform="scale(0.57143,0.57143)" width="700" height="700" id="clip-2" fill="none" stroke="none" stroke-width="1" stroke-linecap="butt" stroke-linejoin="miter"/></clipPath><clipPath id="clip-3"><rect x="75.24894" y="221.37357" transform="scale(0.57143,0.57143)" width="700" height="700" id="clip-3" fill="none" stroke="none" stroke-width="1" stroke-linecap="butt" stroke-linejoin="miter"/></clipPath><clipPath id="clip-4"><rect x="75.24894" y="221.37357" transform="scale(0.57143,0.57143)" width="700" height="700" id="clip-4" fill="none" stroke="none" stroke-width="1" stroke-linecap="butt" stroke-linejoin="miter"/></clipPath><linearGradient x1="215.03101" y1="481.28758" x2="365.53679" y2="361.10759" gradientUnits="userSpaceOnUse" id="color-1"><stop offset="0" stop-color="#fc9fda" stop-opacity="0.97"/><stop offset="1" stop-color="#8cffd3" stop-opacity="0.76"/></linearGradient><linearGradient x1="47.67755" y1="197.12366" x2="412.71025" y2="388.06383" gradientUnits="userSpaceOnUse" id="color-2"><stop offset="0" stop-color="#8cffd3"/><stop offset="1" stop-color="#fc9fda"/></linearGradient><linearGradient x1="130.79271" y1="180.276" x2="197.06017" y2="472.30214" gradientUnits="userSpaceOnUse" id="color-3"><stop offset="0" stop-color="#8cffd3" stop-opacity="0.87"/><stop offset="1" stop-color="#fc9fda"/></linearGradient><clipPath id="clip-5"><rect x="129.10084" y="149.14699" transform="scale(1.85901,1.58903)" width="45.401" height="73.001" id="clip-5" fill="none" fill-rule="nonzero" stroke="none" stroke-width="1" stroke-linecap="butt"/></clipPath><clipPath id="clip-6"><rect x="76.73198" y="145.35167" transform="scale(1.86362,1.61333)" width="44.001" height="75.001" id="clip-6" fill="none" fill-rule="nonzero" stroke="none" stroke-width="1" stroke-linecap="butt"/></clipPath><clipPath id="clip-7"><rect x="240.8726" y="164.0447" transform="scale(1.78611,1.61998)" width="405.1" height="75.002" id="clip-7" fill="none" fill-rule="nonzero" stroke="none" stroke-width="1" stroke-linecap="butt"/></clipPath></defs><g id="document" fill-opacity="0" fill="#ffffff" fill-rule="nonzero" stroke="#000000" stroke-width="0" stroke-linecap="butt" stroke-linejoin="miter" stroke-miterlimit="10" stroke-dasharray="" stroke-dashoffset="0" font-family="none" font-weight="none" font-size="none" text-anchor="none" style="mix-blend-mode: normal"><rect x="-26.92308" y="158.125" transform="scale(1.85714,0.8)" width="700" height="500" id="Shape 1 1" vector-effect="non-scaling-stroke"/></g><g fill="none" fill-rule="none" stroke="none" stroke-width="none" stroke-linecap="none" stroke-linejoin="none" stroke-miterlimit="10" stroke-dasharray="" stroke-dashoffset="0" font-family="none" font-weight="none" font-size="none" text-anchor="none" style="mix-blend-mode: normal"><g><g id="stage"><g id="layer1 1"><g clip-path="url(#clip-1)" id="Group 1" fill-rule="nonzero"><g id="Group 1" fill-opacity="0" fill="#ffffff" stroke="#000000" stroke-width="0" stroke-linecap="butt" stroke-linejoin="miter"><rect x="-26.92308" y="158.125" transform="scale(1.85714,0.8)" width="700" height="500" id="Shape 1"/></g><g id="Group 1"><g id="Group 1"><g id="Group 1"><g id="Group 1"><g clip-path="url(#clip-2)" id="Group 1"><g id="Group 1" fill-opacity="0" fill="#ffffff" stroke="#000000" stroke-width="0" stroke-linecap="butt" stroke-linejoin="miter"><rect x="75.24894" y="158.12372" transform="scale(0.57143,0.8)" width="700" height="500" id="Shape 1"/></g><g id="Group 1"><g id="Group 1"><g id="Group 1"><g id="Group 1"><g clip-path="url(#clip-3)" id="Group 1"><g id="Group 1" fill-opacity="0" fill="#ffffff" stroke="#000000" stroke-width="0" stroke-linecap="butt" stroke-linejoin="miter"><rect x="75.24894" y="158.12371" transform="scale(0.57143,0.8)" width="700" height="500" id="Shape 1"/></g><g id="Group 1"><g id="Group 1"><g id="Group 1"><g id="Group 1"><g clip-path="url(#clip-4)" id="Group 1"><g id="Group 1" fill-opacity="0" fill="#ffffff" stroke="#000000" stroke-width="0" stroke-linecap="butt" stroke-linejoin="miter"><rect x="75.24894" y="221.37357" transform="scale(0.57143,0.57143)" width="700" height="700" id="Shape 1"/></g><g id="Group 1" stroke-width="1" stroke-linecap="round" stroke-linejoin="round"><g id="Group 1"><g id="Group 1"><g id="Group 1"><path d="" id="Path 1" fill="none" stroke="#000000"/><path d="M200.5019,493.72978l-58.79883,-135.80065l216.77326,17.97084l12.35495,149.51282z" id="Path 1" fill="url(#color-1)" stroke-opacity="0" stroke="#000000"/><path d="M44.0855,193.57181l123.92032,-65.98667l123.92032,65.98667l149.98702,210.59578l-273.90734,-12.63575l-100.00946,-53.25431z" id="Path 1" fill="url(#color-2)" stroke-opacity="0" stroke="#000000"/><path d="M203.04781,494.20334l-158.9623,-300.44921l124.46563,-65.87861z" id="Path 1" fill="url(#color-3)" stroke-opacity="0" stroke="#000000"/></g></g></g></g></g></g></g></g></g></g></g></g></g></g></g><path d="M118,451.5v-250h250v250z" id="Path 1" fill="#232222" stroke-opacity="0" stroke="#000000" stroke-width="1" stroke-linecap="round" stroke-linejoin="round"/><path d="M141.79196,432.63517v-12.12911h130.43v12.12911z" id="Path 1" fill="#ffffff" stroke-opacity="0" stroke="#000000" stroke-width="1" stroke-linecap="round" stroke-linejoin="round"/></g></g></g></g></g><g clip-path="url(#clip-5)" id="Group 1" stroke-linejoin="miter"><g id="Group 1" fill="#ffffff" fill-rule="evenodd" stroke="#000000" stroke-width="0.25" stroke-linecap="round"><path d="M282.57137,353.0005h-42.57137v-115.99941h39.96876c4.03934,-0.02222 8.07229,0.27782 12.0464,0.89621c7.31459,1.18118 13.39976,3.53083 18.2555,7.04895c6.01284,4.34132 9.82299,10.5058 10.62983,17.1981c0.22974,1.56914 0.34275,3.14917 0.33834,4.73055c0.01635,2.30914 -0.2686,4.61264 -0.84957,6.8678c-0.62431,2.4184 -1.68618,4.73874 -3.14731,6.87733c-2.66458,3.86665 -6.35162,6.85933 -11.06112,8.97804c-3.06327,1.35748 -6.3647,2.27953 -9.77468,2.72996c-2.23908,0.30471 -4.50326,0.45457 -6.77052,0.44811v-1.58903c0.30113,-0.00499 0.6023,-0.00764 0.90348,-0.00795c6.44581,0 12.15546,1.08849 17.12894,3.26546c5.20523,2.27761 9.29506,5.64107 12.26948,10.09036c1.90053,2.8863 3.19594,6.03445 3.82771,9.3022c0.43253,2.17638 0.64462,4.38059 0.63392,6.58813c0.02386,3.10036 -0.402,6.19129 -1.26785,9.20209c-0.82207,2.82386 -2.11691,5.53144 -3.84444,8.03892c-3.40819,4.926 -8.24162,8.7132 -14.50029,11.36159c-3.68651,1.53551 -7.60898,2.61674 -11.65043,3.21144c-3.48825,0.52074 -7.02375,0.77546 -10.56476,0.76115zM259.51963,299.9268v38.2957h21.37864c6.45697,0 11.71425,-1.32525 15.77186,-3.97576c0.45955,-0.30015 0.90365,-0.61719 1.33105,-0.95024c3.08368,-2.41952 5.14069,-5.64546 5.84845,-9.1719c0.3233,-1.48179 0.4814,-2.98646 0.47219,-4.49379c0.0227,-2.14702 -0.29498,-4.28678 -0.94438,-6.3609c-0.94517,-3.00445 -2.79945,-5.74312 -5.37626,-7.9404c-2.99261,-2.53339 -6.8056,-4.24106 -10.94586,-4.90217c-2.02743,-0.34345 -4.09023,-0.51114 -6.15705,-0.50055zM259.51963,251.7791v33.8464h20.26323c5.65883,0 10.29893,-1.09855 13.92028,-3.29565c0.66095,-0.40083 1.28948,-0.83934 1.88132,-1.31254c3.84196,-3.07213 5.76294,-7.20362 5.76294,-12.39446c0.01953,-1.81289 -0.25194,-3.61951 -0.80681,-5.36934c-0.84887,-2.66981 -2.56763,-5.07854 -4.95613,-6.94566c-2.45594,-1.90199 -5.44202,-3.23319 -8.67229,-3.86612c-2.11432,-0.44175 -4.42879,-0.66263 -6.94341,-0.66263z" id="CompoundPath 1"/></g></g><g clip-path="url(#clip-6)" id="Group 1" stroke-linejoin="miter"><g id="Group 1" fill="#ffffff" fill-rule="evenodd" stroke="#000000" stroke-width="0.25" stroke-linecap="round"><path d="M142.999,321.13506v-52.27174c-0.01943,-3.03956 0.3209,-6.07286 1.01567,-9.05237c0.75768,-3.26624 2.0802,-6.41485 3.92291,-9.33954c3.29239,-5.16264 8.01355,-9.11529 14.16349,-11.85794c3.72174,-1.63341 7.70593,-2.77332 11.81906,-3.38153c3.32796,-0.50095 6.70058,-0.74605 10.07844,-0.73245c3.49682,-0.01532 6.98783,0.24822 10.4288,0.7873c3.99014,0.61777 7.85412,1.73858 11.4687,3.32668c6.14994,2.74265 10.8711,6.6953 14.16349,11.85794c2.10728,3.3501 3.54275,6.98541 4.24532,10.7512c0.47268,2.47191 0.70458,4.97384 0.69327,7.47938v52.43307c0,6.99108 -1.64619,13.09482 -4.93858,18.31124c-3.29239,5.21642 -8.01355,9.19595 -14.16349,11.93861c-3.72105,1.63382 -7.7046,2.77427 -11.81719,3.38314c-3.32863,0.5005 -6.70188,0.74507 -10.0803,0.73084c-3.49619,0.01522 -6.98658,-0.24832 -10.42694,-0.7873c-3.99078,-0.61762 -7.8554,-1.73843 -11.47056,-3.32668c-6.14994,-2.74265 -10.8711,-6.72219 -14.16349,-11.93861c-2.19756,-3.53332 -3.66636,-7.3714 -4.34036,-11.34168c-0.4062,-2.30641 -0.60621,-4.63651 -0.59822,-6.96956zM204.87108,321.13506v-52.27174c0.0132,-1.78348 -0.1602,-3.56434 -0.51809,-5.32075c-0.42739,-2.01988 -1.12003,-3.82304 -2.07793,-5.40948c-0.72258,-1.20613 -1.63654,-2.31882 -2.71529,-3.3057c-3.20791,-2.92335 -7.76693,-4.52215 -13.67708,-4.79642c-0.62748,-0.02911 -1.25574,-0.04363 -1.88412,-0.04356c-2.04937,-0.01313 -4.09459,0.16155 -6.10148,0.5211c-2.59912,0.484 -4.87398,1.3041 -6.82456,2.46032c-0.91763,0.54364 -1.7693,1.16633 -2.54197,1.85855c-3.12342,2.79858 -4.89262,6.68831 -5.30758,11.66918c-0.0651,0.78765 -0.09742,1.57708 -0.09691,2.36675v52.27174c-0.01425,1.84112 0.18114,3.67898 0.58331,5.48692c0.7939,3.44176 2.40096,6.26454 4.82118,8.46834c2.26764,2.03585 5.14908,3.48065 8.31732,4.17045c2.14689,0.50013 4.53045,0.7502 7.1507,0.7502c2.03487,0.01311 4.06585,-0.15612 6.06048,-0.50497c2.455,-0.44635 4.61245,-1.18848 6.47234,-2.22639c1.1101,-0.6186 2.12732,-1.35397 3.02838,-2.18928c3.54087,-3.28043 5.31131,-7.93218 5.31131,-13.95526z" id="CompoundPath 1"/></g></g><path d="M282.2005,294c0,-3.58985 3.58172,-6.5 8,-6.5c4.41828,0 8,2.91015 8,6.5c0,3.58985 -3.58172,6.5 -8,6.5c-4.41828,0 -8,-2.91015 -8,-6.5z" id="Path 1" fill="#ffffff" fill-rule="nonzero" stroke-opacity="0" stroke="#000000" stroke-width="1" stroke-linecap="round" stroke-linejoin="round"/><g clip-path="url(#clip-7)" id="Group 1" stroke-linejoin="miter"><g id="Group 1" fill="#000000" fill-rule="evenodd" stroke="#ffffff" stroke-width="0.25" stroke-linecap="round"><path d="M560.60935,385.62695h-22.32631v-89.09872h21.79048v17.00976h6.07276l-6.07276,4.69793c-0.0204,-2.35413 0.25949,-4.70251 0.83411,-6.9983c0.92724,-3.87164 3.09089,-7.40993 6.221,-10.17345c3.03914,-2.61348 6.79538,-4.43998 10.87738,-5.28922c2.58747,-0.57779 5.42142,-0.86669 8.50186,-0.86669c3.52694,-0.03151 7.03904,0.41848 10.41835,1.33486c4.90943,1.36139 9.30857,3.92681 12.71171,7.41301c3.63796,3.72739 6.18114,8.22646 7.39448,13.08131c0.79303,2.9786 1.21456,6.21423 1.26456,9.7069c0.00285,0.23381 0.00404,0.46763 0.00357,0.70145v58.48116h-22.32631v-56.37519c0.0132,-1.6487 -0.15372,-3.29454 -0.49832,-4.91339c-0.42748,-1.92561 -1.12703,-3.63199 -2.09867,-5.11913c-0.57575,-0.88292 -1.26264,-1.70218 -2.04688,-2.44131c-2.04002,-1.89703 -4.64054,-3.21951 -7.48914,-3.80857c-1.58249,-0.35315 -3.30668,-0.54053 -5.17256,-0.56213c-0.12562,-0.00183 -0.25124,-0.00291 -0.37686,-0.00324c-1.83825,-0.01394 -3.67105,0.1831 -5.45476,0.58643c-2.86401,0.63752 -5.46552,2.00849 -7.4945,3.9495c-3.15545,3.02396 -4.73318,7.34389 -4.73318,12.95981zM1072.86418,353.22742v-24.13765c0,-8.94551 2.1713,-16.31641 6.51392,-22.11268c0.74049,-0.98916 1.54755,-1.93595 2.4166,-2.83496c5.26812,-5.49582 12.78582,-8.79765 20.80633,-9.13829c0.98136,-0.06418 1.96496,-0.09606 2.94886,-0.09558c8.09701,0 14.52699,2.07897 19.28993,6.23691c3.38205,2.97961 5.65851,6.83958 6.51392,11.045c0.43255,1.99106 0.64376,4.01645 0.63049,6.04575l-5.0011,-4.69793h5.1797l-0.71445,-21.2217v-24.94764h22.32631v118.25831h-21.79048v-17.00976h-5.0011l5.0011,-4.69793c0.02302,2.42724 -0.28657,4.84766 -0.92163,7.20566c-0.99493,3.76496 -3.15371,7.19425 -6.22278,9.8851c-4.76295,4.15794 -11.19292,6.23691 -19.28993,6.23691c-3.86048,0.03821 -7.70019,-0.5172 -11.35605,-1.64266c-4.75956,-1.51954 -9.00166,-4.13555 -12.30983,-7.59121c-3.74431,-3.89272 -6.36975,-8.56449 -7.64274,-13.59971c-0.85971,-3.19351 -1.31696,-6.66998 -1.37173,-10.42941c-0.00359,-0.25216 -0.00538,-0.50434 -0.00536,-0.75653zM893.00344,332.97771h24.46963v-7.61389c0,-4.31994 -1.54796,-7.69489 -4.64387,-10.12486c-1.7956,-1.38463 -3.91313,-2.38313 -6.19421,-2.92082c-1.57534,-0.39203 -3.29774,-0.62477 -5.1672,-0.69821c-0.43972,-0.01728 -0.8798,-0.02592 -1.31993,-0.02592c-4.46288,0 -8.22918,0.81269 -11.29889,2.43807c-0.28739,0.15161 -0.56973,0.31098 -0.84662,0.47789c-1.50148,0.88511 -2.79157,2.03483 -3.79368,3.38089c-0.99454,1.37594 -1.65007,2.9303 -1.92185,4.55699h-21.79048c0.46667,-4.10241 1.87256,-8.07125 4.12768,-11.65249c2.1399,-3.29258 4.98806,-6.1612 8.37504,-8.43522c4.54716,-3.06149 9.76775,-5.19915 15.30692,-6.26769c3.74368,-0.76463 7.78861,-1.15882 12.1348,-1.18258c0.1405,-0.00093 0.28101,-0.00147 0.42152,-0.00162c3.86117,-0.02326 7.71538,0.30069 11.50609,0.96713c4.64149,0.84563 8.76739,2.24691 12.37771,4.20384c1.62827,0.88019 3.16895,1.8873 4.60458,3.00992c5.9558,4.62984 9.64032,11.21559 10.24331,18.30898c0.13917,1.26395 0.20772,2.53347 0.2054,3.80371v60.42513h-21.61187v-15.55178h-3.57221l3.57221,-4.37394c0.03186,2.50484 -0.41658,4.99564 -1.32529,7.36117c-1.32593,3.30175 -3.65253,6.19696 -6.71218,8.3526c-3.06815,2.18833 -6.60913,3.76737 -10.39334,4.63475c-2.69106,0.64907 -5.62503,1.03409 -8.80192,1.15504c-0.74558,0.02831 -1.49175,0.04236 -2.23799,0.04212c-3.25,0.02108 -6.49347,-0.26723 -9.67712,-0.86021c-4.2545,-0.82187 -7.99044,-2.23233 -11.20781,-4.23138c-1.07262,-0.6661 -2.09149,-1.40074 -3.04888,-2.19831c-4.72239,-3.93747 -7.71647,-9.29042 -8.43041,-15.07226c-0.21786,-1.50168 -0.32527,-3.01484 -0.3215,-4.52946c0,-8.74787 3.21499,-15.49778 9.64497,-20.24971c5.14993,-3.80479 12.01751,-6.08625 20.60272,-6.8444c2.23519,-0.193 4.47939,-0.28761 6.72469,-0.2835zM992.31086,385.62695h-22.32631v-89.09872h21.07604v17.00976h5.53693l-6.60859,10.36785c-0.01701,-2.71978 0.20518,-5.43645 0.66443,-8.12418c0.50487,-2.8382 1.29731,-5.38912 2.37731,-7.65277c1.00954,-2.16297 2.39465,-4.16526 4.10269,-5.93074c4.76295,-4.85993 11.78829,-7.2899 21.07604,-7.2899c3.55673,-0.02776 7.10264,0.35935 10.55052,1.1518c5.54601,1.25958 10.56833,3.95509 14.45495,7.75807c3.59471,3.57274 6.16648,7.89185 7.48914,12.5775c0.9121,3.04772 1.439,6.38271 1.58071,10.00498c0.02646,0.68012 0.03957,1.36062 0.03929,2.04117v6.47991h-23.39797v-5.02193c0.01318,-1.74977 -0.1639,-3.49646 -0.52869,-5.21471c-0.45963,-2.08545 -1.21872,-3.9333 -2.27729,-5.54356c-0.59672,-0.90994 -1.30299,-1.75698 -2.10581,-2.52554c-2.36849,-2.24627 -5.46148,-3.75329 -8.83407,-4.30428c-1.53235,-0.2693 -3.09019,-0.40115 -4.65102,-0.39365c-5.5786,0 -9.93253,1.43206 -13.06179,4.29618c-0.14409,0.13131 -0.28521,0.26525 -0.42331,0.40175c-3.15545,3.13196 -4.73318,7.55989 -4.73318,13.28381zM687.42279,385.62695h-41.97346v-118.25831h40.00874c4.05402,-0.0231 8.1014,0.30071 12.08835,0.96713c4.66054,0.80783 8.83467,2.12109 12.52238,3.93978c1.90663,0.93724 3.71301,2.03328 5.39583,3.27397c6.56008,4.76788 10.55109,11.85825 10.96132,19.47374c0.07632,0.93203 0.11386,1.86634 0.11252,2.80094c0.01684,2.34954 -0.27274,4.69263 -0.86269,6.98048c-0.62283,2.39513 -1.65776,4.68632 -3.06674,6.78932c-2.61962,3.88794 -6.16206,6.9119 -10.62732,9.07187c-3.17453,1.51542 -6.62143,2.50559 -10.17901,2.92406c-1.74692,0.21427 -3.50797,0.31981 -5.2708,0.3159v-0.64799c0.2923,-0.00466 0.58464,-0.00682 0.87697,-0.00648c5.95725,0 11.29116,1.05514 16.00171,3.16543c4.94156,2.21397 8.87098,5.48092 11.78829,9.80086c1.82506,2.74411 3.08226,5.76744 3.70974,8.92121c0.45614,2.24026 0.67919,4.51445 0.66622,6.79256c0,6.8039 -1.72657,12.74382 -5.1797,17.81974c-3.37566,4.94309 -8.21896,8.92323 -13.97448,11.48402c-0.19332,0.08834 -0.38742,0.17528 -0.58227,0.26082c-6.04418,2.66324 -13.23087,4.03914 -21.56007,4.1277c-0.28518,0.00258 -0.57036,0.00366 -0.85555,0.00324zM430.22371,352.25543v-51.51526c-0.02033,-3.14726 0.33903,-6.2871 1.07166,-9.36347c0.76755,-3.2184 2.06192,-6.31446 3.84013,-9.18527c3.27453,-5.23792 7.97793,-9.28787 14.11023,-12.14983c3.80397,-1.74754 7.88074,-2.95603 12.08835,-3.58339c3.17618,-0.48416 6.39212,-0.72153 9.61282,-0.70955c3.48416,-0.01654 6.96264,0.25731 10.39156,0.81809c3.96841,0.63987 7.80999,1.81093 11.39892,3.47485c6.07276,2.86196 10.7464,6.9119 14.02092,12.14983c2.24672,3.64339 3.73265,7.63163 4.3831,11.76427c0.35903,2.19235 0.53575,4.40608 0.52869,6.62247v51.67726c0.02106,3.14774 -0.33771,6.28813 -1.06987,9.36509c-0.76828,3.21793 -2.06326,6.31343 -3.84191,9.18365c-3.27453,5.23792 -7.94816,9.28787 -14.02092,12.14983c-3.58236,1.66111 -7.41659,2.83105 -11.37749,3.47161c-3.23643,0.54647 -6.69968,0.82025 -10.38977,0.82133c-0.00774,0 -0.01548,0 -0.02322,0c-8.33515,0 -15.56888,-1.43098 -21.70117,-4.29294c-6.1323,-2.86196 -10.8357,-6.9119 -14.11023,-12.14983c-2.14658,-3.48431 -3.59434,-7.28649 -4.27594,-11.22968c-0.43239,-2.4198 -0.64506,-4.8677 -0.63585,-7.31906zM751.36534,352.09343v-22.03168c-0.02117,-3.16196 0.35454,-6.31584 1.11989,-9.40073c0.80084,-3.2153 2.13986,-6.3004 3.97051,-9.14801c3.3936,-5.23792 8.15655,-9.28787 14.28884,-12.14983c3.80397,-1.74754 7.88074,-2.95603 12.08835,-3.58339c3.17618,-0.48416 6.39212,-0.72153 9.61282,-0.70955c3.48416,-0.01654 6.96264,0.25731 10.39156,0.81809c3.96841,0.63987 7.80999,1.81093 11.39892,3.47485c6.07276,2.86196 10.80594,6.9119 14.19953,12.14983c2.37711,3.71517 3.93721,7.81324 4.59386,12.06721c0.33698,2.09253 0.50295,4.2048 0.49654,6.31953v22.19368c0.02176,3.1619 -0.35335,6.31578 -1.1181,9.40073c-0.80139,3.21539 -2.14103,6.3005 -3.9723,9.14801c-3.3936,5.23792 -8.12678,9.28787 -14.19953,12.14983c-3.58236,1.66111 -7.41659,2.83105 -11.37749,3.47161c-3.23643,0.54647 -6.69968,0.82025 -10.38977,0.82133c-0.00774,0 -0.01548,0 -0.02322,0c-8.33515,0 -15.56888,-1.43098 -21.70117,-4.29294c-6.1323,-2.86196 -10.89524,-6.9119 -14.28884,-12.14983c-2.274,-3.55754 -3.7962,-7.46866 -4.48848,-11.53261c-0.40924,-2.32012 -0.61053,-4.66651 -0.60192,-7.01612zM489.34377,352.25543v-51.51526c0.01209,-1.63174 -0.13916,-3.2611 -0.45189,-4.86803c-0.36913,-1.82085 -0.96331,-3.44461 -1.78254,-4.87127c-0.63681,-1.11929 -1.44832,-2.14941 -2.40946,-3.05852c-2.69702,-2.5412 -6.52524,-3.97488 -11.48465,-4.30104c-0.7549,-0.04915 -1.51151,-0.07346 -2.26835,-0.0729c-1.76325,-0.01092 -3.52355,0.1323 -5.2565,0.42767c-2.01592,0.35747 -3.80322,0.93905 -5.36189,1.74472c-1.15608,0.59343 -2.21181,1.3349 -3.13461,2.20155c-2.62319,2.471 -4.13484,5.91184 -4.53492,10.32249c-0.07364,0.82341 -0.10998,1.64921 -0.10895,2.47532v51.51526c-0.01262,1.68194 0.1585,3.36087 0.51082,5.01221c0.69539,3.14168 2.10284,5.70988 4.22235,7.70461c1.92068,1.77895 4.33534,3.05449 6.98903,3.69193c1.61345,0.41363 3.38467,0.65933 5.31366,0.73709c0.4534,0.01775 0.90718,0.02639 1.36101,0.02592c1.7642,0.01166 3.52541,-0.13375 5.25829,-0.43415c2.04331,-0.36935 3.85203,-0.97307 5.42618,-1.81113c1.13312,-0.60094 2.16631,-1.34493 3.06852,-2.20965c2.73989,-2.6276 4.2676,-6.24825 4.58314,-10.86194c0.04137,-0.61757 0.06162,-1.23616 0.06073,-1.85487zM811.19984,352.09343v-22.03168c0.01281,-1.66128 -0.14746,-3.31995 -0.47867,-4.95389c-0.39533,-1.87485 -1.03594,-3.53911 -1.92185,-4.99277c-0.67087,-1.10993 -1.51689,-2.12503 -2.51127,-3.01316c-1.99335,-1.74682 -4.45174,-2.99535 -7.13549,-3.62389c-1.69204,-0.42119 -3.5478,-0.66473 -5.56729,-0.73061c-0.37968,-0.01268 -0.75959,-0.01916 -1.13953,-0.01944c-5.08563,0 -9.22166,1.1086 -12.40807,3.32581c-0.46973,0.32611 -0.91876,0.67604 -1.34494,1.04812c-1.84651,1.64552 -3.20171,3.68964 -3.93836,5.94045c-0.50844,1.4677 -0.83411,3.0893 -0.977,4.86479c-0.05746,0.71701 -0.08605,1.43567 -0.08574,2.15457v22.03168c0,4.19358 0.92937,7.64899 2.78811,10.36623c0.624,0.91493 1.36698,1.75851 2.21299,2.51258c3.3162,2.95376 7.86779,4.43874 13.65477,4.45494c0.03275,0.00005 0.06549,0.00005 0.09824,0c1.86369,0.01287 3.72352,-0.15549 5.54764,-0.50219c2.40528,-0.47519 4.50753,-1.28626 6.30674,-2.43321c0.70962,-0.45369 1.37473,-0.96209 1.98794,-1.51954c1.86387,-1.72064 3.21853,-3.84029 3.93836,-6.16239c0.64896,-1.97637 0.97342,-4.21518 0.97342,-6.71642zM1131.44842,352.25543v-22.35568c0.01321,-1.7248 -0.16571,-3.44639 -0.53404,-5.13857c-0.47272,-2.09301 -1.2592,-3.94464 -2.35944,-5.5549c-0.53372,-0.78079 -1.14984,-1.51268 -1.83968,-2.18535c-2.16841,-2.09295 -4.99351,-3.53105 -8.09284,-4.1196c-1.71185,-0.34239 -3.46071,-0.50922 -5.21364,-0.49733c-5.71553,0 -10.1808,1.51198 -13.39579,4.53594c-1.80573,1.72977 -3.12057,3.83188 -3.83119,6.12513c-0.49535,1.50874 -0.80494,3.16759 -0.92877,4.97657c-0.04199,0.61864 -0.06284,1.23831 -0.06251,1.85811v22.35568c-0.0132,1.71506 0.1609,3.42709 0.51976,5.11103c0.70848,3.20107 2.14273,5.81734 4.30273,7.84879c2.18814,2.03501 4.99279,3.43544 8.05891,4.02402c1.75202,0.35242 3.54234,0.52415 5.33688,0.51191c1.83082,0.01407 3.65705,-0.16864 5.44048,-0.54431c3.01299,-0.61131 5.75367,-2.0303 7.86601,-4.07262c1.82031,-1.80557 3.13334,-3.98289 3.82762,-6.34707c0.6037,-1.94397 0.90555,-4.12122 0.90555,-6.53175zM667.2398,332.49171v36.28748h18.7541c6.54905,0 11.69898,-1.59298 15.4498,-4.77893c2.80188,-2.39425 4.64927,-5.56364 5.25293,-9.01193c0.25518,-1.33035 0.3801,-2.67856 0.37329,-4.02888c0.02071,-2.05523 -0.27997,-4.10273 -0.89305,-6.08139c-0.8641,-2.75534 -2.49389,-5.26324 -4.73318,-7.28342c-2.52742,-2.26465 -5.71684,-3.82571 -9.1913,-4.49868c-2.05424,-0.41557 -4.15385,-0.61829 -6.25852,-0.60425zM667.2398,284.21641v31.91354h17.86105c1.91002,0.01257 3.81619,-0.15739 5.68695,-0.50705c2.44459,-0.47411 4.59267,-1.28032 6.44426,-2.41863c0.66746,-0.41134 1.2992,-0.86843 1.8897,-1.36726c3.3936,-2.86196 5.09039,-6.7769 5.09039,-11.74483c0,-4.96793 -1.6968,-8.85587 -5.09039,-11.66383c-3.3936,-2.80796 -8.06724,-4.21194 -14.02092,-4.21194zM917.47307,356.30537v-10.85384h-24.11241c-4.5248,0 -8.15655,1.18798 -10.89524,3.56395c-2.7387,2.37597 -4.10804,5.50792 -4.10804,9.39587c-0.01587,1.47601 0.20863,2.94606 0.66622,4.3626c0.72017,2.18836 2.13461,4.13605 4.06696,5.60026c2.83752,2.18589 6.61394,3.38899 11.32926,3.60931c0.53958,0.02447 1.07975,0.03635 1.62,0.03564c6.3109,0 11.46084,-1.45798 15.4498,-4.37394c1.86561,-1.32522 3.38292,-3.01017 4.44204,-4.93283c1.02046,-1.89753 1.53426,-4.0143 1.5414,-6.35031c0.00003,-0.0189 0.00003,-0.0378 0,-0.0567z" id="CompoundPath 1"/></g></g><path d="M554.71715,320.77076c-0.67306,-1.0958 1.66933,-4.34418 5.23186,-7.25546c3.56253,-2.91128 6.99615,-4.38302 7.6692,-3.28722c0.67306,1.0958 -1.66933,4.34418 -5.23186,7.25546c-3.56253,2.91128 -6.99615,4.38302 -7.6692,3.28722z" id="Path 1" fill="#000000" fill-rule="nonzero" stroke-opacity="0" stroke="#000000" stroke-width="1" stroke-linecap="round" stroke-linejoin="round"/><path d="M686.06068,324.99942c0,-3.86599 3.49478,-7 7.80581,-7c4.31103,0 7.80581,3.13401 7.80581,7c0,3.86599 -3.49478,7 -7.80581,7c-4.31103,0 -7.80581,-3.13401 -7.80581,-7z" id="Path 1" fill="#000000" fill-rule="nonzero" stroke-opacity="0" stroke="#000000" stroke-width="1" stroke-linecap="round" stroke-linejoin="round"/><path d="M914.3807,367.99942c0,-2.76142 3.49478,-5 7.80581,-5c4.31103,0 7.80581,2.23858 7.80581,5c0,2.76142 -3.49478,5 -7.80581,5c-4.31103,0 -7.80581,-2.23858 -7.80581,-5z" id="Path 1" fill="#000000" fill-rule="nonzero" stroke-opacity="0" stroke="#000000" stroke-width="1" stroke-linecap="round" stroke-linejoin="round"/><path d="M993.87158,318.92317c1.81923,-3.34479 1.56042,-7.08148 -0.57806,-8.34612c-2.13849,-1.26464 -5.34685,0.42165 -7.16609,3.76644c-1.81923,3.34479 -1.56042,7.08148 0.57806,8.34612c2.13849,1.26464 5.34685,-0.42165 7.16609,-3.76644z" id="Path 1" fill="#000000" fill-rule="nonzero" stroke-opacity="0" stroke="#000000" stroke-width="1" stroke-linecap="round" stroke-linejoin="round"/><path d="M1139.59621,365.61248c2.08678,-3.08656 1.78991,-6.53477 -0.66307,-7.70178c-2.45299,-1.16701 -6.13319,0.3891 -8.21997,3.47566c-2.08678,3.08656 -1.78991,6.53477 0.66307,7.70178c2.45299,1.16701 6.13319,-0.3891 8.21997,-3.47566z" id="Path 1" fill="#000000" fill-rule="nonzero" stroke-opacity="0" stroke="#000000" stroke-width="1" stroke-linecap="round" stroke-linejoin="round"/><path d="M1129.04524,318.92317c-1.0475,-3.34479 -0.89848,-7.08147 0.33284,-8.34612c1.23132,-1.26464 3.07867,0.42165 4.12617,3.76644c1.0475,3.34479 0.89848,7.08147 -0.33284,8.34612c-1.23132,1.26464 -3.07867,-0.42165 -4.12617,-3.76644z" id="Path 1" fill="#000000" fill-rule="nonzero" stroke-opacity="0" stroke="#000000" stroke-width="1" stroke-linecap="round" stroke-linejoin="round"/><path d="M986.57734,320.91373l12.68242,-12.99792l2.37795,2.43711l-12.68242,12.99792z" id="Path 1" fill="#000000" fill-rule="nonzero" stroke-opacity="0" stroke="#000000" stroke-width="1" stroke-linecap="round" stroke-linejoin="round"/><path d="M995.33228,315.3216l-6.57508,12.12604l-3.09046,-0.50256l6.57508,-12.12604z" id="Path 1" fill="#000000" fill-rule="nonzero" stroke-opacity="0" stroke="#000000" stroke-width="1" stroke-linecap="round" stroke-linejoin="round"/><path d="M1131.96274,367.97003l-16.85331,14.83056l-1.5677,-2.83091l16.85331,-14.83056z" id="Path 1" fill="#000000" fill-rule="nonzero" stroke-opacity="0" stroke="#000000" stroke-width="1" stroke-linecap="round" stroke-linejoin="round"/><path d="M1142.72598,323.32841l-18.89434,-10.91359l1.84623,-2.47657l18.89434,10.91359z" id="Path 1" fill="#000000" fill-rule="nonzero" stroke-opacity="0" stroke="#000000" stroke-width="1" stroke-linecap="round" stroke-linejoin="round"/></g></g></g></g></svg>