<svg version="1.1" xmlns="http://www.w3.org/2000/svg" xmlns:xlink="http://www.w3.org/1999/xlink" width="120" height="40" viewBox="0,126.5,1200,400"><defs><clipPath id="clip-1"><rect x="3.36907" y="126.5" width="400" height="400" id="clip-1" fill="none" fill-rule="nonzero" stroke="none" stroke-width="1" stroke-linecap="butt" stroke-linejoin="miter"/></clipPath><linearGradient x1="175.40077" y1="481.2886" x2="325.90657" y2="361.1086" gradientUnits="userSpaceOnUse" id="color-1"><stop offset="0" stop-color="#fc9fda" stop-opacity="0.97"/><stop offset="1" stop-color="#8cffd3" stop-opacity="0.76"/></linearGradient><linearGradient x1="8.04727" y1="197.1247" x2="373.07997" y2="388.0649" gradientUnits="userSpaceOnUse" id="color-2"><stop offset="0" stop-color="#8cffd3"/><stop offset="1" stop-color="#fc9fda"/></linearGradient><linearGradient x1="91.16247" y1="180.277" x2="157.42987" y2="472.3032" gradientUnits="userSpaceOnUse" id="color-3"><stop offset="0" stop-color="#8cffd3" stop-opacity="0.87"/><stop offset="1" stop-color="#fc9fda"/></linearGradient><linearGradient x1="175.40077" y1="481.2886" x2="325.90657" y2="361.1086" gradientUnits="userSpaceOnUse" id="color-4"><stop offset="0" stop-color="#fc9fda" stop-opacity="0.97"/><stop offset="1" stop-color="#8cffd3" stop-opacity="0.76"/></linearGradient><linearGradient x1="8.04727" y1="197.1247" x2="373.07997" y2="388.0649" gradientUnits="userSpaceOnUse" id="color-5"><stop offset="0" stop-color="#8cffd3"/><stop offset="1" stop-color="#fc9fda"/></linearGradient><linearGradient x1="91.16247" y1="180.277" x2="157.42987" y2="472.3032" gradientUnits="userSpaceOnUse" id="color-6"><stop offset="0" stop-color="#8cffd3" stop-opacity="0.87"/><stop offset="1" stop-color="#fc9fda"/></linearGradient><linearGradient x1="175.40077" y1="481.2886" x2="325.90657" y2="361.1086" gradientUnits="userSpaceOnUse" id="color-7"><stop offset="0" stop-color="#fc9fda" stop-opacity="0.97"/><stop offset="1" stop-color="#8cffd3" stop-opacity="0.76"/></linearGradient><linearGradient x1="8.04727" y1="197.1247" x2="373.07997" y2="388.0649" gradientUnits="userSpaceOnUse" id="color-8"><stop offset="0" stop-color="#8cffd3"/><stop offset="1" stop-color="#fc9fda"/></linearGradient><linearGradient x1="91.16247" y1="180.277" x2="157.42987" y2="472.3032" gradientUnits="userSpaceOnUse" id="color-9"><stop offset="0" stop-color="#8cffd3" stop-opacity="0.87"/><stop offset="1" stop-color="#fc9fda"/></linearGradient><linearGradient x1="175.40077" y1="481.2886" x2="325.90657" y2="361.1086" gradientUnits="userSpaceOnUse" id="color-10"><stop offset="0" stop-color="#fc9fda" stop-opacity="0.97"/><stop offset="1" stop-color="#8cffd3" stop-opacity="0.76"/></linearGradient><linearGradient x1="8.04727" y1="197.1247" x2="373.07997" y2="388.0649" gradientUnits="userSpaceOnUse" id="color-11"><stop offset="0" stop-color="#8cffd3"/><stop offset="1" stop-color="#fc9fda"/></linearGradient><linearGradient x1="91.16247" y1="180.277" x2="157.42987" y2="472.3032" gradientUnits="userSpaceOnUse" id="color-12"><stop offset="0" stop-color="#8cffd3" stop-opacity="0.87"/><stop offset="1" stop-color="#fc9fda"/></linearGradient><linearGradient x1="175.40077" y1="481.2886" x2="325.90657" y2="361.1086" gradientUnits="userSpaceOnUse" id="color-13"><stop offset="0" stop-color="#fc9fda" stop-opacity="0.97"/><stop offset="1" stop-color="#8cffd3" stop-opacity="0.76"/></linearGradient><linearGradient x1="8.04727" y1="197.1247" x2="373.07997" y2="388.0649" gradientUnits="userSpaceOnUse" id="color-14"><stop offset="0" stop-color="#8cffd3"/><stop offset="1" stop-color="#fc9fda"/></linearGradient><linearGradient x1="91.16247" y1="180.277" x2="157.42987" y2="472.3032" gradientUnits="userSpaceOnUse" id="color-15"><stop offset="0" stop-color="#8cffd3" stop-opacity="0.87"/><stop offset="1" stop-color="#fc9fda"/></linearGradient><clipPath id="clip-2"><rect x="107.76612" y="149.11273" transform="scale(1.859,1.589)" width="45.401" height="73.001" id="clip-2" fill="none" fill-rule="nonzero" stroke="none" stroke-width="1" stroke-linecap="butt"/></clipPath><clipPath id="clip-3"><rect x="107.76612" y="149.11273" transform="scale(1.859,1.589)" width="45.401" height="73.001" id="clip-3" fill="none" fill-rule="nonzero" stroke="none" stroke-width="1" stroke-linecap="butt"/></clipPath><clipPath id="clip-4"><rect x="54.57863" y="121.13814" transform="scale(1.8808,1.8808)" width="107.101" height="73" id="clip-4" fill="none" fill-rule="nonzero" stroke="none" stroke-width="1" stroke-linecap="butt"/></clipPath><clipPath id="clip-5"><rect x="188.62718" y="102.14532" transform="scale(2.21138,2.21138)" width="349.6" height="91" id="clip-5" fill="none" fill-rule="nonzero" stroke="none" stroke-width="1" stroke-linecap="butt"/></clipPath></defs><g id="document" fill-opacity="0" fill="#ffffff" fill-rule="nonzero" stroke="#000000" stroke-width="0" stroke-linecap="butt" stroke-linejoin="miter" stroke-miterlimit="10" stroke-dasharray="" stroke-dashoffset="0" font-family="none" font-weight="none" font-size="none" text-anchor="none" style="mix-blend-mode: normal"><rect x="0" y="158.125" transform="scale(1.71429,0.8)" width="700" height="500" id="Shape 1 1" vector-effect="non-scaling-stroke"/></g><g fill="none" fill-rule="none" stroke="none" stroke-width="none" stroke-linecap="none" stroke-linejoin="none" stroke-miterlimit="10" stroke-dasharray="" stroke-dashoffset="0" font-family="none" font-weight="none" font-size="none" text-anchor="none" style="mix-blend-mode: normal"><g><g id="stage"><g id="layer1 1"><g clip-path="url(#clip-1)" id="Group 1"><g id="Group 1" fill-opacity="0" fill="#ffffff" fill-rule="nonzero" stroke="#000000" stroke-width="0" stroke-linecap="butt" stroke-linejoin="miter"><rect x="5.36501" y="158.125" transform="scale(0.5714,0.8)" width="700" height="500" id="Shape 1"/></g><g id="Group 1"><g id="Group 1"><g id="Group 1"><g id="Group 1"><g id="Group 1" fill-rule="nonzero" stroke-width="1" stroke-linecap="round" stroke-linejoin="round"><g id="Group 1"><g id="Group 1"><g id="Group 1"><path d="" id="Path 1" fill="none" stroke="#000000"/><path d="M160.87167,493.7308l-58.7988,-135.8006l216.7733,17.9708l12.355,149.5128z" id="Path 1" fill="url(#color-1)" stroke-opacity="0" stroke="#000000"/><path d="M4.45527,193.5729l123.9203,-65.9867l123.9203,65.9867l149.987,210.5958l-273.9073,-12.6358l-100.0095,-53.2543z" id="Path 1" fill="url(#color-2)" stroke-opacity="0" stroke="#000000"/><path d="M163.41757,494.2044l-158.9623,-300.4492l124.4656,-65.8786z" id="Path 1" fill="url(#color-3)" stroke-opacity="0" stroke="#000000"/></g></g></g></g><g id="Group 1" fill-rule="nonzero" stroke-width="1" stroke-linecap="round" stroke-linejoin="round"><g id="Group 1"><g id="Group 1"><path d="" id="Path 1" fill="none" stroke="#000000"/><path d="M160.87167,493.7308l-58.7988,-135.8006l216.7733,17.9708l12.355,149.5128z" id="Path 1" fill="url(#color-4)" stroke-opacity="0" stroke="#000000"/><path d="M4.45527,193.5729l123.9203,-65.9867l123.9203,65.9867l149.987,210.5958l-273.9073,-12.6358l-100.0095,-53.2543z" id="Path 1" fill="url(#color-5)" stroke-opacity="0" stroke="#000000"/><path d="M163.41757,494.2044l-158.9623,-300.4492l124.4656,-65.8786z" id="Path 1" fill="url(#color-6)" stroke-opacity="0" stroke="#000000"/></g></g></g><g id="Group 1" fill-rule="nonzero" stroke-width="1" stroke-linecap="round" stroke-linejoin="round"><g id="Group 1"><path d="" id="Path 1" fill="none" stroke="#000000"/><path d="M160.87167,493.7308l-58.7988,-135.8006l216.7733,17.9708l12.355,149.5128z" id="Path 1" fill="url(#color-7)" stroke-opacity="0" stroke="#000000"/><path d="M4.45527,193.5729l123.9203,-65.9867l123.9203,65.9867l149.987,210.5958l-273.9073,-12.6358l-100.0095,-53.2543z" id="Path 1" fill="url(#color-8)" stroke-opacity="0" stroke="#000000"/><path d="M163.41757,494.2044l-158.9623,-300.4492l124.4656,-65.8786z" id="Path 1" fill="url(#color-9)" stroke-opacity="0" stroke="#000000"/></g></g><g id="Group 1" fill-rule="nonzero" stroke-width="1" stroke-linecap="round" stroke-linejoin="round"><path d="" id="Path 1" fill="none" stroke="#000000"/><path d="M160.87167,493.7308l-58.7988,-135.8006l216.7733,17.9708l12.355,149.5128z" id="Path 1" fill="url(#color-10)" stroke-opacity="0" stroke="#000000"/><path d="M4.45527,193.5729l123.9203,-65.9867l123.9203,65.9867l149.987,210.5958l-273.9073,-12.6358l-100.0095,-53.2543z" id="Path 1" fill="url(#color-11)" stroke-opacity="0" stroke="#000000"/><path d="M163.41757,494.2044l-158.9623,-300.4492l124.4656,-65.8786z" id="Path 1" fill="url(#color-12)" stroke-opacity="0" stroke="#000000"/></g><path d="M160.87167,493.7308l-58.7988,-135.8006l216.7733,17.9708l12.355,149.5128z" id="Path 1" fill="url(#color-13)" fill-rule="nonzero" stroke-opacity="0" stroke="#000000" stroke-width="1" stroke-linecap="round" stroke-linejoin="round"/><path d="M4.45527,193.5729l123.9203,-65.9867l123.9203,65.9867l149.987,210.5958l-273.9073,-12.6358l-100.0095,-53.2543z" id="Path 1" fill="url(#color-14)" fill-rule="nonzero" stroke-opacity="0" stroke="#000000" stroke-width="1" stroke-linecap="round" stroke-linejoin="round"/><path d="M163.41757,494.2044l-158.9623,-300.4492l124.4656,-65.8786z" id="Path 1" fill="url(#color-15)" fill-rule="nonzero" stroke-opacity="0" stroke="#000000" stroke-width="1" stroke-linecap="round" stroke-linejoin="round"/><path d="M78.36977,451.501v-250h250v250z" id="Path 1" fill="#232222" fill-rule="nonzero" stroke-opacity="0" stroke="#000000" stroke-width="1" stroke-linecap="round" stroke-linejoin="round"/><path d="M102.16167,432.6362v-12.1291h130.43v12.1291z" id="Path 1" fill="#ffffff" fill-rule="nonzero" stroke-opacity="0" stroke="#000000" stroke-width="1" stroke-linecap="round" stroke-linejoin="round"/><g clip-path="url(#clip-2)" id="Group 1" stroke-linejoin="miter"><g id="Group 1" fill="#ffffff" fill-rule="evenodd" stroke="#000000" stroke-width="0.25" stroke-linecap="round" font-family="none" font-weight="none" font-size="NaN" text-anchor="start"/></g><g clip-path="url(#clip-3)" id="Group 1" stroke-linejoin="miter"><g id="Group 1" fill="#ffffff" fill-rule="evenodd" stroke="#000000" stroke-width="0.25" stroke-linecap="round"><path d="M103.36877,321.1361v-52.2717c-0.0194,-3.0396 0.3209,-6.0729 1.0157,-9.0524c0.7577,-3.2662 2.0802,-6.4149 3.9229,-9.3395c3.2924,-5.1626 8.0135,-9.1153 14.1635,-11.8579c3.7217,-1.6334 7.7059,-2.7733 11.8191,-3.3815c3.328,-0.5009 6.7006,-0.746 10.0784,-0.7324c3.4968,-0.0153 6.9878,0.2482 10.4288,0.7873c3.9901,0.6178 7.8541,1.7386 11.4687,3.3267c6.1499,2.7427 10.8711,6.6953 14.1635,11.8579c2.1073,3.3501 3.5428,6.9854 4.2453,10.7512c0.4727,2.4719 0.7046,4.9738 0.6933,7.4794v52.4331c0,6.9911 -1.6462,13.0948 -4.9386,18.3112c-3.2924,5.2164 -8.0135,9.196 -14.1635,11.9386c-3.7211,1.6338 -7.7046,2.7743 -11.8172,3.3831c-3.3286,0.5005 -6.7019,0.7451 -10.0803,0.7308c-3.4962,0.0152 -6.9866,-0.2483 -10.4269,-0.7873c-3.9908,-0.6176 -7.8554,-1.7384 -11.4706,-3.3267c-6.1499,-2.7426 -10.8711,-6.7222 -14.1635,-11.9386c-2.1976,-3.5333 -3.6664,-7.3714 -4.3404,-11.3417c-0.4062,-2.3064 -0.6062,-4.6365 -0.5982,-6.9696zM165.24087,321.1361v-52.2717c0.0132,-1.7835 -0.1602,-3.5643 -0.5181,-5.3208c-0.4274,-2.0199 -1.12,-3.823 -2.0779,-5.4095c-0.7226,-1.2061 -1.6365,-2.3188 -2.7153,-3.3057c-3.2079,-2.9234 -7.7669,-4.5222 -13.6771,-4.7964c-0.6275,-0.0291 -1.2557,-0.0436 -1.8841,-0.0436c-2.0494,-0.0131 -4.0946,0.1616 -6.1015,0.5211c-2.5991,0.484 -4.874,1.3041 -6.8246,2.4603c-0.9176,0.5436 -1.7693,1.1663 -2.542,1.8586c-3.1234,2.7986 -4.8926,6.6883 -5.3076,11.6692c-0.0651,0.7877 -0.0974,1.5771 -0.0969,2.3668v52.2717c-0.0142,1.8411 0.1811,3.679 0.5833,5.4869c0.7939,3.4418 2.401,6.2645 4.8212,8.4683c2.2676,2.0358 5.1491,3.4806 8.3173,4.1704c2.1469,0.5001 4.5304,0.7502 7.1507,0.7502c2.0349,0.0131 4.0658,-0.1561 6.0605,-0.505c2.455,-0.4463 4.6124,-1.1885 6.4723,-2.2264c1.1101,-0.6186 2.1273,-1.354 3.0284,-2.1893c3.5409,-3.2804 5.3113,-7.9322 5.3113,-13.9553z" id="CompoundPath 1"/></g></g></g></g></g></g></g><g clip-path="url(#clip-4)" id="Group 1" stroke-linejoin="miter"><g id="Group 1" fill="#ffffff" fill-rule="evenodd" stroke="#ffffff" stroke-width="0.25" stroke-linecap="round"><path d="M126.16102,365.13357h-23.50991v-137.29788h23.50991v55.10723h36.86354v-55.10723h23.50991v137.29788h-23.50991v-60.37345h-36.86354zM258.945,365.13357h-43.25824v-137.29788h82.37873v21.8172h-59.43306v33.29004h20.12448c3.83505,-0.01928 7.66407,0.30615 11.44087,0.97237c4.35577,0.75716 8.5792,2.14005 12.53925,4.10578c6.70816,3.38542 11.94303,8.15011 15.70462,14.29403c2.75115,4.55035 4.52118,9.62534 5.19663,14.89964c0.30213,2.23034 0.45107,4.47876 0.44575,6.72948c0,8.27548 -1.8808,15.4852 -5.64238,21.62912c-3.76159,6.14392 -8.99646,10.93995 -15.70462,14.38806c-6.70816,3.44812 -14.63884,5.17218 -23.79203,5.17218zM238.63243,303.06741v41.94169h20.31256c6.64547,0 11.849,-1.8808 15.61059,-5.64238c2.67453,-2.70041 4.46855,-6.14747 5.14584,-9.88733c0.34028,-1.7618 0.50659,-3.55277 0.49653,-5.3471c0.01813,-2.18612 -0.22624,-4.36651 -0.72787,-6.49438c-0.7742,-3.37585 -2.47638,-6.46818 -4.91451,-8.92812c-2.48172,-2.44992 -5.60215,-4.15286 -9.00524,-4.91451c-2.01496,-0.48525 -4.21674,-0.72787 -6.60535,-0.72787z" id="CompoundPath 1"/></g></g><g clip-path="url(#clip-5)" id="Group 1" stroke-linejoin="miter"><g id="Group 1" fill="#000000" fill-rule="evenodd" stroke="#000000" stroke-width="0.25" stroke-linecap="round"><path d="M444.76867,387.31282h-27.64224v-161.43068h27.64224v64.79341h43.34303v-64.79341h27.64224v161.43068h-27.64224v-70.98528h-43.34303zM733.5748,387.31282h-50.86172v-161.43068h96.85841v25.652h-69.87958v39.14141h23.66176c4.50914,-0.02267 9.01118,0.35996 13.45182,1.14329c5.12138,0.89025 10.08716,2.51621 14.74326,4.82744c7.88725,3.98049 14.04226,9.58264 18.46501,16.80648c3.23472,5.35017 5.31587,11.31718 6.11004,17.51855c0.35524,2.62237 0.53035,5.266 0.5241,7.91231c0,9.73007 -2.21138,18.20702 -6.63414,25.43086c-4.42276,7.22384 -10.57777,12.86286 -18.46501,16.91705c-7.88725,4.05419 -17.2119,6.0813 -27.97395,6.0813zM975.49969,427.11764h-27.64224v-161.43068h26.97882v23.21948h6.19186l-6.19186,6.413c-0.02777,-3.31343 0.35626,-6.61748 1.14329,-9.83622c1.2312,-5.13917 3.90321,-9.82036 7.70224,-13.49383c5.89701,-5.67587 13.85798,-8.51381 23.8829,-8.51381c4.65168,-0.04898 9.28074,0.6537 13.70834,2.08091c6.08905,2.02475 11.51568,5.6616 15.70301,10.52396c4.53535,5.25219 7.72719,11.52735 9.30106,18.28589c1.06146,4.2827 1.64158,8.94061 1.74035,13.9737c0.01034,0.52477 0.0155,1.04963 0.01548,1.5745v32.94955c0.01945,4.04783 -0.32246,8.08931 -1.02166,12.07634c-0.7564,4.34978 -2.08596,8.58012 -3.95394,12.58054c-1.84506,3.9761 -4.32804,7.62364 -7.35062,10.79816c-2.0046,2.07928 -4.25116,3.91083 -6.69163,5.45547c-6.04443,3.83306 -13.19456,5.74958 -21.45038,5.74958c-10.02492,0 -17.98588,-2.83794 -23.8829,-8.51381c-4.18611,-4.06708 -7.00378,-9.33534 -8.06269,-15.07497c-0.53642,-2.71858 -0.79868,-5.48413 -0.78283,-8.25508l6.19186,6.413h-6.413l0.88455,28.96907zM1094.4719,418.27213h-25.43086v-54.39993h8.18211c0.78869,-0.80693 1.50498,-1.68157 2.14062,-2.61385c1.84577,-2.6507 3.74902,-6.38646 5.70978,-11.20727c1.23421,-3.09308 2.17234,-6.29623 2.80182,-9.56643c0.63393,-3.18438 1.06957,-6.62308 1.30693,-10.31609c0.11102,-1.73693 0.17886,-3.47634 0.20345,-5.21664l1.32683,-59.26496h85.1381v98.18524h14.37396v54.39993h-25.43086v-30.95931h-70.32186zM590.94084,315.44299h30.2959v-10.39348c0,-5.89701 -1.91653,-10.50405 -5.74958,-13.82112c-2.22357,-1.89121 -4.84609,-3.25501 -7.67127,-3.98933c-1.94896,-0.53368 -4.08147,-0.85064 -6.39752,-0.95089c-0.54368,-0.02355 -1.08781,-0.03535 -1.632,-0.03539c-5.52697,0 -10.19078,1.10938 -13.9914,3.32812c-0.35508,0.20699 -0.70389,0.42454 -1.04598,0.65235c-1.85979,1.208 -3.45782,2.77746 -4.69918,4.61515c-1.23057,1.87844 -2.04142,4.00024 -2.37723,6.22061h-26.97882c0.57778,-5.60006 2.31842,-11.01781 5.1105,-15.90645c2.64942,-4.4946 6.17572,-8.41046 10.36916,-11.51465c5.629,-4.17964 12.09186,-7.09845 18.94931,-8.55804c4.63505,-1.0423 9.64383,-1.57966 15.02632,-1.6121c0.17396,-0.00126 0.34792,-0.002 0.52188,-0.00221c4.78053,-0.03176 9.55243,0.41047 14.24571,1.32019c5.74516,1.15434 10.85345,3.06645 15.32486,5.73632c2.01605,1.20222 3.92357,2.57773 5.70093,4.11096c7.37253,6.3199 11.93348,15.30896 12.68005,24.9908c0.17312,1.72607 0.25873,3.4598 0.25652,5.19453v82.48445h-26.75769v-21.22924h-4.42276l4.42276,-5.97072c0.03874,3.41941 -0.51722,6.81952 -1.64306,10.04851c-1.64103,4.50684 -4.52081,8.45898 -8.30815,11.40187c-3.79868,2.98721 -8.18277,5.14272 -12.86802,6.32676c-3.33328,0.88455 -6.96585,1.41013 -10.89768,1.57671c-0.92311,0.03865 -1.84694,0.05782 -2.77086,0.05749c-4.02391,0.02806 -8.03965,-0.36626 -11.98126,-1.17645c-5.26898,-1.1219 -9.89519,-3.04655 -13.87862,-5.77391c-1.32725,-0.90936 -2.58798,-1.91218 -3.77261,-3.00084c-5.8468,-5.37492 -9.55377,-12.68205 -10.43771,-20.57467c-0.26974,-2.04989 -0.40271,-4.11546 -0.39805,-6.18302c0,-11.94145 3.98049,-21.15553 11.94145,-27.64224c6.37467,-5.19379 14.87669,-8.30815 25.50605,-9.34308c2.76813,-0.26353 5.54741,-0.39268 8.32805,-0.38699zM813.62673,341.53727v-30.07476c-0.02694,-4.31621 0.43749,-8.62147 1.38432,-12.83264c0.99221,-4.38923 2.6508,-8.60061 4.91811,-12.48766c4.20162,-7.15013 10.09863,-12.67858 17.69103,-16.58535c4.70957,-2.38627 9.75703,-4.03669 14.96662,-4.89378c3.93249,-0.66017 7.91416,-0.98347 11.90164,-0.96637c4.31375,-0.02257 8.62045,0.35125 12.8658,1.11674c4.9133,0.87346 9.66956,2.47205 14.11302,4.74341c7.51869,3.90677 13.37884,9.43522 17.58047,16.58535c2.94311,5.07146 4.87466,10.66562 5.68767,16.47257c0.41722,2.85645 0.6227,5.73984 0.61476,8.62659v30.2959c0.02694,4.31621 -0.43749,8.62147 -1.38432,12.83264c-0.99221,4.38923 -2.6508,8.60061 -4.91811,12.48766c-4.20162,7.15013 -10.06177,12.67858 -17.58047,16.58535c-4.43533,2.26754 -9.18249,3.86457 -14.08649,4.73899c-4.00702,0.74597 -8.29562,1.1197 -12.8658,1.12117c-0.00884,0 -0.01769,0 -0.02654,0c-10.31977,0 -19.27586,-1.95338 -26.86826,-5.86015c-7.5924,-3.90677 -13.48941,-9.43522 -17.69103,-16.58535c-2.81544,-4.85628 -4.70009,-10.19524 -5.5572,-15.74281c-0.50668,-3.16713 -0.7559,-6.3701 -0.74523,-9.57748zM1105.30765,363.8722h44.22759v-74.0812h-33.17069l-0.88455,35.16093c-0.14743,9.87749 -1.36368,18.17016 -3.64877,24.87801c-1.78385,5.23802 -3.50062,9.23988 -5.1503,12.00558c-0.41575,0.70629 -0.87436,1.38646 -1.37326,2.03668zM887.70793,341.53727v-30.07476c0.01527,-2.26857 -0.1839,-4.53351 -0.59486,-6.76461c-0.48945,-2.55783 -1.28186,-4.82965 -2.37723,-6.81547c-0.83079,-1.51434 -1.87824,-2.89927 -3.1092,-4.11096c-2.46797,-2.38452 -5.51171,-4.08887 -8.83446,-4.94686c-2.09491,-0.57643 -4.39254,-0.90961 -6.89287,-0.99954c-0.4701,-0.01657 -0.94046,-0.02468 -1.41086,-0.02433c-6.29801,0 -11.41956,1.51258 -15.36467,4.53775c-0.58088,0.44594 -1.13608,0.92436 -1.66296,1.43297c-2.28585,2.24563 -3.9637,5.03519 -4.87609,8.10691c-0.63098,2.00351 -1.03492,4.21784 -1.21184,6.64298c-0.0704,0.97879 -0.10507,1.95982 -0.10394,2.94113v30.07476c0,5.72305 1.15065,10.43992 3.45196,14.15062c0.77257,1.24893 1.69247,2.40048 2.7399,3.42985c4.10432,4.03208 9.73965,6.05918 16.90599,6.0813c0.04054,0.00006 0.08108,0.00006 0.12163,0c2.30669,0.0174 4.60861,-0.21242 6.86633,-0.68553c2.97946,-0.64867 5.58226,-1.75657 7.80838,-3.3237c0.87926,-0.61851 1.70347,-1.31178 2.46348,-2.07206c2.30798,-2.34941 3.98521,-5.24368 4.87609,-8.4143c0.80347,-2.69641 1.2052,-5.7518 1.2052,-9.16616zM1020.39069,341.7584v-30.51703c0.0162,-2.34044 -0.19935,-4.67673 -0.64351,-6.97469c-0.87718,-4.37116 -2.65292,-7.94327 -5.32721,-10.71634c-2.70915,-2.77793 -6.18158,-4.68961 -9.97775,-5.49306c-2.16918,-0.48108 -4.38578,-0.7155 -6.6076,-0.6988c-2.3249,-0.01993 -4.64304,0.25349 -6.8995,0.81379c-3.61605,0.88385 -6.90156,2.78914 -9.46471,5.48864c-3.66499,3.86991 -5.6427,9.14553 -5.93313,15.82684c-0.02521,0.5842 -0.03774,1.16888 -0.03759,1.75363v30.51703c-0.01718,2.38152 0.21406,4.75834 0.68995,7.09189c0.8934,4.21931 2.65366,7.7155 5.28077,10.48857c3.98049,4.20162 9.43522,6.30243 16.3642,6.30243c7.07641,0 12.60486,-2.06396 16.58535,-6.19186c2.23617,-2.36039 3.86482,-5.22914 4.74562,-8.35901c0.61182,-2.061 0.99438,-4.32619 1.14771,-6.79557c0.05198,-0.84448 0.0778,-1.69037 0.0774,-2.53645zM709.6919,314.3373v49.31376h23.8829c7.81354,0 13.93169,-2.21138 18.35445,-6.63414c3.14463,-3.17505 5.25399,-7.22801 6.05033,-11.62522c0.40009,-2.07147 0.59564,-4.17724 0.5838,-6.28695c0.02131,-2.57037 -0.26601,-5.13401 -0.8558,-7.63589c-0.91029,-3.96922 -2.91166,-7.60509 -5.77833,-10.49741c-2.91793,-2.88055 -6.58685,-4.88282 -10.58808,-5.77833c-2.36913,-0.57053 -4.95792,-0.8558 -7.76636,-0.8558zM621.23674,347.28685v-14.81624h-29.85362c-5.60216,0 -10.09863,1.62168 -13.48941,4.86504c-3.39078,3.24336 -5.08617,7.51869 -5.08617,12.826c-0.01964,2.01486 0.2583,4.02157 0.82485,5.95525c0.89166,2.98726 2.64286,5.64599 5.03531,7.64474c3.51314,2.98242 8.188,4.624 14.02457,4.92474c0.66876,0.03418 1.3383,0.05114 2.00793,0.05086c7.81354,0 14.18968,-1.99024 19.12843,-5.97072c2.30901,-1.80926 4.18683,-4.10932 5.49749,-6.73365c1.26343,-2.59174 1.90031,-5.48201 1.91063,-8.67082c0.00004,-0.02506 0.00004,-0.05013 0,-0.07519z" id="CompoundPath 1"/></g></g><path d="M615.95997,367.39506v-6.07872h12.69283v6.07872z" id="Path 1" fill="#000000" fill-rule="nonzero" stroke="#000000" stroke-width="1" stroke-linecap="round" stroke-linejoin="round"/><path d="M974.83628,369.03233v-11.352h3.30705v11.352z" id="Path 1" fill="#000000" fill-rule="nonzero" stroke="#000000" stroke-width="1" stroke-linecap="round" stroke-linejoin="round"/><path d="M981.28988,370.07671v-4.7379h2.05625v4.7379z" id="Path 1" fill="#000000" fill-rule="nonzero" stroke="#000000" stroke-width="1" stroke-linecap="round" stroke-linejoin="round"/><path d="M977.8928,368.73589v-7.41956h3.39708v7.41956z" id="Path 1" fill="#000000" fill-rule="nonzero" stroke="#000000" stroke-width="1" stroke-linecap="round" stroke-linejoin="round"/><path d="M971.19469,296.93806l-2.44609,-3.95214l9.72927,-6.02173l2.44609,3.95214z" id="Path 1" fill="#000000" fill-rule="nonzero" stroke="#000000" stroke-width="1" stroke-linecap="round" stroke-linejoin="round"/></g></g></g></g></svg>