<svg version="1.1" xmlns="http://www.w3.org/2000/svg" xmlns:xlink="http://www.w3.org/1999/xlink" width="120" height="40" viewBox="0,126.5,1200,400"><defs><clipPath id="clip-1"><rect x="3.36907" y="126.5" width="400" height="400" id="clip-1" fill="none" fill-rule="nonzero" stroke="none" stroke-width="1" stroke-linecap="butt" stroke-linejoin="miter"/></clipPath><linearGradient x1="175.40077" y1="481.2886" x2="325.90657" y2="361.1086" gradientUnits="userSpaceOnUse" id="color-1"><stop offset="0" stop-color="#fc9fda" stop-opacity="0.97"/><stop offset="1" stop-color="#8cffd3" stop-opacity="0.76"/></linearGradient><linearGradient x1="8.04727" y1="197.1247" x2="373.07997" y2="388.0649" gradientUnits="userSpaceOnUse" id="color-2"><stop offset="0" stop-color="#8cffd3"/><stop offset="1" stop-color="#fc9fda"/></linearGradient><linearGradient x1="91.16247" y1="180.277" x2="157.42987" y2="472.3032" gradientUnits="userSpaceOnUse" id="color-3"><stop offset="0" stop-color="#8cffd3" stop-opacity="0.87"/><stop offset="1" stop-color="#fc9fda"/></linearGradient><linearGradient x1="175.40077" y1="481.2886" x2="325.90657" y2="361.1086" gradientUnits="userSpaceOnUse" id="color-4"><stop offset="0" stop-color="#fc9fda" stop-opacity="0.97"/><stop offset="1" stop-color="#8cffd3" stop-opacity="0.76"/></linearGradient><linearGradient x1="8.04727" y1="197.1247" x2="373.07997" y2="388.0649" gradientUnits="userSpaceOnUse" id="color-5"><stop offset="0" stop-color="#8cffd3"/><stop offset="1" stop-color="#fc9fda"/></linearGradient><linearGradient x1="91.16247" y1="180.277" x2="157.42987" y2="472.3032" gradientUnits="userSpaceOnUse" id="color-6"><stop offset="0" stop-color="#8cffd3" stop-opacity="0.87"/><stop offset="1" stop-color="#fc9fda"/></linearGradient><linearGradient x1="175.40077" y1="481.2886" x2="325.90657" y2="361.1086" gradientUnits="userSpaceOnUse" id="color-7"><stop offset="0" stop-color="#fc9fda" stop-opacity="0.97"/><stop offset="1" stop-color="#8cffd3" stop-opacity="0.76"/></linearGradient><linearGradient x1="8.04727" y1="197.1247" x2="373.07997" y2="388.0649" gradientUnits="userSpaceOnUse" id="color-8"><stop offset="0" stop-color="#8cffd3"/><stop offset="1" stop-color="#fc9fda"/></linearGradient><linearGradient x1="91.16247" y1="180.277" x2="157.42987" y2="472.3032" gradientUnits="userSpaceOnUse" id="color-9"><stop offset="0" stop-color="#8cffd3" stop-opacity="0.87"/><stop offset="1" stop-color="#fc9fda"/></linearGradient><linearGradient x1="175.40077" y1="481.2886" x2="325.90657" y2="361.1086" gradientUnits="userSpaceOnUse" id="color-10"><stop offset="0" stop-color="#fc9fda" stop-opacity="0.97"/><stop offset="1" stop-color="#8cffd3" stop-opacity="0.76"/></linearGradient><linearGradient x1="8.04727" y1="197.1247" x2="373.07997" y2="388.0649" gradientUnits="userSpaceOnUse" id="color-11"><stop offset="0" stop-color="#8cffd3"/><stop offset="1" stop-color="#fc9fda"/></linearGradient><linearGradient x1="91.16247" y1="180.277" x2="157.42987" y2="472.3032" gradientUnits="userSpaceOnUse" id="color-12"><stop offset="0" stop-color="#8cffd3" stop-opacity="0.87"/><stop offset="1" stop-color="#fc9fda"/></linearGradient><linearGradient x1="175.40077" y1="481.2886" x2="325.90657" y2="361.1086" gradientUnits="userSpaceOnUse" id="color-13"><stop offset="0" stop-color="#fc9fda" stop-opacity="0.97"/><stop offset="1" stop-color="#8cffd3" stop-opacity="0.76"/></linearGradient><linearGradient x1="8.04727" y1="197.1247" x2="373.07997" y2="388.0649" gradientUnits="userSpaceOnUse" id="color-14"><stop offset="0" stop-color="#8cffd3"/><stop offset="1" stop-color="#fc9fda"/></linearGradient><linearGradient x1="91.16247" y1="180.277" x2="157.42987" y2="472.3032" gradientUnits="userSpaceOnUse" id="color-15"><stop offset="0" stop-color="#8cffd3" stop-opacity="0.87"/><stop offset="1" stop-color="#fc9fda"/></linearGradient><clipPath id="clip-2"><rect x="107.76612" y="149.11273" transform="scale(1.859,1.589)" width="45.401" height="73.001" id="clip-2" fill="none" fill-rule="nonzero" stroke="none" stroke-width="1" stroke-linecap="butt"/></clipPath><clipPath id="clip-3"><rect x="107.76612" y="149.11273" transform="scale(1.859,1.589)" width="45.401" height="73.001" id="clip-3" fill="none" fill-rule="nonzero" stroke="none" stroke-width="1" stroke-linecap="butt"/></clipPath><clipPath id="clip-4"><rect x="54.57863" y="121.13814" transform="scale(1.8808,1.8808)" width="107.101" height="73" id="clip-4" fill="none" fill-rule="nonzero" stroke="none" stroke-width="1" stroke-linecap="butt"/></clipPath><clipPath id="clip-5"><rect x="197.87929" y="105.12322" transform="scale(2.16766,2.16766)" width="349.6" height="91" id="clip-5" fill="none" fill-rule="nonzero" stroke="none" stroke-width="1" stroke-linecap="butt"/></clipPath></defs><g id="document" fill-opacity="0" fill="#ffffff" fill-rule="nonzero" stroke="#000000" stroke-width="0" stroke-linecap="butt" stroke-linejoin="miter" stroke-miterlimit="10" stroke-dasharray="" stroke-dashoffset="0" font-family="none" font-weight="none" font-size="none" text-anchor="none" style="mix-blend-mode: normal"><rect x="0" y="158.125" transform="scale(1.71429,0.8)" width="700" height="500" id="Shape 1 1" vector-effect="non-scaling-stroke"/></g><g fill="none" fill-rule="none" stroke="none" stroke-width="none" stroke-linecap="none" stroke-linejoin="none" stroke-miterlimit="10" stroke-dasharray="" stroke-dashoffset="0" font-family="none" font-weight="none" font-size="none" text-anchor="none" style="mix-blend-mode: normal"><g><g id="stage"><g id="layer1 1"><g clip-path="url(#clip-1)" id="Group 1"><g id="Group 1" fill-opacity="0" fill="#ffffff" fill-rule="nonzero" stroke="#000000" stroke-width="0" stroke-linecap="butt" stroke-linejoin="miter"><rect x="5.36501" y="158.125" transform="scale(0.5714,0.8)" width="700" height="500" id="Shape 1"/></g><g id="Group 1"><g id="Group 1"><g id="Group 1"><g id="Group 1"><g id="Group 1" fill-rule="nonzero" stroke-width="1" stroke-linecap="round" stroke-linejoin="round"><g id="Group 1"><g id="Group 1"><g id="Group 1"><path d="" id="Path 1" fill="none" stroke="#000000"/><path d="M160.87167,493.7308l-58.7988,-135.8006l216.7733,17.9708l12.355,149.5128z" id="Path 1" fill="url(#color-1)" stroke-opacity="0" stroke="#000000"/><path d="M4.45527,193.5729l123.9203,-65.9867l123.9203,65.9867l149.987,210.5958l-273.9073,-12.6358l-100.0095,-53.2543z" id="Path 1" fill="url(#color-2)" stroke-opacity="0" stroke="#000000"/><path d="M163.41757,494.2044l-158.9623,-300.4492l124.4656,-65.8786z" id="Path 1" fill="url(#color-3)" stroke-opacity="0" stroke="#000000"/></g></g></g></g><g id="Group 1" fill-rule="nonzero" stroke-width="1" stroke-linecap="round" stroke-linejoin="round"><g id="Group 1"><g id="Group 1"><path d="" id="Path 1" fill="none" stroke="#000000"/><path d="M160.87167,493.7308l-58.7988,-135.8006l216.7733,17.9708l12.355,149.5128z" id="Path 1" fill="url(#color-4)" stroke-opacity="0" stroke="#000000"/><path d="M4.45527,193.5729l123.9203,-65.9867l123.9203,65.9867l149.987,210.5958l-273.9073,-12.6358l-100.0095,-53.2543z" id="Path 1" fill="url(#color-5)" stroke-opacity="0" stroke="#000000"/><path d="M163.41757,494.2044l-158.9623,-300.4492l124.4656,-65.8786z" id="Path 1" fill="url(#color-6)" stroke-opacity="0" stroke="#000000"/></g></g></g><g id="Group 1" fill-rule="nonzero" stroke-width="1" stroke-linecap="round" stroke-linejoin="round"><g id="Group 1"><path d="" id="Path 1" fill="none" stroke="#000000"/><path d="M160.87167,493.7308l-58.7988,-135.8006l216.7733,17.9708l12.355,149.5128z" id="Path 1" fill="url(#color-7)" stroke-opacity="0" stroke="#000000"/><path d="M4.45527,193.5729l123.9203,-65.9867l123.9203,65.9867l149.987,210.5958l-273.9073,-12.6358l-100.0095,-53.2543z" id="Path 1" fill="url(#color-8)" stroke-opacity="0" stroke="#000000"/><path d="M163.41757,494.2044l-158.9623,-300.4492l124.4656,-65.8786z" id="Path 1" fill="url(#color-9)" stroke-opacity="0" stroke="#000000"/></g></g><g id="Group 1" fill-rule="nonzero" stroke-width="1" stroke-linecap="round" stroke-linejoin="round"><path d="" id="Path 1" fill="none" stroke="#000000"/><path d="M160.87167,493.7308l-58.7988,-135.8006l216.7733,17.9708l12.355,149.5128z" id="Path 1" fill="url(#color-10)" stroke-opacity="0" stroke="#000000"/><path d="M4.45527,193.5729l123.9203,-65.9867l123.9203,65.9867l149.987,210.5958l-273.9073,-12.6358l-100.0095,-53.2543z" id="Path 1" fill="url(#color-11)" stroke-opacity="0" stroke="#000000"/><path d="M163.41757,494.2044l-158.9623,-300.4492l124.4656,-65.8786z" id="Path 1" fill="url(#color-12)" stroke-opacity="0" stroke="#000000"/></g><path d="M160.87167,493.7308l-58.7988,-135.8006l216.7733,17.9708l12.355,149.5128z" id="Path 1" fill="url(#color-13)" fill-rule="nonzero" stroke-opacity="0" stroke="#000000" stroke-width="1" stroke-linecap="round" stroke-linejoin="round"/><path d="M4.45527,193.5729l123.9203,-65.9867l123.9203,65.9867l149.987,210.5958l-273.9073,-12.6358l-100.0095,-53.2543z" id="Path 1" fill="url(#color-14)" fill-rule="nonzero" stroke-opacity="0" stroke="#000000" stroke-width="1" stroke-linecap="round" stroke-linejoin="round"/><path d="M163.41757,494.2044l-158.9623,-300.4492l124.4656,-65.8786z" id="Path 1" fill="url(#color-15)" fill-rule="nonzero" stroke-opacity="0" stroke="#000000" stroke-width="1" stroke-linecap="round" stroke-linejoin="round"/><path d="M78.36977,451.501v-250h250v250z" id="Path 1" fill="#232222" fill-rule="nonzero" stroke-opacity="0" stroke="#000000" stroke-width="1" stroke-linecap="round" stroke-linejoin="round"/><path d="M102.16167,432.6362v-12.1291h130.43v12.1291z" id="Path 1" fill="#ffffff" fill-rule="nonzero" stroke-opacity="0" stroke="#000000" stroke-width="1" stroke-linecap="round" stroke-linejoin="round"/><g clip-path="url(#clip-2)" id="Group 1" stroke-linejoin="miter"><g id="Group 1" fill="#ffffff" fill-rule="evenodd" stroke="#000000" stroke-width="0.25" stroke-linecap="round" font-family="none" font-weight="none" font-size="NaN" text-anchor="start"/></g><g clip-path="url(#clip-3)" id="Group 1" stroke-linejoin="miter"><g id="Group 1" fill="#ffffff" fill-rule="evenodd" stroke="#000000" stroke-width="0.25" stroke-linecap="round"><path d="M103.36877,321.1361v-52.2717c-0.0194,-3.0396 0.3209,-6.0729 1.0157,-9.0524c0.7577,-3.2662 2.0802,-6.4149 3.9229,-9.3395c3.2924,-5.1626 8.0135,-9.1153 14.1635,-11.8579c3.7217,-1.6334 7.7059,-2.7733 11.8191,-3.3815c3.328,-0.5009 6.7006,-0.746 10.0784,-0.7324c3.4968,-0.0153 6.9878,0.2482 10.4288,0.7873c3.9901,0.6178 7.8541,1.7386 11.4687,3.3267c6.1499,2.7427 10.8711,6.6953 14.1635,11.8579c2.1073,3.3501 3.5428,6.9854 4.2453,10.7512c0.4727,2.4719 0.7046,4.9738 0.6933,7.4794v52.4331c0,6.9911 -1.6462,13.0948 -4.9386,18.3112c-3.2924,5.2164 -8.0135,9.196 -14.1635,11.9386c-3.7211,1.6338 -7.7046,2.7743 -11.8172,3.3831c-3.3286,0.5005 -6.7019,0.7451 -10.0803,0.7308c-3.4962,0.0152 -6.9866,-0.2483 -10.4269,-0.7873c-3.9908,-0.6176 -7.8554,-1.7384 -11.4706,-3.3267c-6.1499,-2.7426 -10.8711,-6.7222 -14.1635,-11.9386c-2.1976,-3.5333 -3.6664,-7.3714 -4.3404,-11.3417c-0.4062,-2.3064 -0.6062,-4.6365 -0.5982,-6.9696zM165.24087,321.1361v-52.2717c0.0132,-1.7835 -0.1602,-3.5643 -0.5181,-5.3208c-0.4274,-2.0199 -1.12,-3.823 -2.0779,-5.4095c-0.7226,-1.2061 -1.6365,-2.3188 -2.7153,-3.3057c-3.2079,-2.9234 -7.7669,-4.5222 -13.6771,-4.7964c-0.6275,-0.0291 -1.2557,-0.0436 -1.8841,-0.0436c-2.0494,-0.0131 -4.0946,0.1616 -6.1015,0.5211c-2.5991,0.484 -4.874,1.3041 -6.8246,2.4603c-0.9176,0.5436 -1.7693,1.1663 -2.542,1.8586c-3.1234,2.7986 -4.8926,6.6883 -5.3076,11.6692c-0.0651,0.7877 -0.0974,1.5771 -0.0969,2.3668v52.2717c-0.0142,1.8411 0.1811,3.679 0.5833,5.4869c0.7939,3.4418 2.401,6.2645 4.8212,8.4683c2.2676,2.0358 5.1491,3.4806 8.3173,4.1704c2.1469,0.5001 4.5304,0.7502 7.1507,0.7502c2.0349,0.0131 4.0658,-0.1561 6.0605,-0.505c2.455,-0.4463 4.6124,-1.1885 6.4723,-2.2264c1.1101,-0.6186 2.1273,-1.354 3.0284,-2.1893c3.5409,-3.2804 5.3113,-7.9322 5.3113,-13.9553z" id="CompoundPath 1"/></g></g></g></g></g></g></g><g clip-path="url(#clip-4)" id="Group 1" stroke-linejoin="miter"><g id="Group 1" fill="#ffffff" fill-rule="evenodd" stroke="#ffffff" stroke-width="0.25" stroke-linecap="round"><path d="M126.16102,365.13357h-23.50991v-137.29788h23.50991v55.10723h36.86354v-55.10723h23.50991v137.29788h-23.50991v-60.37345h-36.86354zM258.945,365.13357h-43.25824v-137.29788h82.37873v21.8172h-59.43306v33.29004h20.12448c3.83505,-0.01928 7.66407,0.30615 11.44087,0.97237c4.35577,0.75716 8.5792,2.14005 12.53925,4.10578c6.70816,3.38542 11.94303,8.15011 15.70462,14.29403c2.75115,4.55035 4.52118,9.62534 5.19663,14.89964c0.30213,2.23034 0.45107,4.47876 0.44575,6.72948c0,8.27548 -1.8808,15.4852 -5.64238,21.62912c-3.76159,6.14392 -8.99646,10.93995 -15.70462,14.38806c-6.70816,3.44812 -14.63884,5.17218 -23.79203,5.17218zM238.63243,303.06741v41.94169h20.31256c6.64547,0 11.849,-1.8808 15.61059,-5.64238c2.67453,-2.70041 4.46855,-6.14747 5.14584,-9.88733c0.34028,-1.7618 0.50659,-3.55277 0.49653,-5.3471c0.01813,-2.18612 -0.22624,-4.36651 -0.72787,-6.49438c-0.7742,-3.37585 -2.47638,-6.46818 -4.91451,-8.92812c-2.48172,-2.44992 -5.60215,-4.15286 -9.00524,-4.91451c-2.01496,-0.48525 -4.21674,-0.72787 -6.60535,-0.72787z" id="CompoundPath 1"/></g></g><g clip-path="url(#clip-5)" id="Group 1" stroke-linejoin="miter"><g id="Group 1" fill="#ffffff" fill-rule="evenodd" stroke="#ffffff" stroke-width="0.25" stroke-linecap="round"><path d="M456.03085,386.11066h-27.09576v-158.23921h27.09576v63.51245h42.48614v-63.51245h27.09576v158.23921h-27.09576v-69.5819h-42.48614zM739.12731,386.11066h-49.85619v-158.23921h94.94353v25.14486h-68.49807v38.36759h23.19397c4.41999,-0.02222 8.83304,0.35285 13.18588,1.12068c5.02013,0.87265 9.88774,2.46647 14.45179,4.732c7.73132,3.90179 13.76464,9.3932 18.09996,16.47422c3.17077,5.24439 5.21077,11.09344 5.98925,17.17221c0.34822,2.57053 0.51986,5.16189 0.51374,7.75589c0,9.53771 -2.16766,17.84707 -6.50298,24.9281c-4.33532,7.08102 -10.36864,12.60856 -18.09996,16.5826c-7.73132,3.97404 -16.87162,5.96107 -27.4209,5.96107zM976.26936,425.12855h-27.09576v-158.23921h26.44546v22.76043h6.06945l-6.06945,6.28622c-0.02722,-3.24793 0.34922,-6.48666 1.12068,-9.64175c1.20687,-5.03757 3.82605,-9.62621 7.54996,-13.22706c5.78043,-5.56366 13.58401,-8.34549 23.41073,-8.34549c4.55972,-0.04802 9.09726,0.64078 13.43733,2.03977c5.96867,1.98472 11.28801,5.54967 15.39256,10.3159c4.44569,5.14836 7.57443,11.29946 9.11718,17.92438c1.04048,4.19804 1.60913,8.76385 1.70595,13.69745c0.01014,0.5144 0.0152,1.02888 0.01517,1.54337v32.29814c0.01906,3.9678 -0.31609,7.92939 -1.00146,11.83759c-0.74145,4.26378 -2.04472,8.41049 -3.87578,12.33182c-1.80858,3.89749 -4.24248,7.47292 -7.2053,10.58469c-1.96497,2.03817 -4.16712,3.83351 -6.55934,5.34762c-5.92494,3.75728 -12.93371,5.63592 -21.02631,5.63592c-9.82673,0 -17.6303,-2.78183 -23.41073,-8.34549c-4.10335,-3.98668 -6.86532,-9.15078 -7.90329,-14.77694c-0.52582,-2.66483 -0.78289,-5.37571 -0.76735,-8.09188l6.06945,6.28622h-6.28622l0.86706,28.39635zM1092.88949,416.45791h-24.9281v-53.32445h8.02034c0.7731,-0.79098 1.47523,-1.64833 2.0983,-2.56217c1.80927,-2.5983 3.67491,-6.2602 5.5969,-10.9857c1.20981,-3.03193 2.1294,-6.17175 2.74643,-9.3773c0.6214,-3.12143 1.04843,-6.49214 1.28109,-10.11214c0.10883,-1.70259 0.17532,-3.40762 0.19942,-5.11351l1.3006,-58.0933h83.45493v96.24412h14.08979v53.32445h-24.9281v-30.34725h-68.9316zM599.31321,315.6617h29.69695v-10.188c0,-5.78043 -1.87864,-10.29639 -5.63592,-13.54788c-2.17961,-1.85382 -4.75028,-3.19066 -7.51961,-3.91046c-1.91043,-0.52313 -4.00078,-0.83383 -6.27104,-0.93209c-0.53293,-0.02309 -1.0663,-0.03465 -1.59973,-0.03468c-5.41771,0 -9.9893,1.08744 -13.71479,3.26233c-0.34806,0.2029 -0.68998,0.41615 -1.0253,0.63946c-1.82302,1.18412 -3.38946,2.72255 -4.60628,4.52391c-1.20624,1.8413 -2.00106,3.92115 -2.33023,6.09763h-26.44546c0.56636,-5.48935 2.27258,-10.79999 5.00946,-15.59198c2.59705,-4.40574 6.05363,-8.24418 10.16416,-11.28701c5.51772,-4.09701 11.8528,-6.95811 18.57468,-8.38885c4.54342,-1.02169 9.45317,-1.54843 14.72925,-1.58022c0.17052,-0.00124 0.34104,-0.00196 0.51157,-0.00217c4.68602,-0.03113 9.36358,0.40235 13.96407,1.29409c5.63158,1.13152 10.63888,3.00582 15.02189,5.62291c1.97619,1.17845 3.846,2.52677 5.58823,4.02968c7.22678,6.19495 11.69756,15.0063 12.42936,24.49673c0.16969,1.69195 0.25362,3.3914 0.25145,5.09183v80.85373h-26.22869v-20.80954h-4.33532l4.33532,-5.85268c0.03797,3.35181 -0.507,6.6847 -1.61057,9.84985c-1.60859,4.41774 -4.43144,8.29174 -8.1439,11.17646c-3.72358,2.92816 -8.021,5.04105 -12.61362,6.20168c-3.26739,0.86706 -6.82813,1.38224 -10.68223,1.54554c-0.90486,0.03789 -1.81042,0.05668 -2.71608,0.05636c-3.94436,0.0275 -7.88071,-0.35902 -11.74438,-1.1532c-5.16481,-1.09973 -9.69956,-2.98631 -13.60424,-5.65976c-1.30101,-0.89139 -2.53682,-1.87438 -3.69803,-2.94152c-5.73121,-5.26865 -9.36489,-12.43133 -10.23136,-20.16791c-0.26441,-2.00936 -0.39475,-4.0341 -0.39018,-6.06078c0,-11.70537 3.90179,-20.73728 11.70537,-27.09576c6.24864,-5.09111 14.58257,-8.1439 25.0018,-9.15837c2.71341,-0.25832 5.43774,-0.38492 8.16341,-0.37934zM817.59662,341.24009v-29.48018c-0.02641,-4.23088 0.42884,-8.45102 1.35696,-12.57893c0.97259,-4.30246 2.5984,-8.43057 4.82088,-12.24078c4.11855,-7.00877 9.89898,-12.42792 17.34128,-16.25745c4.61646,-2.3391 9.56414,-3.95689 14.67073,-4.79703c3.85475,-0.64711 7.7577,-0.96402 11.66635,-0.94727c4.22847,-0.02213 8.45003,0.3443 12.61145,1.09467c4.81616,0.85619 9.47839,2.42318 13.83401,4.64963c7.37005,3.82953 13.11435,9.24868 17.2329,16.25745c2.88493,4.9712 4.77829,10.45475 5.57522,16.1469c0.40897,2.79998 0.61038,5.62636 0.60261,8.45604v29.69695c0.02641,4.23088 -0.42884,8.45102 -1.35696,12.57893c-0.97259,4.30246 -2.5984,8.43057 -4.82088,12.24078c-4.11855,7.00877 -9.86285,12.42792 -17.2329,16.25745c-4.34764,2.2227 -9.00095,3.78817 -13.808,4.6453c-3.9278,0.73122 -8.13162,1.09756 -12.61145,1.099c-0.00867,0 -0.01734,0 -0.02601,0c-10.11575,0 -18.89477,-1.91477 -26.33707,-5.7443c-7.4423,-3.82953 -13.22273,-9.24868 -17.34128,-16.25745c-2.75978,-4.76027 -4.60717,-9.99368 -5.44733,-15.43157c-0.49666,-3.10451 -0.74096,-6.24416 -0.7305,-9.38814zM1103.51103,363.13346h43.35321v-72.61662h-32.51491l-0.86706,34.4658c-0.14451,9.68222 -1.33672,17.81094 -3.57664,24.38618c-1.74858,5.13447 -3.43141,9.05721 -5.04848,11.76823c-0.40753,0.69233 -0.85708,1.35905 -1.34612,1.99642zM890.21324,341.24009v-29.48018c0.01496,-2.22373 -0.18027,-4.44389 -0.5831,-6.63087c-0.47978,-2.50726 -1.25652,-4.73417 -2.33023,-6.68073c-0.81436,-1.48441 -1.8411,-2.84195 -3.04773,-4.02968c-2.41918,-2.33738 -5.40274,-4.00803 -8.6598,-4.84906c-2.0535,-0.56504 -4.3057,-0.89163 -6.7566,-0.97978c-0.46081,-0.01624 -0.92187,-0.02419 -1.38297,-0.02384c-6.1735,0 -11.1938,1.48268 -15.0609,4.44804c-0.56939,0.43712 -1.11362,0.90609 -1.63008,1.40464c-2.24066,2.20123 -3.88534,4.93565 -4.77969,7.94664c-0.61851,1.9639 -1.01447,4.13445 -1.18788,6.51165c-0.06901,0.95944 -0.10299,1.92107 -0.10188,2.88299v29.48018c0,5.60991 1.12791,10.23352 3.38372,13.87086c0.7573,1.22425 1.65901,2.35302 2.68573,3.36204c4.02318,3.95237 9.5471,5.93939 16.57176,5.96107c0.03974,0.00006 0.07948,0.00006 0.11922,0c2.26109,0.01706 4.5175,-0.20822 6.73059,-0.67197c2.92056,-0.63585 5.4719,-1.72184 7.65401,-3.25799c0.86187,-0.60629 1.66979,-1.28584 2.41477,-2.0311c2.26235,-2.30296 3.90642,-5.14001 4.77969,-8.24795c0.78758,-2.6431 1.18137,-5.63808 1.18137,-8.98495zM1020.27287,341.45686v-29.91371c0.01588,-2.29417 -0.19541,-4.58427 -0.63079,-6.8368c-0.85984,-4.28474 -2.60047,-7.78624 -5.22189,-10.50448c-2.65559,-2.72301 -6.05937,-4.5969 -9.78048,-5.38447c-2.1263,-0.47157 -4.29907,-0.70136 -6.47697,-0.68498c-2.27894,-0.01953 -4.55124,0.24848 -6.7631,0.7977c-3.54456,0.86638 -6.76512,2.734 -9.27759,5.38013c-3.59254,3.79341 -5.53115,8.96472 -5.81583,15.51395c-0.02471,0.57265 -0.03699,1.14577 -0.03685,1.71895v29.91371c-0.01684,2.33444 0.20982,4.66427 0.67631,6.95169c0.87573,4.1359 2.60119,7.56297 5.17637,10.28121c3.90179,4.11855 9.24868,6.17783 16.04069,6.17783c6.93651,0 12.35566,-2.02315 16.25745,-6.06945c2.19195,-2.31373 3.78842,-5.12576 4.6518,-8.19376c0.59972,-2.02026 0.97472,-4.24067 1.12502,-6.66122c0.05096,-0.82779 0.07626,-1.65695 0.07587,-2.48631zM715.71657,314.57787v48.33883h23.41073c7.65907,0 13.65626,-2.16766 17.99158,-6.50298c3.08246,-3.11228 5.15011,-7.08511 5.93072,-11.39539c0.39218,-2.03051 0.58386,-4.09465 0.57226,-6.16266c0.02089,-2.51956 -0.26075,-5.03251 -0.83888,-7.48493c-0.89229,-3.89075 -2.8541,-7.45474 -5.6641,-10.28988c-2.86024,-2.82359 -6.45663,-4.78628 -10.37876,-5.6641c-2.32229,-0.55926 -4.85989,-0.83888 -7.61282,-0.83888zM629.01016,346.87601v-14.52332h-29.26342c-5.49141,0 -9.89898,1.58962 -13.22273,4.76885c-3.32375,3.17924 -4.98562,7.37005 -4.98562,12.57243c-0.01925,1.97502 0.2532,3.94207 0.80854,5.83751c0.87403,2.9282 2.59062,5.53437 4.93576,7.4936c3.44369,2.92345 8.02612,4.53258 13.7473,4.82738c0.65554,0.0335 1.31184,0.05013 1.96824,0.04986c7.65907,0 13.90915,-1.95089 18.75026,-5.85268c2.26337,-1.77349 4.10405,-4.02807 5.3888,-6.60053c1.23846,-2.5405 1.86274,-5.37363 1.87286,-8.4994c0.00004,-0.02457 0.00004,-0.04913 0,-0.0737z" id="CompoundPath 1"/></g></g></g></g></g></g></svg>