<svg viewBox="0 0 16 16" xmlns="http://www.w3.org/2000/svg"><path clip-rule="evenodd" d="M7 10.8771V12.1796H5.4031C3.18878 12.1796 1.38608 13.8578 1.30095 16L0 15.9489C0.11317 13.1044 2.48673 10.8771 5.4031 10.8771H7ZM11.8528 6.80719C11.8411 6.87739 11.8274 6.94689 11.8119 7.01562H10.4596C10.5077 6.88008 10.5445 6.73882 10.5689 6.59277L10.8793 4.73517C10.9745 4.15906 10.8603 3.59497 10.5699 3.10301C10.4977 3.15211 10.4106 3.2002 10.2894 3.24629C9.89985 3.39658 9.53931 3.49677 9.07561 3.49677C8.82824 3.49677 8.55083 3.46872 8.22434 3.40359C7.8034 3.319 7.46526 3.14406 7.13673 2.97408C6.74538 2.7716 6.36765 2.57617 5.87982 2.54894C5.85607 2.57165 5.83148 2.59326 5.80692 2.61484C5.76104 2.65514 5.7153 2.69533 5.67551 2.74231C5.1978 3.30741 5.0005 4.01478 5.12068 4.73517L5.43115 6.59277C5.63545 7.81815 6.71607 8.70687 8 8.70687C8.51619 8.70687 8.99952 8.56322 9.40625 8.3118V9.75362C8.96814 9.91919 8.49344 10.0094 8 10.0094C6.08613 10.0094 4.45468 8.65377 4.14722 6.80719L3.83676 4.94959C3.69154 4.08491 3.85779 3.2513 4.24336 2.54293C4.27842 1.56804 5.10265 0.666291 6.09014 0.524015C6.4026 0.148287 6.95844 0 7.60841 0C8.82624 0 10.3495 0.506982 11.0866 0.942827C11.328 1.0851 11.6565 1.28449 11.6565 1.28449C11.6565 1.28449 11.5013 1.58106 11.1958 1.77845C11.9599 2.60505 12.3645 3.74425 12.1632 4.94959L11.8528 6.80719ZM11 8.48572H13V10.8846H15.5194V12.8846H13V15.5634H11V12.8846H8.49304V10.8846H11V8.48572Z"></path></svg>