<svg xmlns="http://www.w3.org/2000/svg" viewBox="0 0 16 16" fill="currentColor"><path fill-rule="evenodd" d="M10.5968953,10.8770743 L5.40310466,10.8770743 C2.4867301,10.8770743 0.113169755,13.1043898 0,15.948901 L1.30095143,16 C1.38607912,13.8578496 3.18878317,12.179598 5.40310466,12.179598 L10.5968953,12.179598 C12.8112168,12.179598 14.6139209,13.8578496 14.6990486,16 L16,15.948901 C15.8868302,13.1043898 13.5132699,10.8770743 10.5968953,10.8770743 L10.5968953,10.8770743 Z M5.67551327,2.74231323 C5.73660491,2.67017346 5.81171758,2.61406475 5.87981973,2.54893857 C6.77716575,2.59903563 7.30195293,3.21823533 8.2243365,3.40359446 C8.55082624,3.46872065 8.82824236,3.496775 9.07561342,3.496775 C9.53930896,3.496775 9.89984977,3.39658088 10.2894342,3.24628969 C10.4106159,3.20020039 10.4977466,3.15210721 10.5698548,3.10301209 C10.8602904,3.59496525 10.9744617,4.15905818 10.879319,4.7351744 L10.5688533,6.5927735 C10.3645468,7.81814766 9.28392589,8.70686956 8,8.70686956 C6.71607411,8.70686956 5.63545318,7.81814766 5.43114672,6.5927735 L5.12068102,4.7351744 C5.00050075,4.01477863 5.1977967,3.3074081 5.67551327,2.74231323 L5.67551327,2.74231323 Z M4.14722083,6.80718893 C4.45468202,8.65376667 6.08612919,10.0093932 8,10.0093932 C9.9128693,10.0093932 11.5443165,8.65376667 11.8527792,6.80718893 L12.1632449,4.94958983 C12.3645468,3.74425449 11.9599399,2.60504728 11.1957937,1.77844574 C11.5012519,1.58106331 11.6564847,1.2844887 11.6564847,1.2844887 C11.6564847,1.2844887 11.327992,1.08510239 11.0866299,0.942826727 C10.3495243,0.506982278 8.82623936,0 7.60841262,0 C6.95843766,0 6.40260391,0.148287307 6.0901352,0.52401528 C5.10265398,0.666290939 4.27841763,1.56803807 4.24336505,2.54292692 C3.85778668,3.25129939 3.69153731,4.08491452 3.83675513,4.94958983 L4.14722083,6.80718893 Z"></path></svg>