<svg version="1.1" id="Layer_1" xmlns="http://www.w3.org/2000/svg" xmlns:xlink="http://www.w3.org/1999/xlink" x="0px" y="0px" viewBox="7.988 8.941 16 14.081" enable-background="new 7.988 8.941 16 14.081" xml:space="preserve"><g><path d="M23.953,17.085c0-0.018-0.017-0.034-0.017-0.052S20.7,9.269,20.7,9.269c-0.104-0.189-0.311-0.327-0.535-0.327h-8.378 c-0.224,0-0.432,0.12-0.535,0.327l-3.194,7.73c-0.018,0.052-0.035,0.068-0.035,0.086c-0.017,0.069-0.034,0.121-0.034,0.189v5.145 c0,0.327,0.275,0.604,0.604,0.604h14.792c0.328,0,0.604-0.275,0.604-0.604v-5.145C23.988,17.206,23.971,17.137,23.953,17.085z M19.628,17.005c-0.172,0-0.344,0.086-0.466,0.207c-0.12,0.138-0.172,0.31-0.138,0.483c0.034,0.258,0.052,0.947-0.206,1.241 c-0.069,0.069-0.172,0.155-0.432,0.155h-3.345h-1.414c-0.258,0-0.362-0.086-0.432-0.155c-0.258-0.293-0.241-0.965-0.207-1.241 c0.034-0.173-0.017-0.362-0.138-0.483s-0.293-0.207-0.466-0.207H9.223l3.059-7.071h7.655h0.002l2.854,7.071H19.628z"></path><circle cx="12.907" cy="14.126" r="0.852"></circle><circle cx="16.004" cy="14.126" r="0.852"></circle><circle cx="19.094" cy="14.126" r="0.852"></circle></g></svg>