<svg version="1.1" xmlns="http://www.w3.org/2000/svg" xmlns:xlink="http://www.w3.org/1999/xlink" width="130" height="40" viewBox="70,182,1300,400.00146"><defs><clipPath id="clip-1"><rect x="70.00018" y="182.00046" width="400.001" height="400.001" id="clip-1" fill="none" stroke="none" stroke-width="1" stroke-linecap="butt" stroke-linejoin="miter"/></clipPath><clipPath id="clip-2"><rect x="70.00018" y="182.00046" width="400.001" height="400.001" id="clip-2" fill="none" stroke="none" stroke-width="1" stroke-linecap="butt" stroke-linejoin="miter"/></clipPath><clipPath id="clip-3"><rect x="70.00018" y="182.00046" width="400.001" height="400.001" id="clip-3" fill="none" stroke="none" stroke-width="1" stroke-linecap="butt" stroke-linejoin="miter"/></clipPath><clipPath id="clip-4"><rect x="122.49999" y="318.5" transform="scale(0.57143,0.57143)" width="700" height="700" id="clip-4" fill="none" stroke="none" stroke-width="1" stroke-linecap="butt" stroke-linejoin="miter"/></clipPath><clipPath id="clip-5"><rect x="122.49999" y="318.5" transform="scale(0.57143,0.57143)" width="700" height="700" id="clip-5" fill="none" stroke="none" stroke-width="1" stroke-linecap="butt" stroke-linejoin="miter"/></clipPath><clipPath id="clip-6"><rect x="122.49999" y="318.5" transform="scale(0.57143,0.57143)" width="700" height="700" id="clip-6" fill="none" stroke="none" stroke-width="1" stroke-linecap="butt" stroke-linejoin="miter"/></clipPath><linearGradient x1="242.03108" y1="536.78719" x2="392.53648" y2="416.6075" gradientUnits="userSpaceOnUse" id="color-1"><stop offset="0" stop-color="#fc9fda" stop-opacity="0.97"/><stop offset="1" stop-color="#8cffd3" stop-opacity="0.76"/></linearGradient><linearGradient x1="74.67805" y1="252.62398" x2="439.70983" y2="443.56368" gradientUnits="userSpaceOnUse" id="color-2"><stop offset="0" stop-color="#8cffd3"/><stop offset="1" stop-color="#fc9fda"/></linearGradient><linearGradient x1="157.79299" y1="235.77637" x2="224.06029" y2="527.80178" gradientUnits="userSpaceOnUse" id="color-3"><stop offset="0" stop-color="#8cffd3" stop-opacity="0.87"/><stop offset="1" stop-color="#fc9fda"/></linearGradient><linearGradient x1="201.00393" y1="495.10465" x2="286.14659" y2="414.53342" gradientUnits="userSpaceOnUse" id="color-4"><stop offset="0" stop-color="#0e0202"/><stop offset="1" stop-color="#000000"/></linearGradient><linearGradient x1="253.50018" y1="504.1645" x2="338.64283" y2="423.59328" gradientUnits="userSpaceOnUse" id="color-5"><stop offset="0" stop-color="#0e0202"/><stop offset="1" stop-color="#000000"/></linearGradient></defs><g id="document" fill="none" fill-rule="nonzero" stroke="#000000" stroke-width="0" stroke-linecap="butt" stroke-linejoin="miter" stroke-miterlimit="10" stroke-dasharray="" stroke-dashoffset="0" font-family="Impact" font-weight="none" font-size="none" text-anchor="none" style="mix-blend-mode: normal"><rect x="37.69231" y="227.5" transform="scale(1.85714,0.8)" width="700" height="500" id="Shape 1 1" vector-effect="non-scaling-stroke"/></g><g fill="none" fill-rule="nonzero" stroke="none" stroke-width="none" stroke-linecap="none" stroke-linejoin="none" stroke-miterlimit="10" stroke-dasharray="" stroke-dashoffset="0" font-family="Impact" font-weight="none" font-size="none" text-anchor="none" style="mix-blend-mode: normal"><g><g id="stage"><g id="layer1 1"><g clip-path="url(#clip-1)" id="Group 1"><g id="Group 1" fill="none" stroke="#000000" stroke-width="0" stroke-linecap="butt" stroke-linejoin="miter"><rect x="122.50262" y="227.50119" transform="scale(0.57143,0.8)" width="700" height="500" id="Shape 1"/></g><g id="Group 1"><g id="Group 1"><g id="Group 1"><g id="Group 1"><g clip-path="url(#clip-2)" id="Group 1"><g id="Group 1" fill="none" stroke="#000000" stroke-width="0" stroke-linecap="butt" stroke-linejoin="miter"><rect x="122.50262" y="227.50119" transform="scale(0.57143,0.8)" width="700" height="500" id="Shape 1"/></g><g id="Group 1"><g id="Group 1"><g id="Group 1"><g id="Group 1"><g clip-path="url(#clip-3)" id="Group 1"><g id="Group 1" fill="none" stroke-opacity="0" stroke="#000000" stroke-width="0" stroke-linecap="butt" stroke-linejoin="miter"><rect x="122.50314" y="227.50119" transform="scale(0.57143,0.8)" width="700" height="500" id="Shape 1"/></g><g id="Group 1"><g id="Group 1"><g id="Group 1"><g id="Group 1"><g clip-path="url(#clip-4)" id="Group 1"><g id="Group 1" fill-opacity="0" fill="#ffffff" stroke-opacity="0" stroke="#000000" stroke-width="0" stroke-linecap="butt" stroke-linejoin="miter"><rect x="122.49999" y="227.49991" transform="scale(0.57143,0.8)" width="700" height="500" id="Shape 1"/></g><g id="Group 1"><g id="Group 1"><g id="Group 1"><g id="Group 1"><g clip-path="url(#clip-5)" id="Group 1"><g id="Group 1" fill-opacity="0" fill="#ffffff" stroke-opacity="0" stroke="#000000" stroke-width="0" stroke-linecap="butt" stroke-linejoin="miter"><rect x="122.49999" y="227.4999" transform="scale(0.57143,0.8)" width="700" height="500" id="Shape 1"/></g><g id="Group 1"><g id="Group 1"><g id="Group 1"><g id="Group 1"><g clip-path="url(#clip-6)" id="Group 1"><g id="Group 1" fill-opacity="0" fill="#ffffff" stroke-opacity="0" stroke="#000000" stroke-width="0" stroke-linecap="butt" stroke-linejoin="miter"><rect x="122.49999" y="318.5" transform="scale(0.57143,0.57143)" width="700" height="700" id="Shape 1"/></g><g id="Group 1" stroke-opacity="0" stroke="#000000" stroke-width="1" stroke-linecap="round" stroke-linejoin="round"><g id="Group 1"><g id="Group 1"><g id="Group 1"><path d="" id="Path 1" fill="none"/><path d="M225.65407,385.08798" id="Path 1" fill-opacity="0" fill="#ffffff"/><path d="M227.50202,549.22936l-58.79868,-135.80031l216.77272,17.9708l12.35492,149.51245z" id="Path 1" fill="url(#color-1)"/><path d="M71.086,249.07214l123.92001,-65.98651l123.92001,65.98651l149.98665,210.59525l-273.90666,-12.63572l-100.00921,-53.25418z" id="Path 1" fill="url(#color-2)"/><path d="M230.04791,549.70292l-158.9619,-300.44846l124.46532,-65.87845z" id="Path 1" fill="url(#color-3)"/><path d="M259.86094,439.67622" id="Path 1" fill="url(#color-4)"/></g></g></g></g></g></g></g></g></g></g></g></g></g></g></g><path d="M145.00031,506.99969v-249.99938h249.99938v249.99938z" id="Path 1" fill="#232222" stroke-opacity="0" stroke="#000000" stroke-width="1" stroke-linecap="round" stroke-linejoin="round"/><path d="M223.58839,392.00297" id="Path 1" fill-opacity="0" fill="#ffffff" stroke-opacity="0" stroke="#000000" stroke-width="1" stroke-linecap="round" stroke-linejoin="round"/><path d="M184.27856,278.43751c3.93982,-1.65958 8.2396,-2.57242 12.74172,-2.57242c4.50212,0 8.80189,0.91283 12.74171,2.57242c12.65811,5.33201 21.60066,18.34624 21.60066,33.58743v78.53238c0,15.24117 -8.94255,28.28157 -21.60066,33.61358c-3.93982,1.65958 -8.2396,2.57242 -12.74172,2.57242c-4.50212,0 -8.80189,-0.91283 -12.74172,-2.57242c-12.65811,-5.33201 -21.60066,-18.37242 -21.60066,-33.61358v-78.50621c0,-15.24117 8.94255,-28.28157 21.60066,-33.61358z" id="Path 1" fill="#fffafa" stroke-opacity="0" stroke="#000000" stroke-width="1" stroke-linecap="round" stroke-linejoin="round"/><path d="M184.27856,390.55731v-33.61358v-11.27904v-33.61358c0,-7.92393 5.70466,-14.34752 12.74173,-14.34752c7.03705,0 12.74173,6.42359 12.74173,14.34752v33.61358v11.27904v33.61358c0,8.74363 -5.94731,15.83176 -12.74173,15.83176c-6.7944,0 -12.74173,-7.08812 -12.74173,-15.83176z" id="Path 1" fill="#232222" stroke-opacity="0" stroke="#000000" stroke-width="1" stroke-linecap="round" stroke-linejoin="round"/><path d="M313.31173,356.51594c1.10217,2.46122 2.03753,5.40851 2.75632,8.71308c1.02489,4.71178 1.60949,10.14995 1.60949,15.94124c0,12.37983 -2.67136,23.14591 -6.60449,28.65252c-4.28039,7.3852 -12.83969,12.42388 -22.70052,12.42388c-0.20836,0 -0.41851,0.15526 -0.62566,0.1508h-19.50438h-9.04468h-14.99541v-145.42276h5.34792h6.67211h12.02004h17.54726c0.8494,-0.07944 1.71103,-0.12011 2.58281,-0.12011c0.28621,0 0.57129,0.00439 0.85523,0.01308c12.25762,0.37557 22.33621,8.79464 24.3789,19.78763c1.34498,4.66105 2.12967,10.27068 2.12967,16.30675c0,13.47472 -3.91048,24.8243 -9.23491,28.2399c-1.53295,1.40166 -3.25983,2.62659 -5.14082,3.63846c2.47129,1.21522 4.72731,2.79939 6.69567,4.68031c1.97429,1.23382 3.76701,3.67126 5.25551,6.99521z" id="Path 1" fill-opacity="0.97" fill="#ffffff" stroke-opacity="0" stroke="#000000" stroke-width="1" stroke-linecap="round" stroke-linejoin="round"/><path d="M290.19138,325.29678c-1.22954,5.53583 -5.6325,12.95063 -10.80616,12.95063h-12.20905v-21.18037v-5.68309v-13.68041h12.20905c3.24413,0 6.16315,1.60867 8.19236,4.17343c1.94529,3.4257 1.33184,1.94696 1.8032,3.07272c0.7063,1.68688 1.10227,3.57964 1.10227,5.5793z" id="Path 1" fill="#232222" stroke-opacity="0" stroke="#000000" stroke-width="1" stroke-linecap="round" stroke-linejoin="round"/><path d="M293.89162,380.3361v11.35566c0,2.02379 -0.89682,4.57356 -1.81783,6.25603c-2.26703,3.59582 -6.42897,6.14535 -11.18789,6.14535h-13.70973v-15.98484v-27.81605h13.70973c5.51868,0 10.23455,3.8325 12.12353,8.6012c0.56963,1.43802 0.88221,3.0024 0.88221,4.63855z" id="Path 1" fill="#232222" stroke-opacity="0" stroke="#000000" stroke-width="1" stroke-linecap="round" stroke-linejoin="round"/><path d="M168.79221,488.1349v-16.12907h130.42967v16.12907z" id="Path 1" fill="#ffffff" stroke-opacity="0" stroke="#000000" stroke-width="1" stroke-linecap="round" stroke-linejoin="round"/><path d="M312.35717,448.73607" id="Path 1" fill="url(#color-5)" stroke-opacity="0" stroke="#000000" stroke-width="1" stroke-linecap="round" stroke-linejoin="round"/></g></g></g></g></g></g></g></g></g></g></g></g></g></g></g><text x="250.90464" y="119.47909" transform="scale(3.66673,3.66667)" id="PointText 1" fill="#000000" stroke="none" stroke-width="1" stroke-linecap="butt" stroke-linejoin="miter" font-family="Impact" font-weight="normal" font-size="51" text-anchor="middle">OnBoard</text></g></g></g></g></svg>