<svg version="1.1" xmlns="http://www.w3.org/2000/svg" xmlns:xlink="http://www.w3.org/1999/xlink" width="40" height="40" viewBox="399.9995,126.4995,400.001,400.001"><defs><clipPath id="clip-1"><rect x="399.9995" y="126.4995" width="400.001" height="400.001" id="clip-1" fill="none" stroke="none" stroke-width="1" stroke-linecap="butt" stroke-linejoin="miter"/></clipPath><clipPath id="clip-2"><rect x="399.9995" y="126.4995" width="400.001" height="400.001" id="clip-2" fill="none" stroke="none" stroke-width="1" stroke-linecap="butt" stroke-linejoin="miter"/></clipPath><clipPath id="clip-3"><rect x="699.99737" y="221.37357" transform="scale(0.57143,0.57143)" width="700" height="700" id="clip-3" fill="none" stroke="none" stroke-width="1" stroke-linecap="butt" stroke-linejoin="miter"/></clipPath><clipPath id="clip-4"><rect x="699.99737" y="221.37357" transform="scale(0.57143,0.57143)" width="700" height="700" id="clip-4" fill="none" stroke="none" stroke-width="1" stroke-linecap="butt" stroke-linejoin="miter"/></clipPath><clipPath id="clip-5"><rect x="699.99737" y="221.37357" transform="scale(0.57143,0.57143)" width="700" height="700" id="clip-5" fill="none" stroke="none" stroke-width="1" stroke-linecap="butt" stroke-linejoin="miter"/></clipPath><linearGradient x1="572.03101" y1="481.28758" x2="722.53679" y2="361.10759" gradientUnits="userSpaceOnUse" id="color-1"><stop offset="0" stop-color="#fc9fda" stop-opacity="0.97"/><stop offset="1" stop-color="#8cffd3" stop-opacity="0.76"/></linearGradient><linearGradient x1="404.67756" y1="197.12366" x2="769.71025" y2="388.06383" gradientUnits="userSpaceOnUse" id="color-2"><stop offset="0" stop-color="#8cffd3"/><stop offset="1" stop-color="#fc9fda"/></linearGradient><linearGradient x1="487.79271" y1="180.276" x2="554.06018" y2="472.30214" gradientUnits="userSpaceOnUse" id="color-3"><stop offset="0" stop-color="#8cffd3" stop-opacity="0.87"/><stop offset="1" stop-color="#fc9fda"/></linearGradient><linearGradient x1="531.00376" y1="439.60493" x2="616.14663" y2="359.0335" gradientUnits="userSpaceOnUse" id="color-4"><stop offset="0" stop-color="#0e0202"/><stop offset="1" stop-color="#000000"/></linearGradient><linearGradient x1="583.50014" y1="448.66481" x2="668.643" y2="368.09338" gradientUnits="userSpaceOnUse" id="color-5"><stop offset="0" stop-color="#0e0202"/><stop offset="1" stop-color="#000000"/></linearGradient></defs><g id="document" fill="none" stroke="#000000" stroke-width="0" stroke-linecap="butt" stroke-linejoin="miter" stroke-miterlimit="10" stroke-dasharray="" stroke-dashoffset="0" font-family="none" font-weight="none" font-size="none" text-anchor="none" style="mix-blend-mode: normal"><rect x="700" y="158.125" transform="scale(0.57143,0.8)" width="700" height="500" id="Shape 1 1" vector-effect="non-scaling-stroke"/></g><g fill="none" fill-rule="nonzero" stroke="none" stroke-width="none" stroke-linecap="none" stroke-linejoin="none" stroke-miterlimit="10" stroke-dasharray="" stroke-dashoffset="0" font-family="none" font-weight="none" font-size="none" text-anchor="none" style="mix-blend-mode: normal"><g><g id="stage"><g id="layer1 1"><g clip-path="url(#clip-1)" id="Group 1"><g id="Group 1" fill="none" stroke="#000000" stroke-width="0" stroke-linecap="butt" stroke-linejoin="miter"><rect x="700" y="158.125" transform="scale(0.57143,0.8)" width="700" height="500" id="Shape 1"/></g><g id="Group 1"><g id="Group 1"><g id="Group 1"><g id="Group 1"><g clip-path="url(#clip-2)" id="Group 1"><g id="Group 1" fill="none" stroke-opacity="0" stroke="#000000" stroke-width="0" stroke-linecap="butt" stroke-linejoin="miter"><rect x="700.00052" y="158.125" transform="scale(0.57143,0.8)" width="700" height="500" id="Shape 1"/></g><g id="Group 1"><g id="Group 1"><g id="Group 1"><g id="Group 1"><g clip-path="url(#clip-3)" id="Group 1"><g id="Group 1" fill-opacity="0" fill="#ffffff" stroke-opacity="0" stroke="#000000" stroke-width="0" stroke-linecap="butt" stroke-linejoin="miter"><rect x="699.99737" y="158.12372" transform="scale(0.57143,0.8)" width="700" height="500" id="Shape 1"/></g><g id="Group 1"><g id="Group 1"><g id="Group 1"><g id="Group 1"><g clip-path="url(#clip-4)" id="Group 1"><g id="Group 1" fill-opacity="0" fill="#ffffff" stroke-opacity="0" stroke="#000000" stroke-width="0" stroke-linecap="butt" stroke-linejoin="miter"><rect x="699.99737" y="158.12371" transform="scale(0.57143,0.8)" width="700" height="500" id="Shape 1"/></g><g id="Group 1"><g id="Group 1"><g id="Group 1"><g id="Group 1"><g clip-path="url(#clip-5)" id="Group 1"><g id="Group 1" fill-opacity="0" fill="#ffffff" stroke-opacity="0" stroke="#000000" stroke-width="0" stroke-linecap="butt" stroke-linejoin="miter"><rect x="699.99737" y="221.37357" transform="scale(0.57143,0.57143)" width="700" height="700" id="Shape 1"/></g><g id="Group 1" stroke-opacity="0" stroke="#000000" stroke-width="1" stroke-linecap="round" stroke-linejoin="round"><g id="Group 1"><g id="Group 1"><g id="Group 1"><path d="" id="Path 1" fill="none"/><path d="M555.65396,329.58799" id="Path 1" fill-opacity="0" fill="#ffffff"/><path d="M557.50191,493.72978l-58.79883,-135.80065l216.77326,17.97084l12.35495,149.51282z" id="Path 1" fill="url(#color-1)"/><path d="M401.0855,193.57181l123.92032,-65.98667l123.92032,65.98667l149.98702,210.59578l-273.90734,-12.63575l-100.00946,-53.25431z" id="Path 1" fill="url(#color-2)"/><path d="M560.04781,494.20334l-158.9623,-300.44921l124.46563,-65.87861z" id="Path 1" fill="url(#color-3)"/><path d="M589.86091,384.17636" id="Path 1" fill="url(#color-4)"/></g></g></g></g></g></g></g></g></g></g></g></g></g></g></g><path d="M475,451.5v-250h250v250z" id="Path 1" fill="#232222" stroke-opacity="0" stroke="#000000" stroke-width="1" stroke-linecap="round" stroke-linejoin="round"/><path d="M553.58827,336.503" id="Path 1" fill-opacity="0" fill="#ffffff" stroke-opacity="0" stroke="#000000" stroke-width="1" stroke-linecap="round" stroke-linejoin="round"/><path d="M514.27835,222.93725c3.93983,-1.65958 8.23962,-2.57243 12.74175,-2.57243c4.50213,0 8.80191,0.91283 12.74174,2.57243c12.65814,5.33202 21.60071,18.34629 21.60071,33.58751v78.53258c0,15.24121 -8.94257,28.28164 -21.60071,33.61366c-3.93983,1.65958 -8.23962,2.57243 -12.74175,2.57243c-4.50213,0 -8.80191,-0.91283 -12.74175,-2.57243c-12.65814,-5.33202 -21.60071,-18.37247 -21.60071,-33.61366v-78.50641c0,-15.24121 8.94257,-28.28164 21.60071,-33.61366z" id="Path 1" fill="#fffafa" stroke-opacity="0" stroke="#000000" stroke-width="1" stroke-linecap="round" stroke-linejoin="round"/><path d="M514.27835,335.05733v-33.61366v-11.27907v-33.61366c0,-7.92395 5.70467,-14.34756 12.74176,-14.34756c7.03707,0 12.74176,6.42361 12.74176,14.34756v33.61366v11.27907v33.61366c0,8.74365 -5.94732,15.8318 -12.74176,15.8318c-6.79442,0 -12.74176,-7.08814 -12.74176,-15.8318z" id="Path 1" fill="#232222" stroke-opacity="0" stroke="#000000" stroke-width="1" stroke-linecap="round" stroke-linejoin="round"/><path d="M643.31184,301.01588c1.10217,2.46123 2.03754,5.40852 2.75633,8.7131c1.02489,4.71179 1.60949,10.14998 1.60949,15.94128c0,12.37986 -2.67137,23.14597 -6.60451,28.65259c-4.2804,7.38522 -12.83972,12.42391 -22.70058,12.42391c-0.20836,0 -0.41851,0.15526 -0.62566,0.1508h-19.50443h-9.0447h-14.99545v-145.42312h5.34793h6.67213h12.02007h17.5473c0.8494,-0.07944 1.71103,-0.12011 2.58282,-0.12011c0.28621,0 0.57129,0.00439 0.85523,0.01308c12.25765,0.37557 22.33627,8.79466 24.37896,19.78768c1.34498,4.66106 2.12968,10.27071 2.12968,16.30679c0,13.47475 -3.91049,24.82436 -9.23493,28.23997c-1.53295,1.40166 -3.25984,2.6266 -5.14083,3.63847c2.4713,1.21522 4.72732,2.7994 6.69569,4.68032c1.97429,1.23382 3.76702,3.67127 5.25552,6.99523z" id="Path 1" fill-opacity="0.97" fill="#ffffff" stroke-opacity="0" stroke="#000000" stroke-width="1" stroke-linecap="round" stroke-linejoin="round"/><path d="M620.19143,269.79664c-1.22954,5.53584 -5.63251,12.95066 -10.80619,12.95066h-12.20908v-21.18042v-5.6831v-13.68044h12.20908c3.24414,0 6.16317,1.60867 8.19238,4.17344c1.94529,3.42571 1.33184,1.94696 1.8032,3.07273c0.7063,1.68688 1.10227,3.57965 1.10227,5.57931z" id="Path 1" fill="#232222" stroke-opacity="0" stroke="#000000" stroke-width="1" stroke-linecap="round" stroke-linejoin="round"/><path d="M623.89168,324.8361v11.35569c0,2.0238 -0.89682,4.57357 -1.81783,6.25605c-2.26704,3.59583 -6.42899,6.14537 -11.18792,6.14537h-13.70976v-15.98488v-27.81612h13.70976c5.51869,0 10.23458,3.83251 12.12356,8.60122c0.56963,1.43802 0.88221,3.00241 0.88221,4.63856z" id="Path 1" fill="#232222" stroke-opacity="0" stroke="#000000" stroke-width="1" stroke-linecap="round" stroke-linejoin="round"/><path d="M498.79196,432.63517v-16.12911h130.43v16.12911z" id="Path 1" fill="#ffffff" stroke-opacity="0" stroke="#000000" stroke-width="1" stroke-linecap="round" stroke-linejoin="round"/><path d="M642.35728,393.23624" id="Path 1" fill="url(#color-5)" stroke-opacity="0" stroke="#000000" stroke-width="1" stroke-linecap="round" stroke-linejoin="round"/></g></g></g></g></g></g></g></g></g></g></g></g></g></g></svg>