<svg version="1.1" xmlns="http://www.w3.org/2000/svg" xmlns:xlink="http://www.w3.org/1999/xlink" width="130" height="40" viewBox="-50,126.4995,1300,400.001"><defs><clipPath id="clip-1"><rect x="75.24894" y="221.37357" transform="scale(0.57143,0.57143)" width="700" height="700" id="clip-1" fill="none" stroke="none" stroke-width="1" stroke-linecap="butt" stroke-linejoin="miter"/></clipPath><clipPath id="clip-2"><rect x="75.24894" y="221.37357" transform="scale(0.57143,0.57143)" width="700" height="700" id="clip-2" fill="none" stroke="none" stroke-width="1" stroke-linecap="butt" stroke-linejoin="miter"/></clipPath><clipPath id="clip-3"><rect x="75.24894" y="221.37357" transform="scale(0.57143,0.57143)" width="700" height="700" id="clip-3" fill="none" stroke="none" stroke-width="1" stroke-linecap="butt" stroke-linejoin="miter"/></clipPath><linearGradient x1="215.03101" y1="481.28758" x2="365.53679" y2="361.10759" gradientUnits="userSpaceOnUse" id="color-1"><stop offset="0" stop-color="#fc9fda" stop-opacity="0.97"/><stop offset="1" stop-color="#8cffd3" stop-opacity="0.76"/></linearGradient><linearGradient x1="47.67755" y1="197.12366" x2="412.71025" y2="388.06383" gradientUnits="userSpaceOnUse" id="color-2"><stop offset="0" stop-color="#8cffd3"/><stop offset="1" stop-color="#fc9fda"/></linearGradient><linearGradient x1="130.79271" y1="180.276" x2="197.06017" y2="472.30214" gradientUnits="userSpaceOnUse" id="color-3"><stop offset="0" stop-color="#8cffd3" stop-opacity="0.87"/><stop offset="1" stop-color="#fc9fda"/></linearGradient><linearGradient x1="174.00376" y1="439.60493" x2="259.14662" y2="359.0335" gradientUnits="userSpaceOnUse" id="color-4"><stop offset="0" stop-color="#0e0202"/><stop offset="1" stop-color="#000000"/></linearGradient><linearGradient x1="216.06904" y1="448.66481" x2="301.2119" y2="368.09338" gradientUnits="userSpaceOnUse" id="color-5"><stop offset="0" stop-color="#0e0202"/><stop offset="1" stop-color="#000000"/></linearGradient><clipPath id="clip-4"><rect x="85.45415" y="94.44609" transform="scale(1.65928,2.32937)" width="53.517" height="61.819" id="clip-4" fill="none" fill-rule="nonzero" stroke="none" stroke-width="1" stroke-linecap="butt"/></clipPath><clipPath id="clip-5"><rect x="148.46132" y="92.80287" transform="scale(1.68244,2.37063)" width="40.239" height="60.743" id="clip-5" fill="none" fill-rule="nonzero" stroke="none" stroke-width="1" stroke-linecap="butt"/></clipPath><clipPath id="clip-6"><rect x="307.13527" y="106.76695" transform="scale(1.64414,2.33793)" width="329.688" height="65.773" id="clip-6" fill="none" fill-rule="nonzero" stroke="none" stroke-width="1" stroke-linecap="butt"/></clipPath></defs><g id="document" fill-opacity="0" fill="#ffffff" fill-rule="nonzero" stroke="#000000" stroke-width="0" stroke-linecap="butt" stroke-linejoin="miter" stroke-miterlimit="10" stroke-dasharray="" stroke-dashoffset="0" font-family="none" font-weight="none" font-size="none" text-anchor="none" style="mix-blend-mode: normal"><rect x="-26.92308" y="158.125" transform="scale(1.85714,0.8)" width="700" height="500" id="Shape 1 1" vector-effect="non-scaling-stroke"/></g><g fill="none" fill-rule="none" stroke="none" stroke-width="none" stroke-linecap="none" stroke-linejoin="none" stroke-miterlimit="10" stroke-dasharray="" stroke-dashoffset="0" font-family="none" font-weight="none" font-size="none" text-anchor="none" style="mix-blend-mode: normal"><g><g id="stage"><g id="layer1 1"><g clip-path="url(#clip-1)" id="Group 1" fill-rule="nonzero"><g id="Group 1" fill-opacity="0" fill="#ffffff" stroke="#000000" stroke-width="0" stroke-linecap="butt" stroke-linejoin="miter"><rect x="75.24894" y="158.12372" transform="scale(0.57143,0.8)" width="700" height="500" id="Shape 1"/></g><g id="Group 1"><g id="Group 1"><g id="Group 1"><g id="Group 1"><g clip-path="url(#clip-2)" id="Group 1"><g id="Group 1" fill-opacity="0" fill="#ffffff" stroke="#000000" stroke-width="0" stroke-linecap="butt" stroke-linejoin="miter"><rect x="75.24894" y="158.12371" transform="scale(0.57143,0.8)" width="700" height="500" id="Shape 1"/></g><g id="Group 1"><g id="Group 1"><g id="Group 1"><g id="Group 1"><g clip-path="url(#clip-3)" id="Group 1"><g id="Group 1" fill-opacity="0" fill="#ffffff" stroke="#000000" stroke-width="0" stroke-linecap="butt" stroke-linejoin="miter"><rect x="75.24894" y="221.37357" transform="scale(0.57143,0.57143)" width="700" height="700" id="Shape 1"/></g><g id="Group 1" stroke-width="1" stroke-linecap="round" stroke-linejoin="round"><g id="Group 1"><g id="Group 1"><g id="Group 1"><path d="" id="Path 1" fill="none" stroke="#000000"/><path d="M198.65396,329.58799" id="Path 1" fill-opacity="0" fill="#ffffff" stroke-opacity="0" stroke="#000000"/><path d="M200.5019,493.72978l-58.79883,-135.80065l216.77326,17.97084l12.35495,149.51282z" id="Path 1" fill="url(#color-1)" stroke-opacity="0" stroke="#000000"/><path d="M44.0855,193.57181l123.92032,-65.98667l123.92032,65.98667l149.98702,210.59578l-273.90734,-12.63575l-100.00946,-53.25431z" id="Path 1" fill="url(#color-2)" stroke-opacity="0" stroke="#000000"/><path d="M203.04781,494.20334l-158.9623,-300.44921l124.46563,-65.87861z" id="Path 1" fill="url(#color-3)" stroke-opacity="0" stroke="#000000"/><path d="M232.86091,384.17636" id="Path 1" fill="url(#color-4)" stroke="#000000"/></g></g></g></g></g></g></g></g></g></g></g></g></g></g></g><path d="M118,451.5v-250h250v250z" id="Path 1" fill="#232222" fill-rule="nonzero" stroke-opacity="0" stroke="#000000" stroke-width="1" stroke-linecap="round" stroke-linejoin="round"/><path d="M141.79196,432.63517v-12.12911h130.43v12.12911z" id="Path 1" fill="#ffffff" fill-rule="nonzero" stroke-opacity="0" stroke="#000000" stroke-width="1" stroke-linecap="round" stroke-linejoin="round"/><path d="M274.92618,393.23624" id="Path 1" fill="url(#color-5)" fill-rule="nonzero" stroke="#000000" stroke-width="1" stroke-linecap="round" stroke-linejoin="round"/><g clip-path="url(#clip-4)" id="Group 1" stroke-linejoin="miter"><g id="Group 1" fill="#ffffff" fill-rule="evenodd" stroke="#000000" stroke-width="0.25" stroke-linecap="round"><path d="M186.1112,363.99767c-14.42131,0 -25.41291,-6.14256 -32.97478,-18.42769c-5.94684,-9.65914 -9.55521,-22.83564 -10.82511,-39.52949c-0.35395,-4.77759 -0.52675,-9.57822 -0.51769,-14.38156c-0.02725,-6.6804 0.32341,-13.35329 1.04866,-19.95576c0.79866,-6.98191 2.05252,-13.2689 3.76158,-18.86095c1.59953,-5.34825 3.79016,-10.30869 6.49109,-14.69836c4.94521,-7.84888 11.49447,-13.36555 18.75479,-15.79782c4.00217,-1.45198 8.39261,-2.22921 13.17133,-2.3317c0.36336,-0.00776 0.72675,-0.01165 1.09014,-0.01165c4.43062,-0.05038 8.85101,0.60526 13.17631,1.95435c6.13821,1.98929 11.40033,5.4981 15.78635,10.52645c1.50074,1.72138 2.89712,3.61468 4.17474,5.66038c5.94574,9.51161 9.55411,22.57475 10.82511,39.1894c0.35409,4.75888 0.5269,9.54091 0.51769,14.32566c0.02796,6.82903 -0.33828,13.65002 -1.09512,20.39601c-0.83406,7.15429 -2.14655,13.58957 -3.93746,19.30586c-1.58492,5.15311 -3.71204,9.94291 -6.31022,14.20919c-5.07612,8.15879 -11.86426,13.84797 -19.38863,16.24972c-3.91036,1.36035 -8.18299,2.08324 -12.8179,2.16865c-0.31027,0.00595 -0.62056,0.00906 -0.93085,0.00932zM186.1112,348.64243c10.15476,0 17.93234,-4.87228 23.33273,-14.61683c2.39088,-4.41279 4.21624,-9.37626 5.3943,-14.66807c1.04424,-4.49259 1.78649,-9.47357 2.22675,-14.94294c0.33042,-4.23588 0.49107,-8.49448 0.48119,-12.75566c0.01944,-5.23861 -0.23065,-10.47236 -0.74833,-15.66039c-1.13826,-10.96049 -3.57574,-19.74922 -7.31243,-26.3662c-4.114,-7.28607 -10.04517,-12.10745 -16.59441,-13.48941c-2.23953,-0.53625 -4.50795,-0.7989 -6.7798,-0.785c-3.2461,-0.04388 -6.48174,0.52333 -9.62048,1.68647c-5.40416,1.98497 -10.19401,6.40777 -13.63261,12.58794c-2.35113,4.28828 -4.1462,9.12408 -5.30304,14.28606c-1.0188,4.34506 -1.75109,9.1723 -2.19688,14.48172c-0.35791,4.40153 -0.53188,8.82871 -0.52101,13.2588c-0.0188,5.26628 0.23017,10.52773 0.74501,15.74425c0.54867,5.34669 1.40043,10.19024 2.55528,14.53064c1.12856,4.36073 2.72008,8.45699 4.72064,12.15002c5.34729,9.70573 13.09832,14.55859 23.25308,14.55859z" id="CompoundPath 1"/></g></g><g clip-path="url(#clip-5)" id="Group 1" stroke-linejoin="miter"><g id="Group 1" fill="#ffffff" fill-rule="evenodd" stroke="#000000" stroke-width="0.25" stroke-linecap="round"><path d="M249.77712,357.86482v-131.72864c0,-2.16043 0.35612,-3.72267 1.06835,-4.68673c0.32244,-0.42676 0.70389,-0.75521 1.1205,-0.96485c0.33424,-0.17543 0.70999,-0.30344 1.12723,-0.38404c0.37149,-0.06864 0.74584,-0.10191 1.1205,-0.09957h26.12323c2.61798,-0.0143 5.23375,0.21615 7.83007,0.68985c2.71882,0.51206 5.22509,1.30938 7.51882,2.39196c0.8958,0.42222 1.77772,0.90077 2.64311,1.43423c2.14689,1.30047 4.16795,2.97965 6.01472,4.99728c1.96552,2.15742 3.65392,4.77379 4.9918,7.73536c2.46533,5.47773 3.698,11.84365 3.698,19.09777c-0.01185,3.7948 -0.52771,7.55295 -1.52092,11.08031c-0.21406,0.77438 -0.44694,1.53817 -0.69821,2.29003c-1.42156,4.32711 -3.4306,8.2202 -5.91377,11.45961c-1.16477,1.53073 -2.44617,2.87516 -3.82082,4.00873c-1.27627,1.04785 -2.64299,1.85975 -4.06646,2.41567v0.81075c0.0009,-0.07279 0.04256,-0.13149 0.09422,-0.13276c0.40379,-0.11221 2.10081,0.84473 5.09106,2.87083c0.1611,0.10941 0.32205,0.21925 0.48286,0.32952c3.77988,2.58398 7.18906,6.40385 10.22755,11.45961c3.03961,5.05418 4.55941,11.59395 4.55941,19.61931c0.10317,6.38685 -0.75999,12.73146 -2.53207,18.61179c-4.10739,12.85512 -13.20883,20.28072 -27.3043,22.27678c-2.75209,0.3777 -5.51586,0.56126 -8.28096,0.54999h-25.13732c-0.93768,0 -1.7217,-0.18728 -2.35205,-0.56184c-0.3789,-0.21772 -0.72407,-0.53739 -1.01619,-0.94114c-0.34716,-0.50038 -0.60944,-1.10498 -0.76719,-1.76849c-0.20077,-0.80127 -0.30116,-1.75505 -0.30116,-2.86135zM262.67469,348.37283h21.35856c1.95988,0.01867 3.91618,-0.23863 5.83975,-0.76808c2.34756,-0.6701 4.4265,-1.77955 6.2368,-3.32836c1.00695,-0.85984 1.94356,-1.87348 2.79285,-3.02255c2.48953,-3.4007 4.16548,-7.80961 4.79495,-12.61411c0.31744,-2.26955 0.47244,-4.57825 0.46267,-6.89141c0.01943,-2.61411 -0.24207,-5.21731 -0.7756,-7.72113c-0.87234,-3.99926 -2.61218,-7.51279 -4.97497,-10.04672c-3.83372,-4.20549 -9.47437,-6.30824 -16.92197,-6.30824h-18.81303zM262.67469,282.04505h17.00609c2.05618,0.01636 4.10606,-0.32199 6.10389,-1.00752c1.46637,-0.51067 2.88991,-1.2402 4.24648,-2.17624c1.7296,-1.17475 3.32298,-2.71174 4.72597,-4.55872c0.92932,-1.23747 1.75516,-2.62063 2.46141,-4.12252c1.71365,-3.6116 2.61536,-7.86686 2.58759,-12.2111c0.01178,-2.12459 -0.1337,-4.24513 -0.43407,-6.3272c-0.39369,-2.62033 -1.05545,-4.90483 -1.98528,-6.85348c-0.68685,-1.44041 -1.53387,-2.71555 -2.50852,-3.77641c-1.28749,-1.36542 -2.72319,-2.42854 -4.25152,-3.14819c-3.02166,-1.49033 -6.86211,-2.2355 -11.52134,-2.2355h-16.4307z" id="CompoundPath 1"/></g></g><g clip-path="url(#clip-6)" id="Group 1" stroke-linejoin="miter"><g id="Group 1" fill="#000000" fill-rule="evenodd" stroke="#000000" stroke-width="0.25" stroke-linecap="round"><path d="M613.43263,398.13327v-71.23444c0.00116,-2.05375 -0.01747,-4.10743 -0.0559,-6.16045c-0.11071,-5.70144 -0.38637,-10.02193 -0.827,-12.96149c-0.56229,-3.74069 -0.85605,-5.86977 -0.88126,-6.38723c-0.0016,-0.02098 -0.0027,-0.04204 -0.00329,-0.06312c0,-1.34197 0.57654,-2.37846 1.72963,-3.10945c0.31152,-0.19434 0.6324,-0.35685 0.96018,-0.48629c0.96259,-0.39297 1.94398,-0.68598 2.93643,-0.87672c0.7167,-0.13652 1.43893,-0.20603 2.16204,-0.20808c1.33723,0 2.327,1.02791 2.96931,3.08373c0.64231,2.05426 1.11089,4.14671 1.40574,6.27735c0.05916,0.43034 0.1189,0.86052 0.17921,1.29054c0.19839,1.40432 0.33924,2.34417 0.42254,2.81955c2.99781,-4.79432 6.4631,-8.52332 10.39587,-11.187c2.52445,-1.73697 5.21437,-2.93819 7.98393,-3.56535c1.30292,-0.28616 2.61934,-0.42998 3.93771,-0.43018c2.33365,-0.02574 4.662,0.32009 6.94154,1.03103c4.05882,1.31392 7.4315,3.88097 10.11802,7.70115c4.095,5.82301 6.14249,13.83354 6.14249,24.0316v70.43487c0.00461,0.50091 -0.05386,0.99894 -0.17263,1.47056c-0.18853,0.72164 -0.5316,1.30768 -1.02923,1.75812c-0.05333,0.04816 -0.10761,0.09416 -0.16277,0.13794c-0.77055,0.61254 -1.92528,0.96557 -3.4642,1.05908c-0.2903,0.0174 -0.58083,0.02597 -0.87139,0.02572h-0.64286c-0.4955,0.00191 -0.99083,-0.02617 -1.48466,-0.08417c-1.18926,-0.14495 -2.11272,-0.4785 -2.77037,-1.00063c-0.33257,-0.25581 -0.62423,-0.60687 -0.8566,-1.03103c-0.27512,-0.51123 -0.43844,-1.12143 -0.48995,-1.8306c-0.01211,-0.16778 -0.01814,-0.33633 -0.01809,-0.50499v-68.7235c0,-5.90406 -1.13774,-10.56511 -3.41323,-13.98317c-0.12988,-0.19553 -0.26309,-0.38652 -0.39953,-0.57279c-1.52147,-2.03661 -3.3779,-3.49799 -5.39934,-4.25036c-1.58604,-0.62812 -3.35897,-0.94219 -5.31878,-0.94219c-3.21045,0 -6.4346,1.27417 -9.67245,3.82252c-3.28226,2.60401 -6.1412,6.1635 -8.39003,10.44588v74.20361c0.00461,0.50091 -0.05386,0.99894 -0.17263,1.47056c-0.18853,0.72164 -0.5316,1.30768 -1.02923,1.75812c-0.05333,0.04816 -0.10761,0.09416 -0.16277,0.13794c-0.90976,0.7232 -2.3281,1.0848 -4.25502,1.0848h-0.56229c-0.50088,0.0018 -1.00162,-0.02393 -1.5011,-0.07715c-0.97552,-0.10754 -1.77348,-0.32965 -2.39386,-0.66631c-0.17875,-0.09578 -0.35239,-0.20986 -0.51955,-0.34134c-0.33316,-0.25555 -0.6254,-0.60662 -0.85824,-1.03103c-0.27512,-0.51123 -0.43789,-1.12143 -0.48831,-1.8306c-0.01211,-0.16778 -0.01814,-0.33633 -0.01809,-0.50499zM1033.29739,305.2075v-51.14225c0,-2.96761 1.87322,-4.45142 5.61966,-4.45142h0.64121c0.64781,-0.00545 1.29523,0.04687 1.93844,0.15664c1.33504,0.24159 2.31494,0.75983 2.93972,1.55472c0.54677,0.69424 0.84803,1.69837 0.82207,2.74006v118.15439c-0.00116,2.05375 0.01747,4.10743 0.0559,6.16045c0.10961,5.69988 0.38528,10.0196 0.827,12.95916c0.56229,3.74069 0.85605,5.86977 0.88126,6.38723c0.00106,0.02101 0.0016,0.04206 0.00164,0.06312c0,1.34197 -0.576,2.37846 -1.72799,3.10945c-0.31152,0.19434 -0.6324,0.35685 -0.96018,0.48629c-0.85365,0.34821 -1.72181,0.61994 -2.59938,0.8136c-0.80023,0.17678 -1.6087,0.26743 -2.41852,0.2712c-0.84307,0.01765 -1.64642,-0.5084 -2.18506,-1.43081c-0.14153,-0.2317 -0.27016,-0.4787 -0.38473,-0.73879c-0.38162,-0.85191 -0.70271,-1.75569 -0.95853,-2.69797c-0.14901,-0.55315 -0.27097,-1.12028 -0.365,-1.69734c-0.07106,-0.43828 -0.14066,-0.87704 -0.20881,-1.31626c-0.21045,-1.35912 -0.48776,-3.20608 -0.83193,-5.5409c-0.04118,-0.28209 -0.08228,-0.5642 -0.12331,-0.84633c-6.79686,10.12169 -14.3703,15.18253 -22.72032,15.18253c-3.20236,0.04587 -6.37914,-0.81484 -9.34527,-2.53198c-1.88426,-1.11747 -3.65483,-2.58863 -5.26452,-4.37427c-2.81406,-3.14202 -5.18633,-7.01027 -6.99251,-11.40209c-1.04225,-2.50339 -1.93909,-5.12356 -2.68159,-7.83441c-1.42611,-5.23078 -2.39732,-10.6898 -2.89204,-16.25564c-0.35336,-3.88396 -0.52692,-7.79673 -0.51955,-11.71304c-0.01236,-4.40974 0.18869,-8.81546 0.60175,-13.18593c0.45926,-4.70704 1.18049,-9.05793 2.16368,-13.05267c0.27086,-1.10338 0.56641,-2.19419 0.88619,-3.27077c1.00721,-3.44839 2.29396,-6.71789 3.83413,-9.74216c1.75629,-3.44512 3.92307,-6.42655 6.40227,-8.80933c3.95973,-3.75169 8.5642,-5.89619 13.3175,-6.20253c0.61756,-0.05026 1.23601,-0.07521 1.85459,-0.07481c1.89493,-0.01158 3.78743,0.19405 5.65912,0.61488c1.81062,0.40698 3.58654,1.08082 5.29905,2.01062c2.16906,1.20574 4.25139,2.70583 6.21812,4.47948c1.10407,0.98851 2.17708,2.04549 3.21593,3.1679zM900.83425,336.03079v-9.5902c0.0145,-1.93803 -0.18864,-3.86693 -0.60175,-5.7139c-0.58443,-2.53549 -1.63788,-4.80064 -3.04987,-6.5579c-2.28316,-2.88968 -5.94301,-4.42415 -10.97954,-4.60339c-0.34082,-0.01233 -0.68173,-0.01856 -1.02265,-0.0187c-1.7539,-0.00741 -3.50666,0.12763 -5.24973,0.40446c-2.12203,0.34601 -4.07855,0.91491 -5.86957,1.70669c-2.65436,1.16469 -5.24895,2.58876 -7.76526,4.26205c-0.39744,0.26597 -0.79261,0.53875 -1.18542,0.81828c-0.20396,0.14553 -0.40894,0.28815 -0.61491,0.42784c-0.79686,0.53772 -1.30873,0.8136 -1.53562,0.82763c-0.00603,0.00019 -0.01206,0.00019 -0.01809,0c-0.24962,-0.00682 -0.49483,-0.09479 -0.71684,-0.25717c-0.44282,-0.30705 -0.9125,-0.88686 -1.40902,-1.73942c-0.77603,-1.33262 -1.4452,-2.83591 -2.00749,-4.50987c-0.56229,-1.67396 -0.84344,-2.89124 -0.84344,-3.65185c0.01225,-0.61783 0.14798,-1.21792 0.3913,-1.73007c0.54257,-1.22975 1.64742,-2.5273 3.31458,-3.89266c0.03557,-0.02897 0.07119,-0.0578 0.10687,-0.0865c1.07593,-0.85872 2.19221,-1.61098 3.34089,-2.25143c1.17282,-0.66397 2.4547,-1.28041 3.84564,-1.8493c0.93032,-0.37886 1.86723,-0.72421 2.80983,-1.0357c3.96422,-1.30188 8.01605,-1.98857 12.0844,-2.04803c0.28004,-0.00502 0.56009,-0.00735 0.84015,-0.00701c2.69941,-0.02181 5.39552,0.27141 8.0612,0.87672c5.1604,1.21728 9.40391,3.7025 12.73055,7.45566c4.92474,5.55648 7.3871,13.35738 7.3871,23.4027v45.54992c0,6.65531 0.15948,11.91566 0.47844,15.78104c0.08852,1.11954 0.20974,2.23335 0.36335,3.33857c0.0662,0.46201 0.13196,0.92414 0.1973,1.38639c0.43076,3.04243 0.64615,4.73042 0.64615,5.06396c0,1.34197 -0.57654,2.37846 -1.72963,3.10945c-0.31152,0.19434 -0.6324,0.35685 -0.96018,0.48629c-0.85365,0.34821 -1.72181,0.61994 -2.59938,0.8136c-0.80023,0.17678 -1.6087,0.26743 -2.41852,0.2712c-1.27256,0 -2.21684,-1.00999 -2.83285,-3.02996c-0.00552,-0.01712 -0.011,-0.03426 -0.01644,-0.05143c-0.55572,-1.85632 -1.10048,-4.45766 -1.63427,-7.80402c-0.05893,-0.36661 -0.11648,-0.73367 -0.17263,-1.10117l-0.32061,-2.28182c-2.92355,4.62075 -6.45534,8.38239 -10.39587,11.07244c-2.83876,1.92392 -5.87925,3.17636 -9.00165,3.70796c-1.52759,0.27183 -3.06573,0.40614 -4.60523,0.40212c-2.52854,0.0242 -5.05187,-0.32921 -7.5285,-1.05441c-3.92839,-1.18923 -7.30654,-3.38766 -10.13446,-6.59531c-4.49507,-5.09825 -6.7426,-12.67081 -6.7426,-22.71768c-0.01904,-3.18421 0.22152,-6.36083 0.71684,-9.46629c0.76288,-4.59949 2.13519,-8.50072 4.11692,-11.70369c0.6115,-0.98767 1.27668,-1.90541 1.98941,-2.74473c3.58197,-4.18104 7.74406,-7.24023 12.21429,-8.97766c1.46201,-0.58578 2.94563,-1.05642 4.4441,-1.40977c2.64387,-0.61981 5.30178,-1.11184 7.96913,-1.47523c4.75594,-0.66241 10.06047,-1.06532 15.9136,-1.20871zM694.4343,396.19045v-129.90951c0,-2.13064 0.34801,-3.67133 1.04403,-4.62209c0.3151,-0.42087 0.68787,-0.7448 1.09499,-0.95154c0.32664,-0.17301 0.69383,-0.29926 1.10157,-0.37874c0.36303,-0.0677 0.72886,-0.1005 1.09499,-0.09819h25.52851c2.55838,-0.01411 5.1146,0.21317 7.65181,0.68034c2.65692,0.50499 5.10614,1.29132 7.34765,2.35897c0.87537,0.41563 1.73722,0.8868 2.58294,1.41211c2.09867,1.28309 4.07428,2.9399 5.87943,4.9307c1.92077,2.12767 3.57073,4.70795 4.87815,7.62867c2.40811,5.40218 3.61217,11.68031 3.61217,18.83438c-0.01158,3.74247 -0.51569,7.44878 -1.4863,10.92749c-0.20865,0.76367 -0.43567,1.51693 -0.68067,2.25844c-1.38968,4.26763 -3.35355,8.10704 -5.78078,11.30156c-1.13825,1.50962 -2.39048,2.8355 -3.73383,3.95344c-1.24721,1.0334 -2.58282,1.83411 -3.97388,2.38235v0.79957c0.00088,-0.07178 0.04159,-0.12968 0.09207,-0.13092c0.39459,-0.11066 2.05298,0.83308 4.97516,2.83124c0.15798,0.1079 0.31582,0.21623 0.47351,0.32497c3.69273,2.54835 7.0243,6.31553 9.99471,11.30156c2.97041,4.98447 4.45561,11.43404 4.45561,19.34872c0.1003,6.29894 -0.74377,12.55604 -2.47607,18.3551c-4.01388,12.67782 -12.90811,20.00101 -26.68269,21.96954c-2.68944,0.37249 -5.39029,0.55351 -8.09244,0.5424h-24.56504c-0.91633,0 -1.6825,-0.1847 -2.2985,-0.55409c-0.37028,-0.21472 -0.70758,-0.52998 -0.99306,-0.92816c-0.33925,-0.49348 -0.59557,-1.08974 -0.74973,-1.7441c-0.1962,-0.79022 -0.2943,-1.73163 -0.2943,-2.82422zM548.88712,403.38426c-14.28974,0 -25.18104,-6.16513 -32.67392,-18.49538c-5.89258,-9.69462 -9.46803,-22.91874 -10.72635,-39.67236c-0.35077,-4.79592 -0.52201,-9.61496 -0.51297,-14.43673c-0.027,-6.70494 0.32045,-13.40234 1.03909,-20.02906c0.79138,-7.00756 2.0338,-13.31764 3.72726,-18.93023c1.58494,-5.36789 3.75558,-10.34656 6.43186,-14.75235c4.90009,-7.87771 11.3896,-13.41465 18.58367,-15.85585c3.96566,-1.45731 8.31604,-2.2374 13.05115,-2.34027c0.36004,-0.00779 0.72012,-0.01169 1.0802,-0.01169c4.3902,-0.05057 8.77025,0.60749 13.05609,1.96152c6.08221,1.99659 11.29631,5.5183 15.64231,10.56511c1.48705,1.72771 2.87068,3.62796 4.13665,5.68117c5.89149,9.54655 9.46694,22.65767 10.72635,39.33336c0.35086,4.77636 0.52209,9.57595 0.51297,14.37828c0.0277,6.85412 -0.33519,13.70016 -1.08513,20.47093c-0.82645,7.18057 -2.12696,13.63949 -3.90154,19.37678c-1.57046,5.17204 -3.67817,9.97943 -6.25265,14.26138c-5.0298,8.18876 -11.75602,13.89884 -19.21173,16.30941c-3.87468,1.36535 -8.10833,2.09089 -12.70095,2.17661c-0.30744,0.00597 -0.6149,0.00909 -0.92236,0.00935zM548.88712,387.97262c10.06211,0 17.76873,-4.89017 23.11985,-14.67052c2.36907,-4.429 4.17777,-9.41071 5.34509,-14.72196c1.03471,-4.50909 1.77019,-9.50837 2.20643,-14.99783c0.3274,-4.25144 0.48659,-8.52568 0.4768,-12.80251c0.01926,-5.25786 -0.22855,-10.51083 -0.74151,-15.71791c-1.12788,-11.00075 -3.54311,-19.82176 -7.24571,-26.46305c-4.07646,-7.31283 -9.95352,-12.15192 -16.44301,-13.53896c-2.21909,-0.53822 -4.46682,-0.80183 -6.71794,-0.78788c-3.21648,-0.04404 -6.4226,0.52525 -9.5327,1.69266c-5.35485,1.99226 -10.101,6.43131 -13.50822,12.63418c-2.32968,4.30403 -4.10837,9.1576 -5.25466,14.33853c-1.0095,4.36102 -1.73511,9.206 -2.17684,14.53492c-0.35464,4.4177 -0.52702,8.86114 -0.51626,13.30751c-0.01863,5.28563 0.22807,10.5664 0.73822,15.80208c0.54366,5.36633 1.38765,10.22767 2.53197,14.58402c1.11827,4.37675 2.69526,8.48805 4.67757,12.19465c5.2985,9.74138 12.97881,14.61207 23.04093,14.61207zM796.42008,401.90201c3.20437,1.02262 6.48056,1.51994 9.76453,1.48225c3.68177,0 7.05499,-0.5463 10.11966,-1.63889c5.47783,-1.78759 10.41199,-6.01277 14.08532,-12.06139c3.78151,-6.29527 6.25978,-14.5996 7.43478,-24.913c0.54888,-5.01323 0.81444,-10.08093 0.79412,-15.15447c0.00516,-3.38337 -0.10733,-6.76503 -0.33705,-10.1326c-0.37377,-5.35075 -1.05882,-10.24014 -2.05517,-14.66818c-1.23782,-5.76654 -3.26249,-11.1298 -5.95835,-15.78338c-5.56595,-9.39849 -13.59372,-14.09773 -24.08331,-14.09773c-2.80733,-0.02358 -5.60925,0.35315 -8.36372,1.12455c-6.26722,1.61761 -11.95649,6.23601 -16.1224,13.08774c-1.7355,2.88908 -3.19751,6.08885 -4.34874,9.51772c-2.82682,8.33551 -4.24023,18.6528 -4.24023,30.95188c0,9.29873 0.79686,17.42149 2.39057,24.36826c1.2565,5.74815 3.32484,11.07115 6.07837,15.6431c0.77836,1.26514 1.61545,2.45469 2.50566,3.56067c3.38692,4.20672 7.49891,7.11121 12.33596,8.71347zM937.12198,398.13327v-71.23444c0.00116,-2.05375 -0.01747,-4.10743 -0.0559,-6.16045c-0.11071,-5.70144 -0.38637,-10.02193 -0.827,-12.96149c-0.56229,-3.74069 -0.85605,-5.86977 -0.88126,-6.38723c-0.0016,-0.02098 -0.0027,-0.04204 -0.00329,-0.06312c0,-1.34197 0.57654,-2.37846 1.72963,-3.10945c0.31152,-0.19434 0.6324,-0.35685 0.96018,-0.48629c0.96259,-0.39297 1.94398,-0.68598 2.93643,-0.87672c0.7167,-0.13652 1.43893,-0.20603 2.16204,-0.20808c0.91749,-0.02788 1.78808,0.57543 2.33796,1.62019c0.21825,0.39872 0.40361,0.83173 0.55243,1.29054c0.61271,1.8532 1.15254,4.41635 1.61947,7.68946c0.0223,0.15809 0.04422,0.31629 0.06577,0.4746l0.40117,2.39638c1.23684,-2.497 2.62307,-4.8374 4.14322,-6.99509c1.67592,-2.34572 3.39459,-4.18724 5.15601,-5.52453c2.21918,-1.73196 4.7077,-2.64736 7.23913,-2.6629c0.75338,-0.0045 1.50622,0.05796 2.25411,0.18703c1.63975,0.29302 2.94848,0.93439 3.9262,1.92412c1.36573,1.3825 2.06175,3.22245 2.08805,5.51986c0.00024,0.04364 0.00024,0.08728 0,0.13092c-0.0041,1.45203 -0.10874,2.89996 -0.31239,4.32284c-0.14011,0.98849 -0.31738,1.96559 -0.53106,2.92709c-0.09554,0.43965 -0.20415,0.87333 -0.32554,1.29989c-0.41103,1.42614 -0.86646,2.24753 -1.36628,2.46418c-0.08887,0.03965 -0.18143,0.06014 -0.27457,0.06079c-0.34746,0 -0.94757,-0.19639 -1.80033,-0.58916c-0.06915,-0.03151 -0.13821,-0.06346 -0.20716,-0.09586c-0.85605,-0.53305 -1.71209,-0.93283 -2.56814,-1.19936c-0.33575,-0.10246 -0.67486,-0.18127 -1.01608,-0.23613c-0.65985,-0.1091 -1.41834,-0.16366 -2.27548,-0.16366c-2.07183,0.00562 -4.10074,0.84011 -5.85477,2.40807c-0.12347,0.10782 -0.2457,0.2185 -0.36664,0.33199c-1.95433,1.8267 -3.60011,3.84356 -4.93734,6.05057c-0.1574,0.25948 -0.31414,0.51978 -0.47022,0.78087c-1.02485,1.71448 -1.53727,2.67148 -1.53727,2.87098v74.20361c0.00461,0.50091 -0.05386,0.99894 -0.17263,1.47056c-0.18853,0.72164 -0.5316,1.30768 -1.02923,1.75812c-0.05333,0.04816 -0.10761,0.09416 -0.16277,0.13794c-0.90976,0.7232 -2.3281,1.0848 -4.25502,1.0848h-0.56229c-0.50088,0.0018 -1.00162,-0.02393 -1.5011,-0.07715c-0.97552,-0.10754 -1.77348,-0.32965 -2.39386,-0.66631c-0.17875,-0.09578 -0.35239,-0.20986 -0.51955,-0.34134c-0.33316,-0.25555 -0.6254,-0.60662 -0.85824,-1.03103c-0.27512,-0.51123 -0.43789,-1.12143 -0.48831,-1.8306c-0.01211,-0.16778 -0.01814,-0.33633 -0.01809,-0.50499zM805.78344,388.77219c2.01576,0.02535 4.02646,-0.29094 5.98959,-0.94219c3.78072,-1.17694 7.13077,-4.27102 9.42419,-8.70412c3.1414,-6.08953 4.79595,-15.33371 4.96365,-27.73255c0.00915,-0.70676 0.01353,-1.41363 0.01315,-2.1205c0.0106,-3.53802 -0.1206,-7.07403 -0.39295,-10.59083c-0.60723,-7.51723 -1.91651,-13.5374 -3.92784,-18.06052c-0.20795,-0.46763 -0.42674,-0.92534 -0.65601,-1.37237c-2.34691,-4.56113 -5.80474,-7.7152 -9.69876,-8.84673c-1.87627,-0.59034 -3.79343,-0.87739 -5.71502,-0.85568c-1.99949,-0.02565 -3.99389,0.29069 -5.94026,0.94219c-3.74935,1.18061 -7.06325,4.27805 -9.31239,8.70412c-3.0559,6.01784 -4.68195,15.18487 -4.87815,27.50109c-0.01342,0.85945 -0.01999,1.71908 -0.01973,2.57874c-0.01004,3.53458 0.1184,7.06721 0.38473,10.58148c0.65437,8.29031 2.14505,14.73287 4.47205,19.32768c2.24848,4.41558 5.56389,7.49583 9.31074,8.65035c1.79869,0.62189 3.77603,0.93517 5.93204,0.93985c0.01699,0.00002 0.03398,0.00002 0.05097,0zM1033.29739,374.61601v-55.59368c-4.89346,-5.96243 -11.13841,-9.20677 -17.58239,-9.1343c-2.03778,0.04456 -4.06132,0.49148 -6.01261,1.32795c-3.39403,1.45971 -6.34878,4.48729 -8.3966,8.60359c-2.36098,4.66184 -3.86153,10.86125 -4.50165,18.59825c-0.24498,3.07361 -0.36356,6.16494 -0.35513,9.25821c0,8.44305 0.62861,15.6431 1.88582,21.60015c0.62212,3.04888 1.51204,5.97409 2.6487,8.70646c1.00862,2.44624 2.31848,4.61452 3.86701,6.40126c2.33139,2.62628 5.11381,4.04228 8.34728,4.24802c0.27714,0.01737 0.55452,0.02594 0.83193,0.02572c1.95162,-0.01726 3.89034,-0.45151 5.75119,-1.2882c1.405,-0.62468 2.7706,-1.41613 4.08239,-2.36599c2.51863,-1.82462 4.85156,-4.12665 6.93497,-6.84313c0.87119,-1.12576 1.70511,-2.30847 2.49909,-3.5443zM707.03825,386.83171h20.87396c1.91471,0.01826 3.82592,-0.2355 5.70515,-0.75749c2.29412,-0.66086 4.32572,-1.75501 6.09481,-3.28246c0.98403,-0.84798 1.89931,-1.84764 2.72927,-2.98086c2.43315,-3.35442 4.07097,-7.70341 4.68579,-12.44247c0.3101,-2.23748 0.46158,-4.51355 0.45214,-6.79403c0.01952,-2.57794 -0.23547,-5.14523 -0.7563,-7.61464c-0.85248,-3.9441 -2.55271,-7.40917 -4.86171,-9.90815c-3.74644,-4.14749 -9.25923,-6.22124 -16.53837,-6.22124h-18.38473zM707.03825,321.41872h16.61893c2.00992,0.01633 4.01369,-0.31736 5.96657,-0.99362c1.43242,-0.50378 2.823,-1.22325 4.14816,-2.14622c1.69091,-1.15906 3.24858,-2.67566 4.62002,-4.49818c0.90749,-1.2198 1.71397,-2.58309 2.40373,-4.06333c1.67522,-3.56152 2.55698,-7.75812 2.53033,-12.04269c0.01097,-2.09537 -0.13175,-4.18666 -0.42583,-6.23994c-0.38473,-2.58419 -1.03142,-4.83718 -1.94008,-6.75896c-0.67107,-1.42138 -1.49882,-2.67973 -2.45141,-3.72666c-1.25829,-1.34577 -2.6613,-2.39343 -4.15473,-3.10244c-2.95287,-1.46978 -6.70588,-2.20467 -11.25905,-2.20467h-16.05664zM900.83425,374.61601v-23.97315c-2.28041,0.02218 -4.5605,0.0892 -6.83961,0.20106c-4.06869,0.20418 -7.59536,0.55565 -10.58002,1.05441c-4.54987,0.76061 -8.53745,2.68239 -11.96274,5.76534c-2.72216,2.3711 -4.54428,6.36547 -4.95707,10.86671c-0.1232,1.14498 -0.18367,2.30184 -0.18086,3.46014c-0.00814,1.6294 0.10094,3.25571 0.32554,4.85355c0.45159,3.0923 1.3734,5.60324 2.76544,7.53282c1.7395,2.40963 4.17556,3.80148 7.30819,4.17555c0.59991,0.07095 1.20164,0.10605 1.80362,0.10521c4.31641,0 8.0486,-1.02323 11.19657,-3.0697c0.28493,-0.18523 0.5667,-0.38012 0.84509,-0.58448c3.31896,-2.43457 6.74425,-5.89704 10.27585,-10.38743z" id="CompoundPath 1"/></g></g></g></g></g></g></svg>