<svg version="1.1" xmlns="http://www.w3.org/2000/svg" xmlns:xlink="http://www.w3.org/1999/xlink" width="40" height="40" viewBox="399.9995,126.4995,400.001,400.001"><defs><clipPath id="clip-1"><rect x="699.99738" y="221.37357" transform="scale(0.57143,0.57143)" width="700" height="700" id="clip-1" fill="none" stroke="none" stroke-width="1" stroke-linecap="butt" stroke-linejoin="miter"/></clipPath><clipPath id="clip-2"><rect x="699.99738" y="221.37357" transform="scale(0.57143,0.57143)" width="700" height="700" id="clip-2" fill="none" stroke="none" stroke-width="1" stroke-linecap="butt" stroke-linejoin="miter"/></clipPath><clipPath id="clip-3"><rect x="699.99738" y="221.37357" transform="scale(0.57143,0.57143)" width="700" height="700" id="clip-3" fill="none" stroke="none" stroke-width="1" stroke-linecap="butt" stroke-linejoin="miter"/></clipPath><linearGradient x1="572.03101" y1="481.28758" x2="722.53679" y2="361.10759" gradientUnits="userSpaceOnUse" id="color-1"><stop offset="0" stop-color="#fc9fda" stop-opacity="0.97"/><stop offset="1" stop-color="#8cffd3" stop-opacity="0.76"/></linearGradient><linearGradient x1="404.67755" y1="197.12366" x2="769.71025" y2="388.06383" gradientUnits="userSpaceOnUse" id="color-2"><stop offset="0" stop-color="#8cffd3"/><stop offset="1" stop-color="#fc9fda"/></linearGradient><linearGradient x1="487.79271" y1="180.276" x2="554.06017" y2="472.30214" gradientUnits="userSpaceOnUse" id="color-3"><stop offset="0" stop-color="#8cffd3" stop-opacity="0.87"/><stop offset="1" stop-color="#fc9fda"/></linearGradient><linearGradient x1="531.00376" y1="439.60493" x2="616.14662" y2="359.0335" gradientUnits="userSpaceOnUse" id="color-4"><stop offset="0" stop-color="#0e0202"/><stop offset="1" stop-color="#000000"/></linearGradient><linearGradient x1="573.06904" y1="448.66481" x2="658.2119" y2="368.09338" gradientUnits="userSpaceOnUse" id="color-5"><stop offset="0" stop-color="#0e0202"/><stop offset="1" stop-color="#000000"/></linearGradient><clipPath id="clip-4"><rect x="300.60771" y="94.44609" transform="scale(1.65928,2.32937)" width="53.517" height="61.819" id="clip-4" fill="none" fill-rule="nonzero" stroke="none" stroke-width="1" stroke-linecap="butt"/></clipPath><clipPath id="clip-5"><rect x="360.65314" y="92.80287" transform="scale(1.68244,2.37063)" width="40.239" height="60.743" id="clip-5" fill="none" fill-rule="nonzero" stroke="none" stroke-width="1" stroke-linecap="butt"/></clipPath></defs><g id="document" fill-opacity="0" fill="#ffffff" fill-rule="nonzero" stroke="#000000" stroke-width="0" stroke-linecap="butt" stroke-linejoin="miter" stroke-miterlimit="10" stroke-dasharray="" stroke-dashoffset="0" font-family="none" font-weight="none" font-size="none" text-anchor="none" style="mix-blend-mode: normal"><rect x="700" y="158.125" transform="scale(0.57143,0.8)" width="700" height="500" id="Shape 1 1" vector-effect="non-scaling-stroke"/></g><g fill="none" fill-rule="none" stroke="none" stroke-width="none" stroke-linecap="none" stroke-linejoin="none" stroke-miterlimit="10" stroke-dasharray="" stroke-dashoffset="0" font-family="none" font-weight="none" font-size="none" text-anchor="none" style="mix-blend-mode: normal"><g><g id="stage"><g id="layer1 1"><g clip-path="url(#clip-1)" id="Group 1" fill-rule="nonzero"><g id="Group 1" fill-opacity="0" fill="#ffffff" stroke="#000000" stroke-width="0" stroke-linecap="butt" stroke-linejoin="miter"><rect x="699.99738" y="158.12372" transform="scale(0.57143,0.8)" width="700" height="500" id="Shape 1"/></g><g id="Group 1"><g id="Group 1"><g id="Group 1"><g id="Group 1"><g clip-path="url(#clip-2)" id="Group 1"><g id="Group 1" fill-opacity="0" fill="#ffffff" stroke="#000000" stroke-width="0" stroke-linecap="butt" stroke-linejoin="miter"><rect x="699.99738" y="158.12371" transform="scale(0.57143,0.8)" width="700" height="500" id="Shape 1"/></g><g id="Group 1"><g id="Group 1"><g id="Group 1"><g id="Group 1"><g clip-path="url(#clip-3)" id="Group 1"><g id="Group 1" fill-opacity="0" fill="#ffffff" stroke="#000000" stroke-width="0" stroke-linecap="butt" stroke-linejoin="miter"><rect x="699.99738" y="221.37357" transform="scale(0.57143,0.57143)" width="700" height="700" id="Shape 1"/></g><g id="Group 1" stroke-width="1" stroke-linecap="round" stroke-linejoin="round"><g id="Group 1"><g id="Group 1"><g id="Group 1"><path d="" id="Path 1" fill="none" stroke="#000000"/><path d="M555.65396,329.58799" id="Path 1" fill-opacity="0" fill="#ffffff" stroke-opacity="0" stroke="#000000"/><path d="M557.5019,493.72978l-58.79883,-135.80065l216.77326,17.97084l12.35495,149.51282z" id="Path 1" fill="url(#color-1)" stroke-opacity="0" stroke="#000000"/><path d="M401.0855,193.57181l123.92032,-65.98667l123.92032,65.98667l149.98702,210.59578l-273.90734,-12.63575l-100.00946,-53.25431z" id="Path 1" fill="url(#color-2)" stroke-opacity="0" stroke="#000000"/><path d="M560.04781,494.20334l-158.9623,-300.44921l124.46563,-65.87861z" id="Path 1" fill="url(#color-3)" stroke-opacity="0" stroke="#000000"/><path d="M589.86091,384.17636" id="Path 1" fill="url(#color-4)" stroke="#000000"/></g></g></g></g></g></g></g></g></g></g></g></g></g></g></g><path d="M475,451.5v-250h250v250z" id="Path 1" fill="#232222" fill-rule="nonzero" stroke-opacity="0" stroke="#000000" stroke-width="1" stroke-linecap="round" stroke-linejoin="round"/><path d="M498.79196,432.63517v-12.12911h130.43v12.12911z" id="Path 1" fill="#ffffff" fill-rule="nonzero" stroke-opacity="0" stroke="#000000" stroke-width="1" stroke-linecap="round" stroke-linejoin="round"/><path d="M631.92618,393.23624" id="Path 1" fill="url(#color-5)" fill-rule="nonzero" stroke="#000000" stroke-width="1" stroke-linecap="round" stroke-linejoin="round"/><g clip-path="url(#clip-4)" id="Group 1" stroke-linejoin="miter"><g id="Group 1" fill="#ffffff" fill-rule="evenodd" stroke="#000000" stroke-width="0.25" stroke-linecap="round"><path d="M543.1112,363.99767c-14.42131,0 -25.41291,-6.14256 -32.97478,-18.42769c-5.94684,-9.65914 -9.55521,-22.83564 -10.82511,-39.52949c-0.35395,-4.77759 -0.52675,-9.57822 -0.51769,-14.38156c-0.02725,-6.6804 0.32341,-13.35329 1.04866,-19.95576c0.79866,-6.98191 2.05252,-13.2689 3.76158,-18.86095c1.59953,-5.34825 3.79016,-10.30869 6.49109,-14.69836c4.94521,-7.84888 11.49447,-13.36555 18.75479,-15.79782c4.00217,-1.45198 8.39261,-2.22921 13.17133,-2.3317c0.36336,-0.00776 0.72675,-0.01165 1.09014,-0.01165c4.43062,-0.05038 8.85101,0.60526 13.17631,1.95435c6.13821,1.98929 11.40033,5.4981 15.78635,10.52645c1.50074,1.72138 2.89712,3.61468 4.17474,5.66038c5.94574,9.51161 9.55411,22.57475 10.82511,39.1894c0.35409,4.75888 0.5269,9.54091 0.51769,14.32566c0.02796,6.82903 -0.33828,13.65002 -1.09512,20.39601c-0.83406,7.15429 -2.14655,13.58957 -3.93746,19.30586c-1.58492,5.15311 -3.71204,9.94291 -6.31022,14.20919c-5.07612,8.15879 -11.86426,13.84797 -19.38863,16.24972c-3.91036,1.36035 -8.18299,2.08324 -12.8179,2.16865c-0.31027,0.00595 -0.62056,0.00906 -0.93085,0.00932zM543.1112,348.64243c10.15476,0 17.93234,-4.87228 23.33273,-14.61683c2.39088,-4.41279 4.21624,-9.37626 5.3943,-14.66807c1.04424,-4.49259 1.78649,-9.47357 2.22675,-14.94294c0.33042,-4.23588 0.49107,-8.49448 0.48119,-12.75566c0.01944,-5.23861 -0.23065,-10.47236 -0.74833,-15.66039c-1.13826,-10.96049 -3.57574,-19.74922 -7.31243,-26.3662c-4.114,-7.28607 -10.04517,-12.10745 -16.59441,-13.48941c-2.23953,-0.53625 -4.50795,-0.7989 -6.7798,-0.785c-3.2461,-0.04388 -6.48174,0.52333 -9.62048,1.68647c-5.40416,1.98497 -10.19401,6.40777 -13.63261,12.58794c-2.35113,4.28828 -4.1462,9.12408 -5.30304,14.28606c-1.0188,4.34506 -1.75109,9.1723 -2.19688,14.48172c-0.35791,4.40153 -0.53188,8.82871 -0.52101,13.2588c-0.0188,5.26628 0.23017,10.52773 0.74501,15.74425c0.54867,5.34669 1.40043,10.19024 2.55528,14.53064c1.12856,4.36073 2.72008,8.45699 4.72064,12.15002c5.34729,9.70573 13.09832,14.55859 23.25308,14.55859z" id="CompoundPath 1"/></g></g><g clip-path="url(#clip-5)" id="Group 1" stroke-linejoin="miter"><g id="Group 1" fill="#ffffff" fill-rule="evenodd" stroke="#000000" stroke-width="0.25" stroke-linecap="round"><path d="M606.77712,357.86482v-131.72864c0,-2.16043 0.35612,-3.72267 1.06835,-4.68673c0.32244,-0.42676 0.70389,-0.75521 1.1205,-0.96485c0.33424,-0.17543 0.70999,-0.30344 1.12723,-0.38404c0.37149,-0.06864 0.74584,-0.10191 1.1205,-0.09957h26.12323c2.61798,-0.0143 5.23375,0.21615 7.83007,0.68985c2.71882,0.51206 5.22509,1.30938 7.51882,2.39196c0.8958,0.42222 1.77772,0.90077 2.64311,1.43423c2.14689,1.30047 4.16795,2.97965 6.01472,4.99728c1.96552,2.15742 3.65392,4.77379 4.9918,7.73536c2.46533,5.47773 3.698,11.84365 3.698,19.09777c-0.01185,3.7948 -0.52771,7.55295 -1.52092,11.08031c-0.21406,0.77438 -0.44694,1.53817 -0.69821,2.29003c-1.42156,4.32711 -3.4306,8.2202 -5.91377,11.45961c-1.16477,1.53073 -2.44617,2.87516 -3.82082,4.00873c-1.27627,1.04785 -2.64299,1.85975 -4.06646,2.41567v0.81075c0.0009,-0.07279 0.04256,-0.13149 0.09422,-0.13276c0.40379,-0.11221 2.10081,0.84473 5.09106,2.87083c0.1611,0.10941 0.32205,0.21925 0.48286,0.32952c3.77988,2.58398 7.18906,6.40385 10.22755,11.45961c3.03961,5.05418 4.55941,11.59395 4.55941,19.61931c0.10317,6.38685 -0.75999,12.73146 -2.53207,18.61179c-4.10739,12.85512 -13.20883,20.28072 -27.3043,22.27678c-2.75209,0.3777 -5.51586,0.56126 -8.28096,0.54999h-25.13732c-0.93768,0 -1.7217,-0.18728 -2.35205,-0.56184c-0.3789,-0.21772 -0.72407,-0.53739 -1.01619,-0.94114c-0.34716,-0.50038 -0.60944,-1.10498 -0.76719,-1.76849c-0.20077,-0.80127 -0.30116,-1.75505 -0.30116,-2.86135zM619.67469,348.37283h21.35856c1.95988,0.01867 3.91618,-0.23863 5.83975,-0.76808c2.34756,-0.6701 4.4265,-1.77955 6.2368,-3.32836c1.00695,-0.85984 1.94356,-1.87348 2.79285,-3.02255c2.48953,-3.4007 4.16548,-7.80961 4.79495,-12.61411c0.31744,-2.26955 0.47244,-4.57825 0.46267,-6.89141c0.01943,-2.61411 -0.24207,-5.21731 -0.7756,-7.72113c-0.87234,-3.99926 -2.61218,-7.51279 -4.97497,-10.04672c-3.83372,-4.20549 -9.47437,-6.30824 -16.92197,-6.30824h-18.81303zM619.67469,282.04505h17.00609c2.05618,0.01636 4.10606,-0.32199 6.10389,-1.00752c1.46637,-0.51067 2.88991,-1.2402 4.24648,-2.17624c1.7296,-1.17475 3.32298,-2.71174 4.72597,-4.55872c0.92932,-1.23747 1.75516,-2.62063 2.46141,-4.12252c1.71365,-3.6116 2.61536,-7.86686 2.58759,-12.2111c0.01178,-2.12459 -0.1337,-4.24513 -0.43407,-6.3272c-0.39369,-2.62033 -1.05545,-4.90483 -1.98528,-6.85348c-0.68685,-1.44041 -1.53387,-2.71555 -2.50852,-3.77641c-1.28749,-1.36542 -2.72319,-2.42854 -4.25152,-3.14819c-3.02166,-1.49033 -6.86211,-2.2355 -11.52134,-2.2355h-16.4307z" id="CompoundPath 1"/></g></g></g></g></g></g></svg>