<svg version="1.1" xmlns="http://www.w3.org/2000/svg" xmlns:xlink="http://www.w3.org/1999/xlink" width="40" height="40" viewBox="454.5,181,291,291"><defs><clipPath id="clip-1"><rect x="285.71571" y="143.28593" transform="scale(1.7738,1.59882)" width="45.601" height="75.001" id="clip-1" fill="none" fill-rule="nonzero" stroke="none" stroke-width="1" stroke-linecap="butt"/></clipPath><clipPath id="clip-2"><rect x="345.8021" y="146.51112" transform="scale(1.7643,1.58099)" width="47.101" height="73.001" id="clip-2" fill="none" fill-rule="nonzero" stroke="none" stroke-width="1" stroke-linecap="butt"/></clipPath></defs><g id="document" fill-opacity="0" fill="#ffffff" fill-rule="nonzero" stroke="#000000" stroke-width="0" stroke-linecap="butt" stroke-linejoin="miter" stroke-miterlimit="10" stroke-dasharray="" stroke-dashoffset="0" font-family="none" font-weight="none" font-size="none" text-anchor="none" style="mix-blend-mode: normal"><rect x="1093.29897" y="310.99656" transform="scale(0.41571,0.582)" width="700" height="500" id="Shape 1 1" vector-effect="non-scaling-stroke"/></g><g fill="none" fill-rule="none" stroke="none" stroke-width="none" stroke-linecap="none" stroke-linejoin="none" stroke-miterlimit="10" stroke-dasharray="" stroke-dashoffset="0" font-family="none" font-weight="none" font-size="none" text-anchor="none" style="mix-blend-mode: normal"><g><g id="stage"><g id="layer1 1"><path d="M455,471.5v-290h290v290z" id="Path 1" fill="#00faff" fill-rule="nonzero" stroke-opacity="0" stroke="#000000" stroke-width="1" stroke-linecap="round" stroke-linejoin="round"/><path d="M475,451.5v-250h250v250z" id="Path 1" fill="#232222" fill-rule="nonzero" stroke-opacity="0" stroke="#000000" stroke-width="1" stroke-linecap="round" stroke-linejoin="round"/><path d="M508.8389,415.63517v-18.12911h130.43v18.12911z" id="Path 1" fill="#ffffff" fill-rule="nonzero" stroke-opacity="0" stroke="#000000" stroke-width="1" stroke-linecap="round" stroke-linejoin="round"/><path d="M660.09815,286.0449" id="Path 1" fill="#000000" fill-rule="nonzero" stroke="#ffffff" stroke-width="1" stroke-linecap="round" stroke-linejoin="round"/><g clip-path="url(#clip-1)" id="Group 1" stroke-linejoin="miter"><g id="Group 1" fill="#ffffff" fill-rule="evenodd" stroke="#000000" stroke-width="0.25" stroke-linecap="round"><path d="M506.80243,314.46533v-50.84246c-0.0202,-3.10616 0.33669,-6.20499 1.06428,-9.24118c0.76226,-3.17636 2.04772,-6.23199 3.81367,-9.06531c3.25197,-5.16952 7.92297,-9.16657 14.01302,-11.99115c3.77776,-1.72471 7.82644,-2.91742 12.00508,-3.53659c3.15429,-0.47783 6.34808,-0.71211 9.54659,-0.70028c3.46016,-0.01632 6.91467,0.25395 10.31997,0.8074c3.94107,0.63151 7.75618,1.78728 11.32039,3.42947c6.03092,2.82458 10.67236,6.82163 13.92433,11.99115c2.23124,3.59581 3.70693,7.53196 4.3529,11.61063c0.35655,2.16371 0.53206,4.34853 0.52504,6.53597v51.00235c0.02091,3.10663 -0.33538,6.206 -1.06251,9.24278c-0.76298,3.1759 -2.04904,6.23098 -3.81544,9.06371c-3.25197,5.16952 -7.89341,9.16657 -13.92433,11.99115c-3.55768,1.63942 -7.36549,2.79408 -11.2991,3.42627c-3.21412,0.53934 -6.65352,0.80954 -10.31819,0.8106c-0.00769,0 -0.01537,0 -0.02306,0c-8.27773,0 -15.46162,-1.41229 -21.55167,-4.23687c-6.09005,-2.82458 -10.76105,-6.82163 -14.01302,-11.99115c-2.13179,-3.4388 -3.56958,-7.19133 -4.24648,-11.08302c-0.42941,-2.38819 -0.64061,-4.80413 -0.63147,-7.22347zM565.5152,314.46533v-50.84246c0.01201,-1.61043 -0.1382,-3.21851 -0.44877,-4.80445c-0.36659,-1.79707 -0.95667,-3.39962 -1.77025,-4.80765c-0.63242,-1.10467 -1.43834,-2.12133 -2.39286,-3.01857c-2.67844,-2.50802 -6.48028,-3.92297 -11.40553,-4.24487c-0.7497,-0.04851 -1.5011,-0.0725 -2.25273,-0.07195c-1.7511,-0.01077 -3.49928,0.13058 -5.22029,0.42209c-2.00203,0.35281 -3.77701,0.92678 -5.32495,1.72193c-1.14811,0.58568 -2.19657,1.31747 -3.11302,2.1728c-2.60512,2.43873 -4.10635,5.83463 -4.50368,10.18768c-0.07313,0.81266 -0.10922,1.62767 -0.1082,2.443v50.84246c-0.01253,1.65997 0.1574,3.31698 0.50731,4.94675c0.6906,3.10064 2.08835,5.63531 4.19326,7.60399c1.90744,1.75571 4.30547,3.01459 6.94088,3.64371c1.60233,0.40823 3.36135,0.65072 5.27705,0.72746c0.45028,0.01752 0.90094,0.02604 1.35164,0.02558c1.75205,0.01151 3.50112,-0.13201 5.22207,-0.42848c2.02923,-0.36453 3.82549,-0.96036 5.3888,-1.78748c1.12532,-0.59309 2.15138,-1.32737 3.04739,-2.18079c2.72101,-2.59329 4.2382,-6.16665 4.55157,-10.72009c0.04108,-0.60951 0.06119,-1.22002 0.06031,-1.83065z" id="CompoundPath 1"/></g></g><g clip-path="url(#clip-2)" id="Group 1" stroke-linejoin="miter"><g id="Group 1" fill="#ffffff" fill-rule="evenodd" stroke="#000000" stroke-width="0.25" stroke-linecap="round"><path d="M651.55917,347.0454h-41.46102v-115.41191h39.52029c4.00447,-0.02307 8.00243,0.29242 11.94077,0.94227c4.60247,0.78838 8.72563,2.07004 12.3695,3.84496c1.88342,0.91518 3.66776,1.98538 5.32995,3.19675c6.47888,4.65306 10.42045,11.57206 10.82574,19.00344c0.07603,0.9101 0.11369,1.82245 0.11292,2.7351c0.0165,2.29246 -0.26954,4.57862 -0.85216,6.81088c-0.61505,2.33803 -1.63735,4.57461 -3.0293,6.62749c-2.58764,3.79436 -6.08683,6.74554 -10.49758,8.85352c-3.13643,1.47858 -6.54185,2.44438 -10.0565,2.8521c-1.72497,0.20957 -3.46393,0.3131 -5.20468,0.30987v-0.63239c0.28872,-0.00508 0.57749,-0.00771 0.86627,-0.0079c5.88335,0 11.15213,1.03028 15.80635,3.09083c4.88123,2.16068 8.76268,5.349 11.64437,9.56496c1.80196,2.67769 3.0432,5.62769 3.66268,8.7049c0.45128,2.18681 0.6722,4.40679 0.65985,6.63065c0,6.64014 -1.70549,12.43708 -5.11647,17.39084c-3.33471,4.82353 -8.11885,8.7073 -13.80387,11.20602c-0.19096,0.08674 -0.38268,0.17212 -0.57516,0.25612c-5.97156,2.59914 -13.07051,3.9414 -21.29685,4.02677c-0.28169,0.00305 -0.56339,0.00463 -0.8451,0.00474zM631.6226,295.18909v35.41407h18.52514c6.46909,0 11.55616,-1.55464 15.26118,-4.66391c2.76767,-2.33662 4.59251,-5.42972 5.1888,-8.79502c0.25207,-1.29833 0.37546,-2.61409 0.36874,-3.93191c0.02063,-2.00629 -0.27638,-4.00505 -0.88215,-5.9366c-0.85383,-2.68845 -2.4637,-5.13542 -4.67539,-7.10653c-2.49635,-2.21072 -5.64685,-3.73476 -9.07908,-4.39198c-2.02923,-0.40504 -4.10321,-0.60234 -6.1821,-0.58813zM631.6226,248.07573v31.14541h17.64299c1.88612,0.01215 3.76842,-0.15371 5.61576,-0.49485c2.41591,-0.4627 4.53778,-1.25003 6.36559,-2.36199c0.65985,-0.40086 1.28448,-0.84642 1.86839,-1.33277c3.35217,-2.79307 5.02825,-6.61379 5.02825,-11.46214c0,-4.84835 -1.67608,-8.64272 -5.02825,-11.38309c-3.35217,-2.74037 -7.96875,-4.11056 -13.84974,-4.11056z" id="CompoundPath 1"/></g></g><path d="M653.09815,286.0449c0,-3.58985 3.13401,-6.5 7,-6.5c3.86599,0 7,2.91015 7,6.5c0,3.58985 -3.13401,6.5 -7,6.5c-3.86599,0 -7,-2.91015 -7,-6.5z" id="Path 1" fill="#ffffff" fill-rule="nonzero" stroke="#ffffff" stroke-width="1" stroke-linecap="round" stroke-linejoin="round"/></g></g></g></g></svg>