<svg version="1.1" xmlns="http://www.w3.org/2000/svg" xmlns:xlink="http://www.w3.org/1999/xlink" width="291" height="291" viewBox="454.5,181,291,291"><defs><clipPath id="clip-1"><rect x="273.82708" y="144.95881" transform="scale(1.8383,1.58666)" width="44.001" height="75.001" id="clip-1" fill="none" fill-rule="nonzero" stroke="none" stroke-width="1" stroke-linecap="butt"/></clipPath><clipPath id="clip-2"><rect x="325.04954" y="145.95881" transform="scale(1.8383,1.58666)" width="45.401" height="73.001" id="clip-2" fill="none" fill-rule="nonzero" stroke="none" stroke-width="1" stroke-linecap="butt"/></clipPath></defs><g id="document" fill-opacity="0" fill="#ffffff" fill-rule="nonzero" stroke="#000000" stroke-width="0" stroke-linecap="butt" stroke-linejoin="miter" stroke-miterlimit="10" stroke-dasharray="" stroke-dashoffset="0" font-family="none" font-weight="none" font-size="none" text-anchor="none" style="mix-blend-mode: normal"><rect x="1093.29897" y="310.99656" transform="scale(0.41571,0.582)" width="700" height="500" id="Shape 1 1" vector-effect="non-scaling-stroke"/></g><g fill="none" fill-rule="none" stroke="none" stroke-width="none" stroke-linecap="none" stroke-linejoin="none" stroke-miterlimit="10" stroke-dasharray="" stroke-dashoffset="0" font-family="none" font-weight="none" font-size="none" text-anchor="none" style="mix-blend-mode: normal"><g><g id="stage"><g id="layer1 1"><path d="M455,471.5v-290h290v290z" id="Path 1" fill="#00faff" fill-rule="nonzero" stroke-opacity="0" stroke="#000000" stroke-width="1" stroke-linecap="round" stroke-linejoin="round"/><path d="M475,451.5v-250h250v250z" id="Path 1" fill="#232222" fill-rule="nonzero" stroke-opacity="0" stroke="#000000" stroke-width="1" stroke-linecap="round" stroke-linejoin="round"/><path d="M498.79196,432.63517v-12.12911h130.43v12.12911z" id="Path 1" fill="#ffffff" fill-rule="nonzero" stroke-opacity="0" stroke="#000000" stroke-width="1" stroke-linecap="round" stroke-linejoin="round"/><g clip-path="url(#clip-1)" id="Group 1" stroke-linejoin="miter"><g id="Group 1" fill="#ffffff" fill-rule="evenodd" stroke="#000000" stroke-width="0.25" stroke-linecap="round"><path d="M503.37689,315.20315v-51.40765c-0.01917,-2.98932 0.31654,-5.97247 1.00187,-8.90273c0.74739,-3.21225 2.05195,-6.30881 3.86963,-9.18515c3.24767,-5.0773 7.9047,-8.96461 13.9711,-11.66192c3.67119,-1.60641 7.60125,-2.72747 11.65851,-3.32563c3.28275,-0.49267 6.60956,-0.73372 9.94154,-0.72034c3.44932,-0.01507 6.89291,0.24412 10.28714,0.77429c3.93594,0.60756 7.74743,1.70984 11.31291,3.27168c6.0664,2.69731 10.72343,6.58462 13.9711,11.66192c2.07866,3.29472 3.49463,6.86994 4.18765,10.57347c0.46626,2.43105 0.69501,4.89162 0.68385,7.35574v51.56631c0,6.87551 -1.62383,12.87836 -4.8715,18.00854c-3.24767,5.13019 -7.9047,9.04394 -13.9711,11.74125c-3.67051,1.60681 -7.59994,2.72841 -11.65667,3.32722c-3.28341,0.49223 -6.61084,0.73275 -9.94338,0.71876c-3.4487,0.01497 -6.89168,-0.24422 -10.2853,-0.77429c-3.93657,-0.60741 -7.7487,-1.70969 -11.31475,-3.27168c-6.0664,-2.69731 -10.72343,-6.61107 -13.9711,-11.74125c-2.16771,-3.47491 -3.61656,-7.24954 -4.28141,-11.15419c-0.40069,-2.26828 -0.59797,-4.55987 -0.59009,-6.85435zM564.40852,315.20315v-51.40765c0.01302,-1.754 -0.15802,-3.50542 -0.51105,-5.23279c-0.42158,-1.98649 -1.10482,-3.75985 -2.04971,-5.32006c-0.71277,-1.1862 -1.61431,-2.28049 -2.67841,-3.25106c-3.16433,-2.87502 -7.66143,-4.4474 -13.4913,-4.71713c-0.61895,-0.02863 -1.23868,-0.04291 -1.85852,-0.04284c-2.02153,-0.01291 -4.03897,0.15888 -6.0186,0.51249c-2.56382,0.476 -4.80777,1.28255 -6.73186,2.41965c-0.90516,0.53465 -1.74526,1.14705 -2.50744,1.82783c-3.08099,2.75232 -4.82616,6.57775 -5.23548,11.47628c-0.06421,0.77463 -0.0961,1.55101 -0.09559,2.32762v51.40765c-0.01405,1.81069 0.17868,3.61816 0.57539,5.39622c0.78312,3.38487 2.36835,6.16098 4.75569,8.32836c2.23683,2.0022 5.07914,3.42312 8.20434,4.10151c2.11772,0.49186 4.46891,0.73779 7.05357,0.73779c2.00723,0.01289 4.01062,-0.15353 5.97816,-0.49662c2.42166,-0.43897 4.5498,-1.16884 6.38442,-2.18958c1.09502,-0.60838 2.09842,-1.33159 2.98724,-2.15309c3.49277,-3.2262 5.23916,-7.80106 5.23916,-13.72457z" id="CompoundPath 1"/></g></g><g clip-path="url(#clip-2)" id="Group 1" stroke-linejoin="miter"><g id="Group 1" fill="#ffffff" fill-rule="evenodd" stroke="#000000" stroke-width="0.25" stroke-linecap="round"><path d="M639.63637,347.41384h-42.09712v-115.82587h39.52349c3.99434,-0.02219 7.98236,0.2774 11.9122,0.89487c7.23311,1.17941 13.25048,3.52555 18.05213,7.03841c5.94585,4.33482 9.71356,10.49008 10.51141,17.17238c0.22718,1.5668 0.33893,3.14446 0.33457,4.72347c0.01617,2.30569 -0.2656,4.60574 -0.8401,6.85753c-0.61735,2.41478 -1.66739,4.73165 -3.11225,6.86705c-2.6349,3.86086 -6.28087,6.84906 -10.9379,8.96461c-3.02914,1.35545 -6.29379,2.27612 -9.66579,2.72587c-2.21413,0.30425 -4.45309,0.45388 -6.6951,0.44744v-1.58666c0.29777,-0.00498 0.59559,-0.00762 0.89341,-0.00793c6.37401,0 12.02004,1.08686 16.93812,3.26058c5.14725,2.27421 9.19151,5.63263 12.13279,10.07526c1.87936,2.88198 3.16034,6.02542 3.78506,9.28828c0.42771,2.17312 0.63744,4.37404 0.62686,6.57827c0.0236,3.09572 -0.39752,6.18203 -1.25372,9.18832c-0.81291,2.81963 -2.09333,5.52316 -3.80161,8.02689c-3.37022,4.91863 -8.14981,8.70016 -14.33876,11.34459c-3.64544,1.53321 -7.52421,2.61282 -11.52064,3.20663c-3.44939,0.51996 -6.9455,0.7743 -10.44707,0.76001zM616.84142,294.41954v38.2384h21.14047c6.38504,0 11.58375,-1.32327 15.59615,-3.96981c0.45443,-0.2997 0.89359,-0.61627 1.31622,-0.94882c3.04933,-2.4159 5.08343,-5.63701 5.7833,-9.15818c0.3197,-1.47958 0.47604,-2.982 0.46693,-4.48706c0.02244,-2.14381 -0.2917,-4.28037 -0.93386,-6.35138c-0.93464,-2.99996 -2.76826,-5.73452 -5.31637,-7.92852c-2.95927,-2.5296 -6.72979,-4.23471 -10.82392,-4.89483c-2.00484,-0.34293 -4.04466,-0.51038 -6.08846,-0.4998zM616.84142,246.34387v33.79577h20.03749c5.59579,0 10.18419,-1.09691 13.76521,-3.29072c0.65358,-0.40023 1.27512,-0.83808 1.86036,-1.31058c3.79916,-3.06753 5.69874,-7.19284 5.69874,-12.37592c0.01931,-1.81018 -0.24913,-3.6141 -0.79782,-5.36131c-0.83941,-2.66582 -2.53903,-5.07094 -4.90091,-6.93527c-2.42858,-1.89915 -5.3814,-3.22836 -8.57568,-3.86033c-2.09076,-0.44109 -4.37945,-0.66164 -6.86606,-0.66164z" id="CompoundPath 1"/></g></g><path d="M650,286" id="Path 1" fill="#000000" fill-rule="nonzero" stroke="#ffffff" stroke-width="1" stroke-linecap="round" stroke-linejoin="round"/><path d="M642,287.5c0,-3.58985 3.13401,-6.5 7,-6.5c3.86599,0 7,2.91015 7,6.5c0,3.58985 -3.13401,6.5 -7,6.5c-3.86599,0 -7,-2.91015 -7,-6.5z" id="Path 1" fill="#ffffff" fill-rule="nonzero" stroke="#ffffff" stroke-width="1" stroke-linecap="round" stroke-linejoin="round"/></g></g></g></g></svg>