<svg version="1.1" xmlns="http://www.w3.org/2000/svg" xmlns:xlink="http://www.w3.org/1999/xlink" width="41" height="41" viewBox="579.5,306,41,41"><defs><clipPath id="clip-1"><rect x="4219.5" y="2229.7875" transform="scale(0.13746,0.13746)" width="291" height="291" id="clip-1" fill="none" fill-rule="nonzero" stroke="none" stroke-width="1" stroke-linecap="butt" stroke-linejoin="miter"/></clipPath><clipPath id="clip-2"><rect x="2408.27476" y="1424.72455" transform="scale(0.24382,0.21977)" width="45.601" height="75.001" id="clip-2" fill="none" fill-rule="nonzero" stroke="none" stroke-width="1" stroke-linecap="butt"/></clipPath><clipPath id="clip-3"><rect x="2479.79046" y="1442.40186" transform="scale(0.24252,0.21732)" width="47.101" height="73.001" id="clip-3" fill="none" fill-rule="nonzero" stroke="none" stroke-width="1" stroke-linecap="butt"/></clipPath><clipPath id="clip-4"><rect x="2575.76063" y="1372.23842" transform="scale(0.22812,0.22812)" width="107.101" height="73" id="clip-4" fill="none" fill-rule="nonzero" stroke="none" stroke-width="1" stroke-linecap="butt"/></clipPath></defs><g id="document" fill-opacity="0" fill="#ffffff" fill-rule="nonzero" stroke="#000000" stroke-width="0" stroke-linecap="butt" stroke-linejoin="miter" stroke-miterlimit="10" stroke-dasharray="" stroke-dashoffset="0" font-family="none" font-weight="none" font-size="none" text-anchor="none" style="mix-blend-mode: normal"><rect x="9893.90244" y="3731.70732" transform="scale(0.05857,0.082)" width="700" height="500" id="Shape 1 1" vector-effect="non-scaling-stroke"/></g><g fill="none" fill-rule="none" stroke="none" stroke-width="none" stroke-linecap="none" stroke-linejoin="none" stroke-miterlimit="10" stroke-dasharray="" stroke-dashoffset="0" font-family="none" font-weight="none" font-size="none" text-anchor="none" style="mix-blend-mode: normal"><g><g id="stage"><g id="layer1 1"><g clip-path="url(#clip-1)" id="Group 1"><g id="Group 1 1 1" fill-opacity="0" fill="#ffffff" fill-rule="nonzero" stroke="#000000" stroke-width="0" stroke-linecap="butt" stroke-linejoin="miter"><rect x="10150.05599" y="3831.26291" transform="scale(0.05714,0.08)" width="700" height="500" id="Shape 1 1 1"/></g><g id="Group 1 1 1"><g id="Group 1 1 1"><g id="Group 1 1 1"><g id="Group 1 1 1"><path d="M580.05629,346.42383v-39.8617h39.8617v39.8617z" id="Path 1 1 1" fill="#00faff" fill-rule="nonzero" stroke-opacity="0" stroke="#000000" stroke-width="1" stroke-linecap="round" stroke-linejoin="round"/><path d="M582.81823,343.68177v-34.36353h34.36353v34.36353z" id="Path 1 1 1" fill="#232222" fill-rule="nonzero" stroke-opacity="0" stroke="#000000" stroke-width="1" stroke-linecap="round" stroke-linejoin="round"/><path d="M587.45666,338.74498v-2.49192h17.92814v2.49192z" id="Path 1 1 1" fill="#ffffff" fill-rule="nonzero" stroke-opacity="0" stroke="#000000" stroke-width="1" stroke-linecap="round" stroke-linejoin="round"/><path d="M608.24787,320.93226" id="Path 1 1 1" fill="#000000" fill-rule="nonzero" stroke="#ffffff" stroke-width="1" stroke-linecap="round" stroke-linejoin="round"/><g clip-path="url(#clip-2)" id="Group 1 1 1" stroke-linejoin="miter"><g id="Group 1 1 1" fill="#ffffff" fill-rule="evenodd" stroke="#000000" stroke-width="0.25" stroke-linecap="round" font-family="none" font-weight="none" font-size="NaN" text-anchor="start"/></g><g clip-path="url(#clip-3)" id="Group 1 1 1" stroke-linejoin="miter"><g id="Group 1 1 1" fill="#ffffff" fill-rule="evenodd" stroke="#000000" stroke-width="0.25" stroke-linecap="round" font-family="none" font-weight="none" font-size="NaN" text-anchor="start"/></g></g></g></g></g></g><g clip-path="url(#clip-4)" id="Group 1" stroke-linejoin="miter"><g id="Group 1" fill="#ffffff" fill-rule="evenodd" stroke="#ffffff" stroke-width="0.25" stroke-linecap="round"><path d="M590.42135,329.68073h-2.85144v-16.65243h2.85144v6.68378h4.47106v-6.68378h2.85144v16.65243h-2.85144v-7.32251h-4.47106zM606.5263,329.68073h-5.24666v-16.65243h9.99146v2.64614h-7.20845v4.03764h2.44084c0.46514,-0.00234 0.92955,0.03713 1.38763,0.11794c0.5283,0.09184 1.04054,0.25956 1.52085,0.49798c0.81361,0.41061 1.44853,0.9885 1.90476,1.73368c0.33368,0.5519 0.54836,1.16743 0.63028,1.80713c0.03664,0.27051 0.05471,0.54322 0.05406,0.8162c0,1.00371 -0.22812,1.87815 -0.68435,2.62333c-0.45623,0.74518 -1.09115,1.32687 -1.90476,1.74508c-0.81361,0.41821 -1.7755,0.62732 -2.88566,0.62732zM604.06266,322.15292v5.08697h2.46365c0.80601,0 1.43713,-0.22812 1.89336,-0.68435c0.32439,-0.32752 0.54198,-0.74561 0.62412,-1.1992c0.04127,-0.21368 0.06144,-0.4309 0.06022,-0.64853c0.0022,-0.26515 -0.02744,-0.5296 -0.08828,-0.78768c-0.0939,-0.40945 -0.30035,-0.78451 -0.59607,-1.08286c-0.301,-0.29714 -0.67947,-0.50369 -1.09222,-0.59607c-0.24439,-0.05885 -0.51144,-0.08828 -0.80114,-0.08828z" id="CompoundPath 1"/></g></g></g></g></g></g></svg>