<svg xmlns="http://www.w3.org/2000/svg" xmlns:xlink="http://www.w3.org/1999/xlink" version="1.1" width="40" height="40" viewBox="250,-23.5,700,700"><defs><clipPath id="clip-1"><rect x="250" y="-23.5" width="700" height="700" id="clip-1" fill="none" stroke="none" stroke-width="1" stroke-linecap="butt" stroke-linejoin="miter"/></clipPath><clipPath id="clip-2"><rect x="250" y="-23.5" width="700" height="700" id="clip-2" fill="none" stroke="none" stroke-width="1" stroke-linecap="butt" stroke-linejoin="miter"/></clipPath><linearGradient x1="551.05544" y1="597.38006" x2="814.44056" y2="387.06508" gradientUnits="userSpaceOnUse" id="color-1"><stop offset="0" stop-color="#fc9fda" stop-opacity="0.97"/><stop offset="1" stop-color="#8cffd3" stop-opacity="0.76"/></linearGradient><linearGradient x1="258.18691" y1="100.0932" x2="896.99411" y2="434.2385" gradientUnits="userSpaceOnUse" id="color-2"><stop offset="0" stop-color="#8cffd3"/><stop offset="1" stop-color="#fc9fda"/></linearGradient><linearGradient x1="403.63841" y1="70.6098" x2="519.60649" y2="581.65554" gradientUnits="userSpaceOnUse" id="color-3"><stop offset="0" stop-color="#8cffd3" stop-opacity="0.87"/><stop offset="1" stop-color="#fc9fda"/></linearGradient><linearGradient x1="479.25777" y1="524.43543" x2="628.25777" y2="383.43543" gradientUnits="userSpaceOnUse" id="color-4"><stop offset="0" stop-color="#0e0202"/><stop offset="1" stop-color="#000000"/></linearGradient></defs><g id="document" fill-opacity="0" fill="#ffffff" fill-rule="nonzero" stroke="#000000" stroke-width="0" stroke-linecap="butt" stroke-linejoin="miter" stroke-miterlimit="10" stroke-dasharray="" stroke-dashoffset="0" font-family="none" font-weight="none" font-size="none" text-anchor="none" style="mix-blend-mode: normal"><rect x="250" y="-16.78571" transform="scale(1,1.4)" width="700" height="500" id="Shape 1 1" vector-effect="non-scaling-stroke"/></g><g fill="none" fill-rule="nonzero" stroke="none" stroke-width="none" stroke-linecap="none" stroke-linejoin="none" stroke-miterlimit="10" stroke-dasharray="" stroke-dashoffset="0" font-family="none" font-weight="none" font-size="none" text-anchor="none" style="mix-blend-mode: normal"><g><g id="stage"><g id="layer1 1"><g clip-path="url(#clip-1)" id="Group 1"><g id="Group 1" fill-opacity="0" fill="#ffffff" stroke="#000000" stroke-width="0" stroke-linecap="butt" stroke-linejoin="miter"><rect x="250" y="-16.78572" transform="scale(1,1.4)" width="700" height="500" id="Shape 1"/></g><g id="Group 1"><g id="Group 1"><g id="Group 1"><g id="Group 1"><g clip-path="url(#clip-2)" id="Group 1"><g id="Group 1" fill-opacity="0" fill="#ffffff" stroke="#000000" stroke-width="0" stroke-linecap="butt" stroke-linejoin="miter"><rect x="250" y="-23.5" width="700" height="700" id="Shape 1"/></g><g id="Group 1" stroke-width="1" stroke-linecap="round" stroke-linejoin="round"><g id="Group 1"><g id="Group 1"><g id="Group 1"><path d="" id="Path 1" fill="none" stroke="#000000"/><path d="M522.39561,331.90578" id="Path 1" fill-opacity="0" fill="#ffffff" stroke-opacity="0" stroke="#000000"/><path d="M525.62952,619.15392l-102.89796,-237.65113l379.3532,31.44897l21.62116,261.64743z" id="Path 1" fill="url(#color-1)" stroke-opacity="0" stroke="#000000"/><path d="M251.90079,93.87747l216.86056,-115.47668l216.86056,115.47668l262.47729,368.54261l-479.33785,-22.11256l-175.01656,-93.19505z" id="Path 1" fill="url(#color-2)" stroke-opacity="0" stroke="#000000"/><path d="M530.08484,619.98264l-278.18403,-525.78611l217.81486,-115.28757z" id="Path 1" fill="url(#color-3)" stroke-opacity="0" stroke="#000000"/><path d="M390.99282,528.051v-394.66188h439.35194v394.66188z" id="Path 1" fill="#232222" stroke-opacity="0" stroke="#000000"/><path d="M582.25777,427.43543" id="Path 1" fill="url(#color-4)" stroke="#000000"/><path d="M422.73156,487.88214v-25.46206h211.63905v25.46206z" id="Path 1" fill="#ffffff" stroke-opacity="0" stroke="#000000"/><path d="M455.68288,152.62636c6.68627,-2.61988 13.98343,-4.06094 21.62398,-4.06094c7.64055,0 14.93769,1.44103 21.62396,4.06094c21.48209,8.41734 36.65849,28.96219 36.65849,53.02258v123.97467c0,24.06039 -15.17641,44.64652 -36.65849,53.06387c-6.68627,2.61988 -13.98343,4.06094 -21.62398,4.06094c-7.64055,0 -14.93769,-1.44103 -21.62398,-4.06094c-21.48209,-8.41734 -36.65849,-29.00352 -36.65849,-53.06387v-123.93335c0,-24.06039 15.17641,-44.64652 36.65849,-53.06387z" id="Path 1" fill="#fffafa" stroke-opacity="0" stroke="#000000"/><path d="M455.68288,329.62358v-53.06387v-17.80559v-53.06387c0,-12.50907 9.68138,-22.64963 21.62399,-22.64963c11.94259,0 21.62399,10.14057 21.62399,22.64963v53.06387v17.80559v53.06387c0,13.80308 -10.09317,24.99271 -21.62399,24.99271c-11.53078,0 -21.62399,-11.18962 -21.62399,-24.99271z" id="Path 1" fill="#232222" stroke-opacity="0" stroke="#000000"/><path d="M674.66516,275.88433c1.87049,3.88541 3.4579,8.53811 4.67775,13.75484c1.73934,7.43822 2.73145,16.02315 2.73145,25.16554c0,19.54333 -4.53357,36.53916 -11.20849,45.23212c-7.26425,11.65861 -21.79024,19.61288 -38.52508,19.61288c-0.35361,0 -0.71025,0.24511 -1.06182,0.23805h-33.1009h-15.34972h-25.44872v-229.57076h9.07596h11.32325h20.39922h29.77946c1.44151,-0.1254 2.90377,-0.18962 4.38329,-0.18962c0.48573,0 0.96954,0.00693 1.45142,0.02065c20.80241,0.59288 37.9068,13.88361 41.37345,31.23763c2.28256,7.35813 3.61427,16.21375 3.61427,25.74256c0,21.27177 -6.63647,39.18873 -15.67257,44.58074c-2.60156,2.21272 -5.53225,4.14645 -8.72448,5.74383c4.19403,1.9184 8.02271,4.41924 11.36322,7.38853c3.35057,1.94775 6.393,5.79562 8.91912,11.04296z" id="Path 1" fill-opacity="0.97" fill="#ffffff" stroke-opacity="0" stroke="#000000"/><path d="M635.42761,226.60047c-2.08664,8.7391 -9.5589,20.44442 -18.33915,20.44442h-20.71997v-33.43625v-8.97157v-21.59649h20.71997c5.50562,0 10.45948,2.53952 13.90325,6.58837c3.30134,5.40796 2.26027,3.07355 3.06021,4.85073c1.19866,2.66298 1.87067,5.65098 1.87067,8.80772z" id="Path 1" fill="#232222" stroke-opacity="0" stroke="#000000"/><path d="M641.7073,313.48795v17.92654c0,3.19485 -1.522,7.22003 -3.08504,9.87605c-3.84739,5.67653 -10.91062,9.70134 -18.98698,9.70134h-23.2668v-25.23437v-43.91165h23.2668c9.36576,0 17.36906,6.05015 20.57486,13.57824c0.96672,2.27011 1.49719,4.73971 1.49719,7.32261z" id="Path 1" fill="#232222" stroke-opacity="0" stroke="#000000"/></g></g></g></g></g></g></g></g></g></g></g></g></g></g></svg>