<svg version="1.1" xmlns="http://www.w3.org/2000/svg" xmlns:xlink="http://www.w3.org/1999/xlink" width="40" height="40" viewBox="400,126.5,400,400"><defs><linearGradient x1="572.03168" y1="481.28861" x2="722.53746" y2="361.10862" gradientUnits="userSpaceOnUse" id="color-1"><stop offset="0" stop-color="#fc9fda" stop-opacity="0.97"/><stop offset="1" stop-color="#8cffd3" stop-opacity="0.76"/></linearGradient><linearGradient x1="404.67822" y1="197.1247" x2="769.71092" y2="388.06487" gradientUnits="userSpaceOnUse" id="color-2"><stop offset="0" stop-color="#8cffd3"/><stop offset="1" stop-color="#fc9fda"/></linearGradient><linearGradient x1="487.79338" y1="180.27703" x2="554.06084" y2="472.30317" gradientUnits="userSpaceOnUse" id="color-3"><stop offset="0" stop-color="#8cffd3" stop-opacity="0.87"/><stop offset="1" stop-color="#fc9fda"/></linearGradient><linearGradient x1="572.03168" y1="481.28861" x2="722.53746" y2="361.10862" gradientUnits="userSpaceOnUse" id="color-4"><stop offset="0" stop-color="#fc9fda" stop-opacity="0.97"/><stop offset="1" stop-color="#8cffd3" stop-opacity="0.76"/></linearGradient><linearGradient x1="404.67822" y1="197.1247" x2="769.71092" y2="388.06487" gradientUnits="userSpaceOnUse" id="color-5"><stop offset="0" stop-color="#8cffd3"/><stop offset="1" stop-color="#fc9fda"/></linearGradient><linearGradient x1="487.79338" y1="180.27703" x2="554.06084" y2="472.30317" gradientUnits="userSpaceOnUse" id="color-6"><stop offset="0" stop-color="#8cffd3" stop-opacity="0.87"/><stop offset="1" stop-color="#fc9fda"/></linearGradient><linearGradient x1="572.03168" y1="481.28861" x2="722.53746" y2="361.10862" gradientUnits="userSpaceOnUse" id="color-7"><stop offset="0" stop-color="#fc9fda" stop-opacity="0.97"/><stop offset="1" stop-color="#8cffd3" stop-opacity="0.76"/></linearGradient><linearGradient x1="404.67822" y1="197.1247" x2="769.71092" y2="388.06487" gradientUnits="userSpaceOnUse" id="color-8"><stop offset="0" stop-color="#8cffd3"/><stop offset="1" stop-color="#fc9fda"/></linearGradient><linearGradient x1="487.79338" y1="180.27703" x2="554.06084" y2="472.30317" gradientUnits="userSpaceOnUse" id="color-9"><stop offset="0" stop-color="#8cffd3" stop-opacity="0.87"/><stop offset="1" stop-color="#fc9fda"/></linearGradient><linearGradient x1="572.03168" y1="481.28861" x2="722.53746" y2="361.10862" gradientUnits="userSpaceOnUse" id="color-10"><stop offset="0" stop-color="#fc9fda" stop-opacity="0.97"/><stop offset="1" stop-color="#8cffd3" stop-opacity="0.76"/></linearGradient><linearGradient x1="404.67822" y1="197.1247" x2="769.71092" y2="388.06487" gradientUnits="userSpaceOnUse" id="color-11"><stop offset="0" stop-color="#8cffd3"/><stop offset="1" stop-color="#fc9fda"/></linearGradient><linearGradient x1="487.79338" y1="180.27703" x2="554.06084" y2="472.30317" gradientUnits="userSpaceOnUse" id="color-12"><stop offset="0" stop-color="#8cffd3" stop-opacity="0.87"/><stop offset="1" stop-color="#fc9fda"/></linearGradient><linearGradient x1="572.03168" y1="481.28861" x2="722.53746" y2="361.10862" gradientUnits="userSpaceOnUse" id="color-13"><stop offset="0" stop-color="#fc9fda" stop-opacity="0.97"/><stop offset="1" stop-color="#8cffd3" stop-opacity="0.76"/></linearGradient><linearGradient x1="404.67822" y1="197.1247" x2="769.71092" y2="388.06487" gradientUnits="userSpaceOnUse" id="color-14"><stop offset="0" stop-color="#8cffd3"/><stop offset="1" stop-color="#fc9fda"/></linearGradient><linearGradient x1="487.79338" y1="180.27704" x2="554.06084" y2="472.30318" gradientUnits="userSpaceOnUse" id="color-15"><stop offset="0" stop-color="#8cffd3" stop-opacity="0.87"/><stop offset="1" stop-color="#fc9fda"/></linearGradient><clipPath id="clip-1"><rect x="321.1389" y="149.14764" transform="scale(1.85901,1.58903)" width="45.401" height="73.001" id="clip-1" fill="none" fill-rule="nonzero" stroke="none" stroke-width="1" stroke-linecap="butt"/></clipPath><clipPath id="clip-2"><rect x="268.295" y="145.35231" transform="scale(1.86362,1.61333)" width="44.001" height="75.001" id="clip-2" fill="none" fill-rule="nonzero" stroke="none" stroke-width="1" stroke-linecap="butt"/></clipPath></defs><g id="document" fill-opacity="0" fill="#ffffff" fill-rule="nonzero" stroke="#000000" stroke-width="0" stroke-linecap="butt" stroke-linejoin="miter" stroke-miterlimit="10" stroke-dasharray="" stroke-dashoffset="0" font-family="none" font-weight="none" font-size="none" text-anchor="none" style="mix-blend-mode: normal"><rect x="700" y="158.125" transform="scale(0.57143,0.8)" width="700" height="500" id="Shape 1 1" vector-effect="non-scaling-stroke"/></g><g fill="none" fill-rule="none" stroke="none" stroke-width="none" stroke-linecap="none" stroke-linejoin="none" stroke-miterlimit="10" stroke-dasharray="" stroke-dashoffset="0" font-family="none" font-weight="none" font-size="none" text-anchor="none" style="mix-blend-mode: normal"><g><g id="stage"><g id="layer1 1"><g id="Group 1" fill-rule="nonzero" stroke-width="1" stroke-linecap="round" stroke-linejoin="round"><g id="Group 1 1"><g id="Group 1 1"><g id="Group 1 1"><path d="" id="Path 1 1" fill="none" stroke="#000000"/><path d="M557.50257,493.73081l-58.79883,-135.80065l216.77326,17.97084l12.35495,149.51282z" id="Path 1 1" fill="url(#color-1)" stroke-opacity="0" stroke="#000000"/><path d="M401.08617,193.57285l123.92032,-65.98667l123.92032,65.98667l149.98702,210.59578l-273.90734,-12.63575l-100.00946,-53.25431z" id="Path 1 1" fill="url(#color-2)" stroke-opacity="0" stroke="#000000"/><path d="M560.04848,494.20437l-158.9623,-300.44921l124.46563,-65.87861z" id="Path 1 1" fill="url(#color-3)" stroke-opacity="0" stroke="#000000"/></g></g></g></g><g id="Group 1" fill-rule="nonzero" stroke-width="1" stroke-linecap="round" stroke-linejoin="round"><g id="Group 1 1"><g id="Group 1 1"><path d="" id="Path 1 1" fill="none" stroke="#000000"/><path d="M557.50257,493.73081l-58.79883,-135.80065l216.77326,17.97084l12.35495,149.51282z" id="Path 1 1" fill="url(#color-4)" stroke-opacity="0" stroke="#000000"/><path d="M401.08617,193.57285l123.92032,-65.98667l123.92032,65.98667l149.98702,210.59578l-273.90734,-12.63575l-100.00946,-53.25431z" id="Path 1 1" fill="url(#color-5)" stroke-opacity="0" stroke="#000000"/><path d="M560.04848,494.20437l-158.9623,-300.44921l124.46563,-65.87861z" id="Path 1 1" fill="url(#color-6)" stroke-opacity="0" stroke="#000000"/></g></g></g><g id="Group 1" fill-rule="nonzero" stroke-width="1" stroke-linecap="round" stroke-linejoin="round"><g id="Group 1 1"><path d="" id="Path 1 1" fill="none" stroke="#000000"/><path d="M557.50257,493.73081l-58.79883,-135.80065l216.77326,17.97084l12.35495,149.51282z" id="Path 1 1" fill="url(#color-7)" stroke-opacity="0" stroke="#000000"/><path d="M401.08617,193.57285l123.92032,-65.98667l123.92032,65.98667l149.98702,210.59578l-273.90734,-12.63575l-100.00946,-53.25431z" id="Path 1 1" fill="url(#color-8)" stroke-opacity="0" stroke="#000000"/><path d="M560.04848,494.20437l-158.9623,-300.44921l124.46563,-65.87861z" id="Path 1 1" fill="url(#color-9)" stroke-opacity="0" stroke="#000000"/></g></g><g id="Group 1" fill-rule="nonzero" stroke-width="1" stroke-linecap="round" stroke-linejoin="round"><path d="" id="Path 1 1" fill="none" stroke="#000000"/><path d="M557.50257,493.73081l-58.79883,-135.80065l216.77326,17.97084l12.35495,149.51282z" id="Path 1 1" fill="url(#color-10)" stroke-opacity="0" stroke="#000000"/><path d="M401.08617,193.57285l123.92032,-65.98667l123.92032,65.98667l149.98702,210.59578l-273.90734,-12.63575l-100.00946,-53.25431z" id="Path 1 1" fill="url(#color-11)" stroke-opacity="0" stroke="#000000"/><path d="M560.04848,494.20437l-158.9623,-300.44921l124.46563,-65.87861z" id="Path 1 1" fill="url(#color-12)" stroke-opacity="0" stroke="#000000"/></g><path d="M557.50257,493.73081l-58.79883,-135.80065l216.77326,17.97084l12.35495,149.51282z" id="Path 1" fill="url(#color-13)" fill-rule="nonzero" stroke-opacity="0" stroke="#000000" stroke-width="1" stroke-linecap="round" stroke-linejoin="round"/><path d="M401.08617,193.57285l123.92032,-65.98667l123.92032,65.98667l149.98702,210.59578l-273.90734,-12.63575l-100.00946,-53.25431z" id="Path 1" fill="url(#color-14)" fill-rule="nonzero" stroke-opacity="0" stroke="#000000" stroke-width="1" stroke-linecap="round" stroke-linejoin="round"/><path d="M560.04848,494.20438l-158.9623,-300.44921l124.46563,-65.87861z" id="Path 1" fill="url(#color-15)" fill-rule="nonzero" stroke-opacity="0" stroke="#000000" stroke-width="1" stroke-linecap="round" stroke-linejoin="round"/><path d="M475.00067,451.50103v-250h250v250z" id="Path 1" fill="#232222" fill-rule="nonzero" stroke-opacity="0" stroke="#000000" stroke-width="1" stroke-linecap="round" stroke-linejoin="round"/><path d="M498.79263,432.63621v-12.12911h130.43v12.12911z" id="Path 1" fill="#ffffff" fill-rule="nonzero" stroke-opacity="0" stroke="#000000" stroke-width="1" stroke-linecap="round" stroke-linejoin="round"/><g clip-path="url(#clip-1)" id="Group 1" stroke-linejoin="miter"><g id="Group 1 1" fill="#ffffff" fill-rule="evenodd" stroke="#000000" stroke-width="0.25" stroke-linecap="round"><path d="M639.57204,353.00153h-42.57137v-115.99941h39.96876c4.03934,-0.02222 8.07229,0.27782 12.0464,0.89621c7.31459,1.18118 13.39976,3.53083 18.2555,7.04895c6.01284,4.34132 9.82299,10.5058 10.62983,17.1981c0.22974,1.56914 0.34275,3.14917 0.33834,4.73055c0.01635,2.30914 -0.2686,4.61264 -0.84957,6.8678c-0.62431,2.4184 -1.68618,4.73874 -3.14731,6.87733c-2.66458,3.86665 -6.35162,6.85933 -11.06112,8.97804c-3.06327,1.35748 -6.3647,2.27953 -9.77468,2.72996c-2.23908,0.30471 -4.50326,0.45457 -6.77052,0.44811v-1.58903c0.30113,-0.00499 0.6023,-0.00764 0.90348,-0.00795c6.44581,0 12.15546,1.08849 17.12894,3.26546c5.20523,2.27761 9.29506,5.64107 12.26948,10.09036c1.90053,2.8863 3.19594,6.03445 3.82771,9.3022c0.43253,2.17638 0.64462,4.38059 0.63392,6.58813c0.02386,3.10036 -0.402,6.19129 -1.26785,9.20209c-0.82207,2.82386 -2.11691,5.53144 -3.84444,8.03892c-3.40819,4.926 -8.24162,8.7132 -14.50029,11.36159c-3.68651,1.53551 -7.60898,2.61674 -11.65043,3.21144c-3.48825,0.52074 -7.02375,0.77546 -10.56476,0.76115zM616.5203,299.92783v38.2957h21.37864c6.45697,0 11.71425,-1.32525 15.77186,-3.97576c0.45955,-0.30015 0.90365,-0.61719 1.33105,-0.95024c3.08368,-2.41952 5.14069,-5.64546 5.84845,-9.1719c0.3233,-1.48179 0.4814,-2.98646 0.47219,-4.49379c0.0227,-2.14702 -0.29498,-4.28678 -0.94438,-6.3609c-0.94517,-3.00445 -2.79945,-5.74312 -5.37626,-7.9404c-2.99261,-2.53339 -6.8056,-4.24106 -10.94586,-4.90217c-2.02743,-0.34345 -4.09023,-0.51114 -6.15705,-0.50055zM616.5203,251.78013v33.8464h20.26323c5.65883,0 10.29893,-1.09855 13.92028,-3.29565c0.66095,-0.40083 1.28948,-0.83934 1.88132,-1.31254c3.84196,-3.07213 5.76294,-7.20362 5.76294,-12.39446c0.01953,-1.81289 -0.25194,-3.61951 -0.80681,-5.36934c-0.84887,-2.66981 -2.56763,-5.07854 -4.95613,-6.94566c-2.45594,-1.90199 -5.44202,-3.23319 -8.67229,-3.86612c-2.11432,-0.44175 -4.42879,-0.66263 -6.94341,-0.66263z" id="CompoundPath 1 1"/></g></g><g clip-path="url(#clip-1)" id="Group 1" stroke-linejoin="miter"><g id="Group 1 1" fill="#ffffff" fill-rule="evenodd" stroke="#000000" stroke-width="0.25" stroke-linecap="round"><path d="M499.99967,321.13609v-52.27174c-0.01943,-3.03956 0.3209,-6.07286 1.01567,-9.05237c0.75768,-3.26624 2.0802,-6.41485 3.92291,-9.33954c3.29239,-5.16264 8.01355,-9.11529 14.16349,-11.85794c3.72174,-1.63341 7.70593,-2.77332 11.81906,-3.38153c3.32796,-0.50095 6.70058,-0.74605 10.07844,-0.73245c3.49682,-0.01532 6.98783,0.24822 10.4288,0.7873c3.99014,0.61777 7.85412,1.73858 11.4687,3.32668c6.14994,2.74265 10.8711,6.6953 14.16349,11.85794c2.10728,3.3501 3.54275,6.98541 4.24532,10.7512c0.47268,2.47191 0.70458,4.97384 0.69327,7.47938v52.43307c0,6.99108 -1.64619,13.09482 -4.93858,18.31124c-3.29239,5.21642 -8.01355,9.19595 -14.16349,11.93861c-3.72105,1.63382 -7.7046,2.77427 -11.81719,3.38314c-3.32863,0.5005 -6.70188,0.74507 -10.0803,0.73084c-3.49619,0.01522 -6.98658,-0.24832 -10.42694,-0.7873c-3.99078,-0.61762 -7.8554,-1.73843 -11.47056,-3.32668c-6.14994,-2.74265 -10.8711,-6.72219 -14.16349,-11.93861c-2.19756,-3.53332 -3.66636,-7.3714 -4.34036,-11.34168c-0.4062,-2.30641 -0.60621,-4.63651 -0.59822,-6.96956zM561.87175,321.13609v-52.27174c0.0132,-1.78348 -0.1602,-3.56434 -0.51809,-5.32075c-0.42739,-2.01988 -1.12003,-3.82304 -2.07793,-5.40948c-0.72258,-1.20613 -1.63654,-2.31882 -2.71529,-3.3057c-3.20791,-2.92335 -7.76693,-4.52215 -13.67708,-4.79642c-0.62748,-0.02911 -1.25574,-0.04363 -1.88412,-0.04356c-2.04937,-0.01313 -4.09459,0.16155 -6.10148,0.5211c-2.59912,0.484 -4.87398,1.3041 -6.82456,2.46032c-0.91763,0.54364 -1.7693,1.16633 -2.54197,1.85855c-3.12342,2.79858 -4.89262,6.68831 -5.30758,11.66918c-0.0651,0.78765 -0.09742,1.57708 -0.09691,2.36675v52.27174c-0.01425,1.84112 0.18114,3.67898 0.58331,5.48692c0.7939,3.44176 2.40096,6.26454 4.82118,8.46834c2.26764,2.03585 5.14908,3.48065 8.31732,4.17045c2.14689,0.50013 4.53045,0.7502 7.1507,0.7502c2.03487,0.01311 4.06585,-0.15612 6.06048,-0.50497c2.455,-0.44635 4.61245,-1.18848 6.47234,-2.22639c1.1101,-0.6186 2.12732,-1.35397 3.02838,-2.18928c3.54087,-3.28043 5.31131,-7.93218 5.31131,-13.95526z" id="CompoundPath 1 1"/></g></g><path d="M639.20117,294.00103c0,-3.58985 3.58172,-6.5 8,-6.5c4.41828,0 8,2.91015 8,6.5c0,3.58985 -3.58172,6.5 -8,6.5c-4.41828,0 -8,-2.91015 -8,-6.5z" id="Path 1" fill="#ffffff" fill-rule="nonzero" stroke-opacity="0" stroke="#000000" stroke-width="1" stroke-linecap="round" stroke-linejoin="round"/></g></g></g></g></svg>